<svg width="513" height="200" viewBox="0 0 513 200" fill="none" xmlns="http://www.w3.org/2000/svg">
<path d="M34.2982 188.771V47.9128H4.7305e-05L6.28368 5.49826H87.971V188.771H34.2982Z" fill="#ED1B2F"/>
<path d="M123.165 188.771V5.49826H283.398L285.492 50.0074H177.885V75.1419H262.452V115.724H177.885V144.262H288.634L286.54 188.771H123.165ZM478.622 26.1819C497.473 43.6364 506.898 67.2874 506.898 97.1346C506.898 112.844 503.495 127.244 496.688 140.335L512.658 150.807V199.506H512.397L471.291 173.062C453.313 187.2 430.273 194.269 402.171 194.269C369.88 194.269 344.397 185.542 325.72 168.087C306.869 150.458 297.444 126.807 297.444 97.1346C297.444 67.2874 306.869 43.6364 325.72 26.1819C344.397 8.72736 369.88 8.68835e-05 402.171 8.68835e-05C434.462 8.68835e-05 459.946 8.72736 478.622 26.1819ZM365.778 60.4801C356.702 69.5564 352.164 82.211 352.164 98.4437C352.164 114.502 356.702 127.069 365.778 136.146C375.029 145.571 387.597 150.284 403.48 150.284C413.255 150.284 422.069 148.538 429.924 145.047L388.818 120.175L410.026 87.971L453.226 114.676C454.448 110.313 455.058 104.902 455.058 98.4437C455.058 82.211 450.52 69.5564 441.444 60.4801C432.193 51.2292 419.538 46.6037 403.48 46.6037C387.248 46.6037 374.68 51.2292 365.778 60.4801Z" fill="#00254E"/>
</svg>
