<svg width="471" height="180" viewBox="0 0 471 180" fill="none" xmlns="http://www.w3.org/2000/svg">
<path d="M30.8617 169.858V43.1124H-9.7315e-05L5.65398 4.94737H79.157V169.858H30.8617ZM115.537 169.858V4.94737H259.716L261.6 44.9971H164.774V67.6134H240.869V104.129H164.774V129.808H264.427L262.543 169.858H115.537ZM440.092 23.5587C457.054 39.2645 465.535 60.5458 465.535 87.4026C465.535 101.538 462.473 114.495 456.347 126.274L470.718 135.698V179.517H470.483L433.496 155.723C417.319 168.444 396.587 174.805 371.301 174.805C342.245 174.805 319.315 166.952 302.51 151.247C285.547 135.384 277.066 114.102 277.066 87.4026C277.066 60.5458 285.547 39.2645 302.51 23.5587C319.315 7.85294 342.245 6.04561e-05 371.301 6.04561e-05C400.356 6.04561e-05 423.287 7.85294 440.092 23.5587ZM338.554 54.4205C330.387 62.5875 326.304 73.9742 326.304 88.5806C326.304 103.03 330.387 114.338 338.554 122.505C346.878 130.986 358.186 135.227 372.479 135.227C381.274 135.227 389.205 133.656 396.273 130.515L359.286 108.134L378.368 79.1571L417.24 103.187C418.34 99.2605 418.889 94.3917 418.889 88.5806C418.889 73.9742 414.806 62.5875 406.639 54.4205C398.315 46.0965 386.928 41.9344 372.479 41.9344C357.872 41.9344 346.564 46.0965 338.554 54.4205Z" fill="white"/>
</svg>
