<svg width="510" height="174" viewBox="0 0 510 174" fill="none" xmlns="http://www.w3.org/2000/svg">
<path d="M30.8617 169.387V42.6412H-9.7315e-05L5.65398 4.47618H79.157V169.387H30.8617ZM118.128 169.387V4.47618H167.837V169.387H118.128ZM197.011 158.55V113.317H197.247C224.26 127.138 250.175 134.049 274.99 134.049C292.738 134.049 301.611 129.887 301.611 121.563C301.611 117.479 299.098 114.495 294.073 112.61C289.361 110.726 278.131 108.37 260.384 105.543C241.223 102.559 225.752 97.4543 213.973 90.2297C202.037 83.005 196.069 71.1472 196.069 54.6561C196.069 38.6362 202.822 25.679 216.329 15.7843C230.621 5.26147 250.568 3.59268e-05 276.168 3.59268e-05C297.842 3.59268e-05 319.123 4.39765 340.012 13.1929V57.9543L339.776 58.1899C318.574 45.9394 296.193 39.8142 272.634 39.8142C255.044 39.8142 246.249 43.8191 246.249 51.8291C246.249 56.6979 249.39 59.839 255.672 61.2525C257.871 61.8808 261.562 62.666 266.745 63.6084C271.927 64.5507 278.602 65.8072 286.769 67.3778C308.286 70.833 323.835 76.0159 333.415 82.9265C345.195 91.0935 351.084 103.344 351.084 119.678C351.084 134.756 345.273 147.163 333.651 156.901C319.83 168.209 299.491 173.863 272.634 173.863C248.133 173.863 222.925 168.758 197.011 158.55ZM372.243 169.387V4.47618H421.716V126.746H509.119L507.234 169.387H372.243Z" fill="white"/>
</svg>
