<svg width="930" height="283" viewBox="0 0 930 283" fill="none" xmlns="http://www.w3.org/2000/svg">
<path d="M39.5785 226V99.255H8.7167L14.3708 61.0899H87.8738V226H39.5785ZM126.609 226V61.0899H176.082V121.871H196.343L244.638 61.0899H300.237L300.472 61.3255L237.335 140.247L304.006 225.765L303.77 226H246.052L196.107 162.628H176.082V226H126.609ZM318.553 226V61.0899H368.262V226H318.553ZM446.438 226V103.496H388.72L390.604 61.0899H551.981L553.866 103.496H496.147V226H446.438ZM544.932 226L602.179 61.0899H681.808L739.055 226H687.226L675.682 191.84H607.598L595.818 226H544.932ZM637.282 103.024L619.613 154.853H663.903L646.234 103.024H637.282ZM756.785 226V61.0899H860.678C877.798 61.0899 891.226 64.5452 900.964 71.4558C910.858 78.6804 915.806 89.0462 915.806 102.553C915.806 122.028 906.539 134.671 888.006 140.483C899 145.037 906.853 150.142 911.565 155.796C916.748 162.078 919.339 170.009 919.339 179.59C919.339 210.53 898.529 226 856.909 226H756.785ZM805.551 127.054H847.486C860.364 127.054 866.804 122.107 866.804 112.212C866.804 102.789 860.364 98.077 847.486 98.077H805.551V127.054ZM805.551 188.778L849.841 188.542C863.348 188.542 870.102 183.359 870.102 172.994C870.102 162.785 863.348 157.68 849.841 157.68H805.551V188.778Z" fill="white"/>
<path d="M176.5 162.092V121.269V120.668H196.911L244.938 60.0342H301.37L237.734 139.279L304.64 225.127H246.739L196.911 162.092H176.5Z" fill="#D9D9D9" stroke="#D9D9D9" stroke-width="1.20068"/>
</svg>
