<svg width="1500" height="165" viewBox="0 0 1500 165" fill="none" xmlns="http://www.w3.org/2000/svg">
<path d="M30.8286 164.733V38.124H3.02025e-05L5.64801 9.25382e-05H79.0718V164.733H30.8286ZM117.766 164.733V9.25382e-05H175.657L219.429 77.1892L262.26 9.25382e-05H319.916V164.733H271.908V67.3052H271.202L219.9 154.849H217.076L166.244 67.5406H165.538V164.733H117.766ZM337.636 164.733L394.822 9.25382e-05H474.364L531.55 164.733H479.777L468.246 130.61H400.235L388.468 164.733H337.636ZM429.886 41.8893L412.237 93.6625H456.479L438.829 41.8893H429.886ZM580.426 164.733V42.36H522.769L524.652 9.25382e-05H685.855L687.737 42.36H630.081V164.733H580.426ZM708.129 164.733V9.25382e-05H757.548V59.5392H827.678V9.25382e-05H877.333V164.733H827.678V101.428H757.548V164.733H708.129ZM966.211 164.733V22.592H900.553L901.495 9.25382e-05H1055.64L1056.58 22.592H990.921V164.733H966.211ZM1087.4 164.733V9.25382e-05H1171.65C1191.73 9.25382e-05 1206.87 4.78519 1217.07 14.3554C1227.11 23.4549 1232.13 36.712 1232.13 54.1266C1232.13 82.5234 1218.8 99.7027 1192.12 105.664L1237.78 164.733H1208.6L1167.65 109.9H1111.88V164.733H1087.4ZM1111.88 88.2498H1171.18C1195.18 88.2498 1207.19 77.1892 1207.19 55.0679C1207.19 33.1036 1195.18 22.1214 1171.18 22.1214H1111.88V88.2498ZM1270.65 164.733V9.25382e-05H1295.12V164.733H1270.65ZM1355.31 164.733H1325.89V164.498L1396.73 79.5425L1330.83 0.235422V9.25382e-05H1360.49L1412.73 64.0106L1465.21 9.25382e-05H1494.39V0.235422L1428.97 79.3072L1499.1 164.498V164.733H1469.21L1412.49 95.0745L1355.31 164.733Z" fill="white"/>
</svg>
