<svg width="583" height="180" viewBox="0 0 583 180" fill="none" xmlns="http://www.w3.org/2000/svg">
<path d="M30.8617 169.858V43.1124H-9.7315e-05L5.65398 4.94737H79.157V169.858H30.8617ZM96.6897 169.858V4.94737H193.987C213.933 4.94737 229.325 10.4444 240.162 21.4384C250.685 32.1183 255.946 47.1174 255.946 66.4354C255.946 87.1671 249.742 103.03 237.335 114.024C225.713 124.233 210.007 129.337 190.218 129.337H146.163V169.858H96.6897ZM146.163 90.4653H185.27C199.877 90.4653 207.18 82.848 207.18 67.6134C207.18 52.3788 199.72 44.7615 184.799 44.7615H146.163V90.4653ZM299.769 169.858V117.087L227.444 4.94737H283.042L323.799 70.676H326.155L367.382 4.94737H421.567L349.478 116.851V169.858H299.769ZM551.867 23.5587C568.829 39.2645 577.31 60.5458 577.31 87.4026C577.31 101.538 574.247 114.495 568.122 126.274L582.493 135.698V179.517H582.257L545.27 155.723C529.093 168.444 508.362 174.805 483.076 174.805C454.02 174.805 431.089 166.952 414.284 151.247C397.322 135.384 388.841 114.102 388.841 87.4026C388.841 60.5458 397.322 39.2645 414.284 23.5587C431.089 7.85294 454.02 6.04561e-05 483.076 6.04561e-05C512.131 6.04561e-05 535.062 7.85294 551.867 23.5587ZM450.329 54.4205C442.162 62.5875 438.078 73.9742 438.078 88.5806C438.078 103.03 442.162 114.338 450.329 122.505C458.653 130.986 469.961 135.227 484.253 135.227C493.049 135.227 500.98 133.656 508.048 130.515L471.061 108.134L490.143 79.1571L529.015 103.187C530.114 99.2605 530.664 94.3917 530.664 88.5806C530.664 73.9742 526.58 62.5875 518.413 54.4205C510.089 46.0965 498.703 41.9344 484.253 41.9344C469.647 41.9344 458.339 46.0965 450.329 54.4205Z" fill="white"/>
</svg>
