<svg width="1182" height="1698" viewBox="0 0 1182 1698" fill="none" xmlns="http://www.w3.org/2000/svg">
<rect width="1182" height="1698" fill="black"/>
<path d="M301.016 943V802.044H266.694L272.982 759.6H354.726V943H301.016ZM374.225 943V759.6H482.431C504.613 759.6 521.731 765.713 533.783 777.94C545.485 789.817 551.337 806.498 551.337 827.982C551.337 851.038 544.437 868.679 530.639 880.906C517.713 892.259 500.247 897.936 478.239 897.936H429.245V943H374.225ZM429.245 854.706H472.737C488.981 854.706 497.103 846.235 497.103 829.292C497.103 812.349 488.806 803.878 472.213 803.878H429.245V854.706ZM600.073 943V884.312L519.639 759.6H581.471L626.797 832.698H629.417L675.267 759.6H735.527L655.355 884.05V943H600.073ZM880.435 780.298C899.299 797.765 908.731 821.432 908.731 851.3C908.731 867.02 905.325 881.43 898.513 894.53L914.495 905.01V953.742H914.233L873.099 927.28C855.108 941.428 832.052 948.502 803.931 948.502C771.618 948.502 746.116 939.769 727.427 922.302C708.563 904.661 699.131 880.993 699.131 851.3C699.131 821.432 708.563 797.765 727.427 780.298C746.116 762.831 771.618 754.098 803.931 754.098C836.244 754.098 861.746 762.831 880.435 780.298ZM767.513 814.62C758.43 823.703 753.889 836.366 753.889 852.61C753.889 868.679 758.43 881.255 767.513 890.338C776.77 899.77 789.346 904.486 805.241 904.486C815.022 904.486 823.843 902.739 831.703 899.246L790.569 874.356L811.791 842.13L855.021 868.854C856.244 864.487 856.855 859.073 856.855 852.61C856.855 836.366 852.314 823.703 843.231 814.62C833.974 805.363 821.31 800.734 805.241 800.734C788.997 800.734 776.421 805.363 767.513 814.62Z" fill="white"/>
</svg>
