<svg width="36" height="36" viewBox="0 0 36 36" fill="none" xmlns="http://www.w3.org/2000/svg">
<path d="M27.8438 33C27.4453 33 27.1114 32.8652 26.842 32.5955C26.5723 32.3261 26.4375 31.9922 26.4375 31.5938V21.2812C26.4375 20.8828 26.5723 20.5488 26.842 20.2791C27.1114 20.0097 27.4453 19.875 27.8438 19.875H31.5938C31.9922 19.875 32.3262 20.0097 32.5959 20.2791C32.8653 20.5488 33 20.8828 33 21.2812V31.5938C33 31.9922 32.8653 32.3261 32.5959 32.5955C32.3262 32.8652 31.9922 33 31.5938 33H27.8438ZM16.125 33C15.7266 33 15.3926 32.8652 15.1233 32.5955C14.8536 32.3261 14.7188 31.9922 14.7188 31.5938V4.40625C14.7188 4.00781 14.8536 3.67375 15.1233 3.40406C15.3926 3.13469 15.7266 3 16.125 3H19.875C20.2734 3 20.6075 3.13469 20.8772 3.40406C21.1465 3.67375 21.2812 4.00781 21.2812 4.40625V31.5938C21.2812 31.9922 21.1465 32.3261 20.8772 32.5955C20.6075 32.8652 20.2734 33 19.875 33H16.125ZM4.40625 33C4.00781 33 3.6739 32.8652 3.40453 32.5955C3.13484 32.3261 3 31.9922 3 31.5938V13.7812C3 13.3828 3.13484 13.0488 3.40453 12.7791C3.6739 12.5097 4.00781 12.375 4.40625 12.375H8.15625C8.55469 12.375 8.88872 12.5097 9.15844 12.7791C9.42778 13.0488 9.5625 13.3828 9.5625 13.7812V31.5938C9.5625 31.9922 9.42778 32.3261 9.15844 32.5955C8.88872 32.8652 8.55469 33 8.15625 33H4.40625Z" fill="black"/>
</svg>
