<svg width="36" height="36" viewBox="0 0 36 36" fill="none" xmlns="http://www.w3.org/2000/svg">
<path d="M34.3799 2.87793H24.2999C21.5163 2.8778 19.2599 5.13433 19.2599 7.91793V21.7354C19.2689 22.41 18.7555 22.977 18.0833 23.0348C17.3551 23.0831 16.7383 22.5046 16.7399 21.7748V7.91793C16.7399 5.13441 14.4834 2.87793 11.6999 2.87793H1.61986C0.923981 2.87793 0.359863 3.44205 0.359863 4.13793V26.8179C0.359863 27.5138 0.923967 28.078 1.61986 28.0779H12.9599C15.0439 28.0778 16.7347 29.7645 16.7399 31.8485C16.7295 32.3757 17.0526 32.8521 17.5463 33.0376C18.3734 33.3568 19.2628 32.7445 19.2599 31.8579C19.2599 29.7702 20.9522 28.0778 23.0399 28.0779H34.3799C35.0757 28.0779 35.6399 27.5138 35.6399 26.8179V4.13793C35.6399 3.44207 35.0757 2.87796 34.3799 2.87793ZM30.5999 21.7779H24.3424C23.6678 21.787 23.1008 21.2736 23.043 20.6014C22.9947 19.8732 23.5732 19.2563 24.303 19.2579H30.5605C31.2351 19.2488 31.8021 19.7623 31.8599 20.4345C31.9082 21.1627 31.3297 21.7795 30.5999 21.7779ZM30.5999 16.7379H24.3424C23.6678 16.747 23.1008 16.2336 23.043 15.5614C22.9947 14.8332 23.5732 14.2163 24.303 14.2179H30.5605C31.2351 14.2088 31.8021 14.7223 31.8599 15.3945C31.9082 16.1227 31.3297 16.7395 30.5999 16.7379ZM30.5999 11.6979H24.3424C23.6666 11.7087 23.0977 11.1948 23.0399 10.5214C22.9915 9.79318 23.57 9.17633 24.2999 9.17793H30.5573C31.2331 9.16717 31.802 9.68107 31.8599 10.3545C31.9082 11.0827 31.3297 11.6995 30.5999 11.6979Z" fill="black"/>
</svg>
