<svg width="447" height="524" viewBox="0 0 447 524" fill="none" xmlns="http://www.w3.org/2000/svg">
<path d="M437.36 268.073L223.578 523.382L13.3065 267.342C6.1707 259.972 3.41192 247.309 2.92451 241.898C-12.049 168.786 37.1412 96.0143 63.608 68.7677C113.792 4.66256 203.838 -3.07763 242.588 1.06541C276.366 3.25879 354.918 23.0869 398.902 84.8525C453.883 162.059 445.402 222.889 445.987 241.898C446.455 257.106 440.43 265.684 437.36 268.073Z" fill="white" stroke="black" stroke-width="0.29245"/>
<ellipse cx="223.14" cy="193.309" rx="171.522" ry="156.9" fill="#0A1017"/>
<path d="M223.286 107.476C268.426 107.476 298.519 119.298 298.519 134.344V150.466C304.463 150.466 309.266 155.269 309.266 161.213V182.708C309.266 188.653 304.463 193.456 298.519 193.456V247.194C298.519 253.139 293.716 257.941 287.771 257.941V268.689C287.771 274.634 282.968 279.436 277.024 279.436H266.276C260.331 279.436 255.529 274.634 255.529 268.689V257.941H191.043V268.689C191.043 274.634 186.24 279.436 180.296 279.436H169.548C163.603 279.436 158.801 274.634 158.801 268.689V257.941C152.856 257.941 148.053 253.139 148.053 247.194V193.456C142.108 193.456 137.305 188.653 137.305 182.708V161.213C137.305 155.269 142.108 150.466 148.053 150.466V134.344C148.053 119.298 178.146 107.476 223.286 107.476ZM169.548 161.213V193.456C169.548 199.401 174.351 204.204 180.296 204.204H217.912V150.466H180.296C174.351 150.466 169.548 155.269 169.548 161.213ZM228.66 204.204H266.276C272.221 204.204 277.024 199.401 277.024 193.456V161.213C277.024 155.269 272.221 150.466 266.276 150.466H228.66V204.204ZM174.922 241.82C183.195 241.82 188.366 232.863 184.229 225.698C182.309 222.373 178.761 220.325 174.922 220.325C166.648 220.325 161.477 229.281 165.614 236.446C167.534 239.772 171.082 241.82 174.922 241.82ZM271.65 241.82C279.923 241.82 285.094 232.863 280.957 225.698C279.037 222.373 275.489 220.325 271.65 220.325C263.376 220.325 258.205 229.281 262.342 236.446C264.262 239.772 267.81 241.82 271.65 241.82ZM255.529 134.344C255.529 131.389 253.11 128.971 250.155 128.971H196.417C193.461 128.971 191.043 131.389 191.043 134.344C191.043 137.3 193.461 139.718 196.417 139.718H250.155C253.11 139.718 255.529 137.3 255.529 134.344Z" fill="white"/>
</svg>
