<svg width="36" height="36" viewBox="0 0 36 36" fill="none" xmlns="http://www.w3.org/2000/svg">
<g clip-path="url(#clip0_597_317)">
<path d="M34.875 19.161C34.8745 22.3085 33.9938 25.3931 32.3323 28.0663C30.6708 30.7395 28.2948 32.8948 25.4727 34.2886C22.6507 35.6824 19.4951 36.2591 16.3625 35.9537C13.2298 35.6483 10.2451 34.4728 7.74539 32.5602C5.24573 30.6475 3.33079 28.0739 2.21697 25.1301C1.10314 22.1863 0.834814 18.9896 1.44231 15.9013C2.0498 12.813 3.5089 9.95617 5.65474 7.65357C7.80058 5.35096 10.5476 3.69438 13.5855 2.871C13.4893 2.53587 13.4722 2.18297 13.5358 1.84013C13.5993 1.49729 13.7416 1.17391 13.9515 0.895499C14.1614 0.617087 14.4331 0.391267 14.7452 0.235858C15.0574 0.0804502 15.4013 -0.000292944 15.75 7.98609e-07H20.25C20.5987 -0.000292944 20.9426 0.0804502 21.2548 0.235858C21.5669 0.391267 21.8386 0.617087 22.0485 0.895499C22.2584 1.17391 22.4007 1.49729 22.4643 1.84013C22.5278 2.18297 22.5107 2.53587 22.4145 2.871C25.9923 3.84073 29.1513 5.96154 31.4034 8.90584C33.6556 11.8501 34.8756 15.4541 34.875 19.161ZM26.7525 10.3748L15.615 16.7378L9.2475 27.8775L20.385 21.5145L26.748 10.377L26.7525 10.3748Z" fill="black"/>
</g>
<defs>
<clipPath id="clip0_597_317">
<rect width="36" height="36" fill="white"/>
</clipPath>
</defs>
</svg>
