<svg width="36" height="36" viewBox="0 0 36 36" fill="none" xmlns="http://www.w3.org/2000/svg">
<path fill-rule="evenodd" clip-rule="evenodd" d="M12.1551 3C11.7249 3 11.3364 3.25731 11.1686 3.65341L6.34716 15.032L6.34264 15.0428C6.20927 15.3675 6.15767 15.7199 6.1924 16.0691C6.22712 16.4184 6.3471 16.7538 6.54177 17.0458C6.73645 17.3378 6.9999 17.5775 7.30892 17.7439C7.61794 17.9103 7.96311 17.9982 8.31407 18L12.8776 18L8.98206 31.6341C8.84939 32.0985 9.04371 32.5941 9.45655 32.8446C9.86937 33.0951 10.3987 33.0383 10.7492 32.7062L29.1564 15.2634L29.1628 15.2572C29.4686 14.9626 29.6799 14.5837 29.7701 14.1687C29.8601 13.7537 29.8248 13.3213 29.6688 12.9263C29.5126 12.5314 29.2426 12.1918 28.8931 11.9506C28.5436 11.7093 28.1302 11.5774 27.7057 11.5715L21.3887 11.5714L24.8992 4.55058C25.0653 4.21846 25.0475 3.82402 24.8523 3.50814C24.6571 3.19227 24.3121 3 23.9408 3H12.1551Z" fill="black"/>
</svg>
