<svg width="36" height="36" viewBox="0 0 36 36" fill="none" xmlns="http://www.w3.org/2000/svg">
<path d="M18.0003 5.64966C17.5538 5.64966 17.1128 5.72683 16.6939 5.87566L1.23166 11.4597C0.707988 11.6526 0.360712 12.1487 0.360712 12.7055C0.360712 13.2622 0.707988 13.7583 1.23166 13.9513L4.42333 15.1034C3.5193 16.5256 3.00665 18.2068 3.00665 19.9763V21.5253C3.00665 23.0908 2.41131 24.7059 1.77739 25.9793C1.41908 26.6959 1.01117 27.4015 0.537106 28.0519C0.360712 28.2889 0.3111 28.5976 0.410324 28.8788C0.509549 29.1599 0.741063 29.3694 1.02771 29.441L4.55562 30.323C4.78714 30.3836 5.0352 30.3395 5.23916 30.2128C5.44311 30.086 5.58644 29.8765 5.63053 29.6395C6.1046 27.2802 5.86756 25.1634 5.51477 23.6475C5.33838 22.8648 5.10135 22.0655 4.7706 21.3323V19.9763C4.7706 18.3116 5.33287 16.7405 6.30855 15.4837C7.01965 14.6293 7.94021 13.9403 9.02064 13.5158L17.6751 10.1147C18.1271 9.93828 18.6397 10.1588 18.8161 10.6108C18.9925 11.0628 18.772 11.5754 18.32 11.7518L9.66559 15.153C8.98205 15.4231 8.38121 15.8365 7.89061 16.3436L16.6883 19.5188C17.1073 19.6676 17.5483 19.7448 17.9948 19.7448C18.4413 19.7448 18.8823 19.6676 19.3012 19.5188L34.7689 13.9513C35.2926 13.7639 35.6399 13.2622 35.6399 12.7055C35.6399 12.1487 35.2926 11.6526 34.7689 11.4597L19.3067 5.87566C18.8878 5.72683 18.4468 5.64966 18.0003 5.64966ZM7.41654 26.3762C7.41654 28.322 12.1572 30.3451 18.0003 30.3451C23.8434 30.3451 28.584 28.322 28.584 26.3762L27.7406 18.3612L19.9021 21.1945C19.2902 21.415 18.6452 21.5253 18.0003 21.5253C17.3553 21.5253 16.7049 21.415 16.0985 21.1945L8.25993 18.3612L7.41654 26.3762Z" fill="black"/>
</svg>
