<svg width="36" height="36" viewBox="0 0 36 36" fill="none" xmlns="http://www.w3.org/2000/svg">
<path d="M18.1873 8.58564L12.8512 12.9074C11.9637 13.6241 11.7928 14.914 12.4653 15.8346C13.1764 16.8158 14.5601 17.0087 15.5137 16.2646L20.9876 12.0089C21.3735 11.7112 21.9248 11.7774 22.2279 12.1633C22.5311 12.5491 22.4595 13.1004 22.0736 13.4036L20.9215 14.2966L30.6896 23.293H32.9939C34.4547 23.293 35.6399 22.1078 35.6399 20.647V13.591C35.6399 12.1302 34.4547 10.945 32.9939 10.945H28.5453L28.3303 10.8072L24.3282 8.24387C23.4848 7.70364 22.4981 7.41699 21.4948 7.41699C20.2931 7.41699 19.1244 7.83043 18.1873 8.58564ZM19.4441 15.4432L16.5942 17.6592C14.8577 19.0153 12.3385 18.6625 11.0376 16.8764C9.8138 15.1951 10.1225 12.8468 11.7377 11.5403L16.3241 7.83043C15.6846 7.56032 14.9955 7.4225 14.2955 7.4225C13.2591 7.41699 12.2503 7.72569 11.3849 8.29899L7.41586 10.945H3.00586C1.54505 10.945 0.359863 12.1302 0.359863 13.591V20.647C0.359863 22.1078 1.54505 23.293 3.00586 23.293H8.97039L14.0088 27.8904C15.0893 28.8772 16.7596 28.8 17.7463 27.7195C18.0495 27.3833 18.2534 26.9919 18.3582 26.584L19.2953 27.4439C20.3702 28.4306 22.046 28.359 23.0328 27.284C23.2808 27.0139 23.4627 26.6997 23.5785 26.3745C24.6479 27.0911 26.1032 26.9423 27.0018 25.961C27.9885 24.8861 27.9168 23.2103 26.8419 22.2236L19.4441 15.4432Z" fill="black"/>
</svg>
