<svg width="36" height="36" viewBox="0 0 36 36" fill="none" xmlns="http://www.w3.org/2000/svg">
<path d="M19.5905 3.37508C19.1685 2.95327 18.5963 2.71631 17.9997 2.71631C17.4031 2.71631 16.8309 2.95327 16.409 3.37508L1.45321 18.3286C1.34861 18.4332 1.26564 18.5574 1.20903 18.694C1.15243 18.8307 1.12329 18.9772 1.12329 19.1251C1.12329 19.273 1.15243 19.4195 1.20903 19.5561C1.26564 19.6928 1.34861 19.817 1.45321 19.9216C1.66446 20.1328 1.95097 20.2515 2.24971 20.2515C2.39764 20.2515 2.54411 20.2224 2.68077 20.1658C2.81744 20.1091 2.94161 20.0262 3.04621 19.9216L17.9997 4.96583L32.9532 19.9216C33.1645 20.1328 33.451 20.2515 33.7497 20.2515C34.0485 20.2515 34.335 20.1328 34.5462 19.9216C34.7575 19.7103 34.8761 19.4238 34.8761 19.1251C34.8761 18.8263 34.7575 18.5398 34.5462 18.3286L29.2497 13.0343V5.62508C29.2497 5.32671 29.1312 5.04056 28.9202 4.82958C28.7092 4.6186 28.4231 4.50008 28.1247 4.50008H25.8747C25.5763 4.50008 25.2902 4.6186 25.0792 4.82958C24.8682 5.04056 24.7497 5.32671 24.7497 5.62508V8.53433L19.5905 3.37508Z" fill="black"/>
<path d="M18 7.40918L28.602 18.0112C26.73 17.9227 24.8702 18.3556 23.2296 19.2616C21.5891 20.1675 20.2321 21.511 19.3099 23.1425C18.3877 24.774 17.9364 26.6294 18.0062 28.5022C18.0761 30.375 18.6643 32.1917 19.7055 33.7499H7.875C6.97989 33.7499 6.12145 33.3944 5.48851 32.7614C4.85558 32.1285 4.5 31.27 4.5 30.3749V20.9092L18 7.40918Z" fill="black"/>
<path d="M28.125 36C30.2136 36 32.2166 35.1703 33.6935 33.6935C35.1703 32.2166 36 30.2136 36 28.125C36 26.0364 35.1703 24.0334 33.6935 22.5565C32.2166 21.0797 30.2136 20.25 28.125 20.25C26.0364 20.25 24.0334 21.0797 22.5565 22.5565C21.0797 24.0334 20.25 26.0364 20.25 28.125C20.25 30.2136 21.0797 32.2166 22.5565 33.6935C24.0334 35.1703 26.0364 36 28.125 36ZM31.9027 25.8907L28.899 30.8992C28.767 31.1193 28.5866 31.3063 28.3714 31.4461C28.1562 31.586 27.912 31.6749 27.6573 31.7061C27.4027 31.7374 27.1442 31.7101 26.9016 31.6264C26.6591 31.5428 26.4388 31.4049 26.2575 31.2232L24.516 29.484C24.3051 29.2728 24.1867 28.9864 24.1869 28.6878C24.1871 28.3893 24.3059 28.1031 24.5171 27.8921C24.7284 27.6812 25.0148 27.5628 25.3133 27.563C25.6118 27.5632 25.8981 27.682 26.109 27.8933L27.3398 29.124L29.9723 24.7343C30.0482 24.6075 30.1483 24.4969 30.267 24.4089C30.3857 24.3208 30.5205 24.257 30.6639 24.2211C30.8072 24.1851 30.9562 24.1778 31.1023 24.1994C31.2485 24.2211 31.389 24.2713 31.5157 24.3473C31.6425 24.4232 31.7531 24.5233 31.8411 24.642C31.9292 24.7607 31.993 24.8955 32.0289 25.0389C32.0649 25.1822 32.0722 25.3312 32.0506 25.4773C32.0289 25.6235 31.9787 25.764 31.9027 25.8907Z" fill="black"/>
</svg>
