<svg width="413" height="530" viewBox="0 0 413 530" fill="none" xmlns="http://www.w3.org/2000/svg">
<g clip-path="url(#clip0_508_33)">
<path fill-rule="evenodd" clip-rule="evenodd" d="M198.053 3.78783C192.674 5.85372 187.273 7.93561 186.05 8.41441C184.827 8.8932 179.026 11.1062 173.158 13.3322C167.289 15.5577 161.588 17.7436 160.488 18.189C159.387 18.6349 155.336 20.166 151.485 21.5917C147.634 23.0174 144.483 24.3125 144.483 24.4689C144.483 24.6259 148.034 26.1089 152.374 27.7645C156.714 29.4205 161.466 31.2383 162.933 31.8043C164.4 32.3702 169.901 34.4601 175.158 36.4486C180.415 38.4371 185.917 40.5346 187.384 41.1094C202.234 46.9314 209.133 49.4103 209.971 49.2249C210.507 49.1062 214.146 47.7752 218.059 46.2673C221.971 44.7593 227.472 42.6547 230.284 41.5909C233.096 40.527 236.445 39.24 237.726 38.731L240.055 37.805L240.71 38.8039C242.663 41.7861 243.489 48.6532 242.065 50.0772C241.101 51.0414 241.247 52.7463 242.36 53.5265L243.321 54.2001L243.022 73.2621L242.723 92.3241L244.504 92.9122C247.02 93.7422 249.956 92.906 249.639 91.4501C249.521 90.9104 249.212 88.4684 248.951 86.0233C248.691 83.5782 248.086 78.5768 247.607 74.9092C245.266 56.9866 245.008 54.0898 245.665 53.1509C246.517 51.9337 246.447 50.8658 245.451 49.9198C244.785 49.2867 244.576 48.3038 244.43 45.1047C244.28 41.8434 244.031 40.7026 243.112 39.0569L241.978 37.0288L243.578 36.4637C245.138 35.912 270.645 26.2343 273.073 25.2723C273.746 25.006 274.296 24.6463 274.296 24.4738C274.296 24.3009 272.546 23.5136 270.406 22.7245C268.267 21.9354 265.316 20.8186 263.849 20.2425C262.382 19.6663 258.781 18.2891 255.847 17.1817C241.685 11.8362 229.02 7.01981 227.617 6.44543C220.313 3.45619 210.467 0.00325692 209.285 0.0161493C208.487 0.024596 203.433 1.72194 198.053 3.78783ZM179.221 42.0857C178.508 45.632 178.624 49.6379 179.512 52.208C180.247 54.3348 180.394 54.4637 184.252 56.3718C188.16 58.3047 190.496 58.9831 202.721 61.7367C212.405 63.9178 211.366 63.9396 220.54 61.3593C226.184 59.7722 230.165 58.3487 233.349 56.7794C237.668 54.6522 238.029 54.3703 238.862 52.4876C240.107 49.6735 240.354 45.2332 239.44 42.0892C239.036 40.7018 238.631 39.5663 238.54 39.5663C238.449 39.5663 236.004 40.4844 233.107 41.6064C230.209 42.7285 223.669 45.2265 218.571 47.1573L209.303 50.668L207.235 49.8069C206.097 49.3334 202.165 47.8183 198.498 46.4397C194.83 45.0612 189.264 42.9508 186.128 41.75C182.992 40.5488 180.269 39.5663 180.076 39.5663C179.884 39.5663 179.499 40.7 179.221 42.0857ZM189.631 69.4099C187.444 69.6198 185.524 69.943 185.364 70.1279C185.102 70.4306 181.255 84.2028 178.365 95.1831L177.242 99.4522L171.865 100.446C165.996 101.531 156.366 103.934 152.461 105.288L149.991 106.144L140.902 95.9513C135.903 90.3458 131.388 85.2466 130.869 84.6202L129.925 83.4817L125.534 85.3529C116.368 89.2602 103.444 96.3425 92.4693 103.472C89.6575 105.3 87.287 106.858 87.2017 106.937C87.1168 107.015 89.168 113.507 91.7602 121.363L96.4735 135.647L95.0313 136.842C91.7433 139.566 85.2932 145.414 81.0827 149.488L76.5864 153.839L63.4024 147.605C56.1511 144.177 50.0512 141.372 49.8472 141.372C49.0021 141.372 38.3743 154.734 33.9362 161.377C29.9312 167.371 22.4941 180.39 22.4603 181.465C22.4549 181.633 25.4517 184.834 29.1198 188.578C32.7884 192.323 37.5439 197.204 39.688 199.426L43.5859 203.465L41.4009 208.984C40.1993 212.019 38.2681 217.503 37.1095 221.171C35.951 224.838 34.9392 227.913 34.8618 228.002C34.7276 228.157 32.1095 228.501 13.0199 230.875C8.56631 231.429 4.80618 231.998 4.66392 232.14C4.26782 232.537 2.84299 238.883 2.03699 243.844C0.465458 253.517 0.00711303 259.136 0.00355651 268.779L0 278.599L5.00135 280.048C12.5821 282.246 21.5889 284.889 25.59 286.09L29.1741 287.166L29.2625 289.289C29.4395 293.53 30.2979 300.006 31.5841 306.8C32.3065 310.617 32.8977 313.845 32.8977 313.973C32.8977 314.1 27.4465 317.517 20.7834 321.567C14.1202 325.617 8.28756 329.211 7.82122 329.555C7.00144 330.158 7.06412 330.459 9.72351 338.689C13.276 349.682 16.4715 357.58 21.2293 367.126C24.5893 373.867 25.1783 374.793 25.9808 374.594C26.484 374.468 29.2968 373.942 32.2309 373.423C35.165 372.904 41.352 371.794 45.9795 370.956C50.6074 370.118 54.7161 369.433 55.1104 369.433C55.5069 369.433 56.5152 370.569 57.3661 371.974C60.5305 377.202 72.7698 392.938 73.6981 392.973C74.0101 392.985 80.1118 388.238 87.2573 382.424C94.4027 376.61 102.95 369.677 106.251 367.017C109.552 364.357 112.427 362.028 112.639 361.841C112.852 361.654 111.334 359.335 109.267 356.687C104.196 350.192 102.06 347.075 98.2807 340.652C84.6743 317.527 77.8992 291.223 79.5058 267.761C81.6989 235.739 94.465 207.39 116.701 185.162C136.887 164.984 162.68 152.32 191.074 148.647C198.687 147.663 214.728 147.658 222.282 148.638C249.384 152.155 273.783 163.661 294.246 182.575L297.525 185.606L295.297 185.455C293.357 185.324 292.533 185.579 288.907 187.431C283.915 189.982 276.025 194.992 275.415 195.998C275.174 196.395 274.63 197.825 274.206 199.176C273.342 201.934 270.839 204.937 267.628 207.071C263.913 209.539 260.806 213.48 261.038 215.427L261.181 216.633L264.071 214.242C265.66 212.927 267.061 211.743 267.183 211.611C268.376 210.321 272.958 206.822 274.672 205.893C278.707 203.706 282.226 201.459 285.044 199.273C286.59 198.073 289.714 195.831 291.984 194.289C294.256 192.748 296.374 191.115 296.692 190.661C297.011 190.206 297.37 189.933 297.49 190.054C297.736 190.299 297.893 189.374 297.942 187.393L297.975 186.068L299.526 187.837C307.499 196.933 310.893 201.384 315.323 208.551C337.659 244.693 340.29 289.755 322.336 328.685C318.249 337.547 311.571 348.192 305.77 355.092C303.864 357.359 302.304 359.408 302.304 359.644C302.304 360.581 340.554 391.642 341.724 391.655C342.365 391.662 351.482 379.416 355.499 373.151C357.975 369.291 358.594 368.594 359.382 368.782C363.735 369.818 386.641 374.768 387.085 374.768C387.768 374.768 393.727 362.998 397.445 354.307C400.247 347.755 403.208 339.536 404.342 335.159C404.712 333.731 405.122 332.283 405.253 331.941C405.553 331.161 400.405 327.03 389.66 319.427C385.259 316.312 381.516 313.635 381.343 313.476C381.17 313.318 381.503 310.589 382.082 307.412C382.662 304.236 383.484 298.593 383.908 294.872L384.68 288.107L398.84 283.387L413 278.668L412.996 272.37C412.991 265.689 412.516 258.924 411.415 249.845C410.813 244.878 409.281 235.701 408.734 233.782C408.503 232.969 408.262 232.926 390.365 230.489C384.15 229.643 379.04 228.901 379.009 228.839C378.978 228.779 378.274 226.328 377.445 223.394C376.616 220.459 374.785 215.195 373.376 211.696L370.814 205.333L380.682 195.294C386.109 189.772 390.815 184.982 391.14 184.649C391.825 183.947 390.216 180.764 383.583 169.699C377.971 160.337 367.889 146.05 366.526 145.527C366.044 145.342 361.217 147.087 346.112 152.909L339.018 155.643L334.948 151.286C331.534 147.63 324.096 140.698 320.184 137.525L319.172 136.704L323.185 122.852C325.393 115.233 327.199 108.788 327.199 108.528C327.199 107.47 315.107 99.4833 306.082 94.5811C300.579 91.5914 287.2 85.2044 286.943 85.4436C286.863 85.5178 283.635 88.6742 279.769 92.4579C275.903 96.2411 271.012 101.016 268.899 103.069L265.058 106.801L261.564 105.653C256.287 103.917 248.852 101.887 243.474 100.712C240.826 100.133 238.602 99.5923 238.531 99.51C238.461 99.4273 237.251 94.5589 235.844 88.6907C234.436 82.8224 232.86 76.3256 232.34 74.2534L231.396 70.4853L229.617 70.1892C222.395 68.9854 198.829 68.5261 189.631 69.4099ZM219.127 77.3587C222.16 77.5943 224.705 77.8509 224.783 77.9287C224.86 78.0065 226.455 84.4606 228.325 92.2716C230.197 100.083 231.753 106.507 231.785 106.549C231.818 106.591 234.944 107.25 238.733 108.015C246.316 109.543 251.801 111.036 261.124 114.109L267.289 116.141L277.869 105.568L288.448 94.9955L290.819 96.0002C296.993 98.6164 313.395 107.762 316.839 110.508L318.032 111.459L315.739 119.413C314.478 123.788 312.626 130.161 311.625 133.576L309.803 139.784L311.053 140.689C316.903 144.923 328.373 155.632 333.472 161.622C335.023 163.444 336.545 164.933 336.856 164.933C337.167 164.933 343.366 162.642 350.631 159.841C357.897 157.04 363.87 154.789 363.905 154.84C363.941 154.89 365.095 156.466 366.471 158.342C369.887 163 374.883 170.742 378.638 177.198L381.764 182.571L371.568 193.081L361.372 203.59L364.678 211.936C368.475 221.523 369.358 224.126 371.183 231.115C371.908 233.895 372.562 236.209 372.634 236.258C372.707 236.307 376.868 236.89 381.881 237.555C386.893 238.219 393.43 239.091 396.408 239.491L401.821 240.219L402.285 242.921C403.55 250.303 405.512 272.211 404.95 272.687C404.854 272.769 398.574 274.915 390.994 277.456L377.213 282.076L377.069 283.578L376.925 285.08L374.624 284.819C373.358 284.676 370.272 284.422 367.766 284.254L363.209 283.949V285.294V286.639L367.099 286.963L370.989 287.287L367.97 288.809C366.31 289.646 364.776 290.223 364.562 290.09C363.96 289.719 361.875 290.653 361.875 291.294C361.875 292.03 360.675 292.77 358.822 293.177L357.355 293.5L357.619 291.122C358.133 286.5 358.773 277.715 358.609 277.55C358.517 277.458 357.914 277.584 357.269 277.829C356.288 278.202 356.095 278.551 356.092 279.953C356.09 280.876 355.962 282.682 355.808 283.965C355.561 286.018 355.405 286.299 354.512 286.299C353.527 286.299 353.517 286.258 354.178 284.933C354.892 283.502 354.724 281.323 353.816 280.229C353.035 279.287 349.588 279.47 348.549 280.509C347.509 281.549 347.023 283.222 347.315 284.753C347.514 285.793 347.423 285.85 345.76 285.745C343.844 285.623 342.835 286.478 343.341 287.795C343.556 288.356 344.228 288.522 346.29 288.522C348.812 288.522 348.998 288.596 349.656 289.869C350.319 291.15 350.238 292.079 349.463 292.079C349.267 292.079 348.355 291.569 347.437 290.946C345.855 289.872 345.723 289.852 344.93 290.57C343.729 291.656 343.89 292.413 345.537 293.417C347.427 294.569 349.876 294.554 351.368 293.38C352.278 292.664 352.539 292.069 352.539 290.713C352.539 289.344 352.707 288.968 353.317 288.973C355.127 288.989 355.336 289.562 355.001 293.585C354.826 295.691 354.787 297.413 354.915 297.413C355.822 297.413 357.43 296.426 357.43 295.869C357.43 295.496 357.623 295.191 357.86 295.191C358.097 295.191 358.179 295.48 358.044 295.834C357.774 296.537 359.159 298.72 359.875 298.718C360.119 298.718 360.806 298.313 361.4 297.818C362.474 296.924 362.476 296.909 361.668 295.541L360.854 294.164L363.254 294.436C364.574 294.586 367.687 294.845 370.172 295.011C375.305 295.353 375.88 295.564 375.443 296.94C375.188 297.746 374.914 297.863 373.84 297.627C372.596 297.354 372.545 297.406 372.545 298.948C372.545 299.95 372.299 300.648 371.892 300.804C371.532 300.942 369.215 300.734 366.742 300.342C364.268 299.951 362.062 299.743 361.838 299.882C361.614 300.02 361.431 300.694 361.431 301.379C361.431 302.533 361.585 302.643 363.542 302.875C364.703 303.013 367.024 303.365 368.697 303.657L371.74 304.188L371.448 306.135C371.161 308.054 371.176 308.083 372.441 308.083C373.614 308.083 373.708 308.198 373.529 309.417C373.421 310.15 373.106 310.741 372.828 310.73C372.55 310.718 369.622 310.05 366.321 309.243C360.339 307.782 360.318 307.78 360.03 308.708C359.482 310.471 359.66 310.688 362.097 311.234C363.9 311.637 364.543 311.982 364.543 312.545C364.543 313.572 363.866 314.056 361.056 315.035C358.628 315.882 358.211 316.3 357.71 318.396L357.424 319.595L359.828 318.769C361.151 318.313 362.653 317.717 363.165 317.442C363.929 317.033 364.098 317.07 364.098 317.646C364.098 319.009 366.162 320.531 368.01 320.531C369.919 320.531 370.961 319.699 371.435 317.797C371.726 316.632 371.83 316.69 380.917 323.094C389.079 328.846 394.685 332.91 395.823 333.901C396.747 334.704 390.497 350.961 385.145 361.675L383.136 365.698L369.505 362.695C362.008 361.044 355.536 359.684 355.123 359.673C354.644 359.66 353.451 361.145 351.836 363.765C348.963 368.423 342.869 377.463 341.313 379.372L340.278 380.641L333.628 375.394C329.97 372.509 323.976 367.651 320.308 364.6C316.641 361.549 313.556 358.988 313.455 358.908C313.353 358.828 313.928 357.944 314.732 356.943C320.981 349.166 330.661 331.342 334.266 320.974C335.875 316.343 337.964 309.259 339.229 304.14L339.71 302.197L341.012 303.445C342.648 305.012 342.64 305.273 340.95 305.645C339.478 305.968 338.801 306.97 339.549 307.718C339.859 308.028 340.435 308.041 341.275 307.758C342.203 307.445 342.794 307.499 343.507 307.961C344.246 308.441 344.695 308.474 345.391 308.102C347.009 307.236 347.212 303.643 345.608 304.258C344.552 304.663 345.073 303.608 346.429 302.596C347.533 301.772 347.662 301.765 348.728 302.464C349.787 303.158 349.84 303.366 349.584 305.818L349.311 308.431L350.703 308.737C351.884 308.997 352.095 309.244 352.095 310.371C352.095 311.543 352.212 311.664 353.095 311.392C353.645 311.223 354.144 311.044 354.203 310.995C354.405 310.827 356.54 299.962 356.54 299.101C356.54 298.416 356.338 298.305 355.54 298.55C354.99 298.719 354.489 298.901 354.426 298.953C354.364 299.005 353.985 300.681 353.585 302.677C352.739 306.896 351.792 307.597 352.026 303.832C352.221 300.709 351.417 299.636 348.885 299.636C346.983 299.636 345.745 300.144 344.19 301.56L343.176 302.484L341.636 300.944L340.096 299.403L340.717 295.852C343.16 281.877 342.744 263.88 339.612 248.067C338.272 241.301 335.035 230.482 332.795 225.283C332.12 223.715 332.124 223.615 332.862 223.611C333.292 223.607 334.088 222.922 334.628 222.087C335.178 221.239 336.059 220.507 336.628 220.426C337.486 220.304 337.668 219.975 337.786 218.338C337.925 216.398 337.922 216.394 336.563 216.594C335.46 216.755 335.201 216.636 335.201 215.967C335.201 214.883 336.349 214.475 337.565 215.126C338.326 215.533 338.553 216.091 338.616 217.701C338.665 218.966 339.042 220.226 339.598 220.977L340.5 222.197L337.662 223.199C334.917 224.168 334.338 224.76 334.318 226.617C334.309 227.497 335.143 227.3 340.439 225.172C343.176 224.072 345.687 223.171 346.018 223.171C346.538 223.171 347.955 226.609 347.569 226.934C347.491 226.999 346.373 227.397 345.084 227.818C343.373 228.377 342.565 228.926 342.084 229.856C341.208 231.549 341.247 234.241 342.161 235.251C343.103 236.292 344.227 236.275 347.43 235.173C348.853 234.684 350.044 234.333 350.077 234.395C350.633 235.448 351.193 237.114 351.041 237.265C350.932 237.374 348.374 238.098 345.356 238.875L339.869 240.287L339.727 241.772C339.606 243.031 339.707 243.22 340.394 243.015C340.839 242.882 343.303 242.255 345.871 241.621C348.438 240.986 350.874 240.368 351.283 240.247C351.799 240.094 352.072 240.328 352.173 241.011C352.353 242.241 353 242.477 354.064 241.699C354.815 241.149 354.838 240.893 354.323 238.692C353.702 236.029 349.622 223.488 347.684 218.281C346.72 215.691 346.253 214.952 345.589 214.971C344.881 214.992 344.765 214.745 344.908 213.523C345.176 211.23 344.02 209.834 341.853 209.834C340.4 209.834 339.939 210.056 339.307 211.057C338.636 212.121 338.294 212.262 336.672 212.144C334.144 211.96 333.315 213.181 333.466 216.866C333.551 218.959 333.38 219.776 332.645 220.784C332.135 221.485 331.631 221.958 331.527 221.837C331.422 221.715 330.31 219.448 329.055 216.799C319.637 196.917 303.638 177.925 285.244 164.793C282.83 163.069 278.729 160.382 276.13 158.82C272.742 156.784 271.441 155.766 271.529 155.22C271.596 154.801 270.446 152.579 268.973 150.281C267.5 147.983 266.294 145.957 266.294 145.779C266.294 145.191 268.919 139.593 269.194 139.593C269.454 139.593 271.233 140.454 271.569 140.742C271.659 140.819 271.277 141.981 270.72 143.324C269.772 145.613 269.628 145.75 268.446 145.514C267.473 145.319 267.183 145.427 267.183 145.984C267.183 147.121 268.839 148.485 270.221 148.485C271.35 148.485 271.641 148.145 273.028 145.211L274.575 141.938L275.983 142.655C277.299 143.325 284.56 147.551 284.895 147.841C284.978 147.914 284.915 148.388 284.754 148.895C284.478 149.764 284.375 149.727 282.994 148.262C281.698 146.889 281.266 146.706 279.314 146.706C276.032 146.706 274.562 148.8 275.785 151.728C276.583 153.636 278.069 154.708 279.915 154.708H281.335L280.372 156.476C279.618 157.859 279.515 158.415 279.901 159.032C280.912 160.653 281.637 160.029 284.536 155.039C287.382 150.142 287.471 150.044 288.903 150.185C290.263 150.318 290.355 150.243 290.222 149.116C290.1 148.085 289.211 147.381 284.299 144.423C281.12 142.51 278.169 141.021 277.741 141.116C277.314 141.211 276.963 141.097 276.963 140.863C276.963 140.39 266.114 135.148 265.135 135.148C264.139 135.148 264.372 137.265 265.405 137.593C266.556 137.958 266.539 138.106 264.961 141.443C264.227 142.993 263.627 144.713 263.627 145.266C263.626 145.818 264.758 147.971 266.141 150.049C267.524 152.128 268.557 153.927 268.435 154.049C268.314 154.17 265.832 153.192 262.92 151.874C249.895 145.981 238.333 142.673 223.616 140.628C219.589 140.068 214.967 139.85 206.833 139.836C200.66 139.824 195.608 139.69 195.608 139.536C195.608 139.383 195.033 139.018 194.331 138.728C193.088 138.213 193.034 138.051 192.33 132.783C191.444 126.166 191.429 126.701 192.496 126.701C193.504 126.701 193.626 125.942 192.795 124.85C192.272 124.163 191.698 124.184 184.695 125.14C176.041 126.323 171.157 127.446 171.157 128.256C171.157 129.295 172.45 129.936 174.03 129.679C175.637 129.419 175.552 129.328 176.327 132.122C176.605 133.125 174.773 134.307 173.469 133.966C172.765 133.782 172.539 133.472 172.712 132.928C173.512 130.407 169.653 127.879 166.561 128.9C164.461 129.593 163.842 130.382 164.474 131.563C165.083 132.701 165.729 132.707 167.156 131.591C168.712 130.373 169.924 130.425 169.743 131.702C169.656 132.318 169.05 132.959 168.166 133.369C166.447 134.168 166.282 135.416 167.805 136.109C168.673 136.504 169.119 136.463 169.967 135.906C171.135 135.142 172.046 135.589 172.046 136.926C172.046 139.063 169.049 139.332 167.088 137.37C165.376 135.658 164.381 135.614 164.57 137.259C164.674 138.156 165.303 138.878 166.934 139.97C168.852 141.254 169.429 141.428 171.142 141.236C173.497 140.973 175.158 139.364 175.158 137.346C175.158 136.262 175.341 136.037 176.22 136.037C177.094 136.037 177.337 136.33 177.593 137.696C178.048 140.12 178.61 140.927 179.842 140.927C181.227 140.927 181.224 140.819 179.609 134.206C178.878 131.214 178.346 128.699 178.427 128.619C178.508 128.538 180.256 128.273 182.312 128.031C184.368 127.789 186.7 127.481 187.495 127.348C188.856 127.119 188.94 127.182 188.94 128.432C188.94 129.679 188.814 129.775 186.828 130.032C183.059 130.521 182.716 130.658 182.716 131.682C182.716 133 184.415 134.703 185.731 134.703C186.65 134.703 186.773 134.543 186.547 133.64C186.308 132.692 186.447 132.557 187.829 132.396C189.297 132.224 189.393 132.297 189.679 133.793C190.097 135.981 190.111 139.207 189.707 140.205C189.414 140.929 189.067 140.999 187.084 140.736C185.603 140.54 184.694 140.603 184.5 140.917C184.336 141.183 181.866 141.885 179.012 142.477C158.471 146.736 139.529 155.687 122.255 169.296C116.715 173.662 105.09 185.313 100.57 191.03C81.4619 215.205 71.1209 244.693 71.1365 274.963C71.1498 300.265 79.9384 327.941 95.3483 351.206C97.3724 354.262 99.625 357.544 100.354 358.499L101.679 360.235L100.297 361.425C99.5374 362.08 93.5474 366.961 86.9865 372.271C76.782 380.532 74.9575 381.846 74.3689 381.357C73.0419 380.256 65.7706 370.184 62.8382 365.386C60.6492 361.805 59.6436 360.542 58.9812 360.542C58.4882 360.542 51.8215 361.665 44.1657 363.037C36.5103 364.41 29.9756 365.429 29.6449 365.302C28.3867 364.82 20.0161 345.025 17.4434 336.449L16.5818 333.578L23.7393 329.209C27.6763 326.806 33.3481 323.346 36.3431 321.52C40.4002 319.046 41.9348 318.32 42.359 318.672C42.7697 319.013 44.6409 318.755 49.075 317.746L55.222 316.348L54.9615 314.549C54.4858 311.268 53.7225 309.278 52.451 308.007C51.3814 306.937 50.839 306.751 48.8251 306.759C44.7187 306.776 41.4143 308.913 41.2951 311.628C41.2653 312.316 41.0244 311.842 40.6732 310.404C40.3584 309.113 39.9765 307.562 39.8249 306.958C39.6093 306.1 39.7209 305.861 40.3357 305.865C40.7683 305.867 43.6726 305.432 46.7904 304.897L52.4586 303.924V302.447C52.4586 301.635 52.4088 300.972 52.3474 300.974C52.2861 300.977 49.3466 301.471 45.8145 302.073C42.2825 302.675 39.355 303.123 39.3097 303.069C39.2639 303.015 39.0029 301.91 38.7295 300.615C37.8155 296.283 37.4136 296.438 44.5675 298.367C48.052 299.306 51.176 300.076 51.5103 300.078C51.918 300.08 52.0482 299.718 51.9064 298.977C51.7224 298.014 51.8242 297.905 52.7026 298.126C54.0243 298.457 55.5705 297.602 55.5705 296.538C55.5705 295.948 55.2029 295.652 54.348 295.553C52.6297 295.356 52.4466 293.732 54.0252 292.698C55.4856 291.741 55.9924 292.318 56.0195 294.968C56.0693 299.815 59.187 313.284 62.6582 323.647C66.4259 334.895 67.2634 336.38 68.6229 334.221C69.0741 333.504 68.9821 333.033 67.7244 329.634C67.632 329.384 69.9433 328.296 72.8609 327.217C77.7894 325.393 78.1842 325.161 78.4296 323.933C78.5749 323.206 78.5976 322.515 78.4802 322.398C78.3629 322.28 75.7986 323.112 72.7827 324.247C69.7668 325.382 67.0923 326.31 66.8398 326.31C66.4659 326.31 65.3509 323.553 65.3509 322.627C65.3509 322.492 67.7422 321.636 70.6648 320.723C75.6546 319.166 75.9964 318.985 76.2641 317.765C76.421 317.051 76.4321 316.349 76.2885 316.205C76.1445 316.061 73.4064 316.79 70.2029 317.825C66.9998 318.86 64.3191 319.642 64.2462 319.563C64.1733 319.484 63.7131 318.076 63.2241 316.433L62.3341 313.448L63.2868 313.175C63.8109 313.025 64.5898 312.805 65.0175 312.686C65.6128 312.52 65.7955 312.737 65.7955 313.61C65.7955 314.576 65.9955 314.751 67.1012 314.751C68.2455 314.751 68.7158 314.286 70.9142 310.982C73.4029 307.242 73.7967 305.778 72.3875 305.507C71.9016 305.413 71.1791 306.161 70.2438 307.725L68.8332 310.084L66.3143 310.084C64.9286 310.085 63.3277 310.185 62.7564 310.307C61.8713 310.496 61.6264 310.266 61.0942 308.75C60.6212 307.402 59.127 300.651 59.127 299.861C59.127 299.795 59.5116 299.639 59.9815 299.517C60.7137 299.325 60.8795 299.61 61.1413 301.514C61.3121 302.754 61.8175 304.105 62.2874 304.575C63.2259 305.513 65.3478 305.674 66.8251 304.919C68.4509 304.088 71.5748 300.836 71.5748 299.974C71.5748 298.54 70.3256 298.579 69.0853 300.052C67.9543 301.397 65.8782 302.748 64.9441 302.748C64.4151 302.748 63.8087 301.666 63.4171 300.023C63.1405 298.864 63.1685 298.85 66.8006 298.291C70.6074 297.706 71.112 297.41 71.1236 295.758C71.1294 294.919 70.9435 294.803 69.9077 294.993C62.9449 296.272 58.9087 296.899 58.7389 296.729C58.6255 296.616 58.4455 295.465 58.3384 294.172L58.1432 291.82L63.859 291.255C67.0025 290.945 69.7103 290.553 69.8761 290.384C70.0424 290.216 70.3194 289.506 70.4923 288.807C70.7915 287.596 70.7457 287.547 69.5236 287.78C68.8181 287.914 66.8904 288.151 65.2398 288.308C62.3234 288.585 62.2372 288.564 62.1785 287.557C62.1212 286.577 62.1078 286.573 61.9313 287.477C61.7446 288.43 60.6577 288.949 58.8256 288.961C57.9872 288.966 57.8173 288.647 57.559 286.58C57.1812 283.556 57.3754 282.57 58.3877 282.376C59.3062 282.199 60.4256 283.452 60.4465 284.68C60.4669 285.872 62.5306 285.282 64.2395 283.597C65.3989 282.453 65.5732 281.963 65.5732 279.845C65.5732 277.483 65.611 277.408 66.7957 277.408C68.1414 277.408 69.7966 276.034 69.7966 274.917C69.7966 274.281 69.1035 274.238 63.3504 274.526L56.9042 274.848V273.683C56.9042 272.373 56.7811 272.315 55.4776 273.012C54.584 273.491 54.564 273.723 54.8543 280.236C55.0197 283.938 55.2584 287.566 55.3856 288.3C55.6003 289.539 55.4723 289.692 53.5789 290.461C51.1458 291.45 50.0179 293.231 50.3869 295.504C50.6127 296.896 50.5558 296.99 49.6556 296.714C49.119 296.549 48.6553 296.389 48.6255 296.358C48.5962 296.327 48.4744 295.242 48.3557 293.947C48.1503 291.712 48.2045 291.558 49.4097 290.934C50.4376 290.403 50.6803 289.983 50.6803 288.733C50.6803 287.883 50.5634 287.189 50.4207 287.189C50.278 287.189 47.4772 288.605 44.1968 290.336C38.9065 293.128 38.2254 293.618 38.1698 294.671C38.0814 296.346 37.4403 291.439 37.3874 288.683L37.3434 286.398L43.758 286.232C47.2856 286.141 50.2691 285.969 50.3869 285.849C50.5051 285.73 50.4914 285.057 50.3562 284.354L50.1108 283.075L46.2831 283.369L42.4559 283.664L46.3374 281.091C49.8845 278.741 50.2193 278.395 50.2273 277.075L50.2357 275.63L44.5675 275.636C37.5314 275.644 36.8063 275.808 36.986 277.355L37.1211 278.52L41.011 278.377C43.1507 278.298 44.901 278.324 44.901 278.435C44.901 278.546 43.209 279.702 41.1408 281.005C38.8216 282.465 37.3118 283.72 37.2002 284.28C37.1011 284.779 36.9926 284.246 36.9593 283.094L36.8988 281L34.1203 280.153C32.5923 279.687 26.0403 277.76 19.5608 275.869L7.77987 272.433L8.07951 264.584C8.36136 257.191 9.5399 246.73 10.6784 241.51C11.0216 239.938 11.4088 239.176 11.8654 239.176C13.6535 239.176 41.1573 235.529 41.3965 235.26C41.5476 235.091 42.1211 233.252 42.671 231.173C45.0859 222.046 48.4175 212.524 51.7535 205.215L53.3544 201.707L44.9543 193.212C35.3099 183.457 32.4834 180.437 32.4656 179.865C32.4478 179.291 36.0528 173.148 39.8685 167.251C42.7182 162.847 47.591 156.18 50.7759 152.33L51.8242 151.062L65.106 157.342L78.3878 163.623L85.7617 156.361C91.2859 150.922 103.728 139.748 105.744 138.416C105.831 138.359 103.816 132.032 101.266 124.356L96.6291 110.402L98.2166 109.353C107.54 103.196 126.884 92.9465 127.874 93.6382C128.179 93.8512 132.739 98.8641 138.007 104.778L147.586 115.531L152.148 113.982C160.327 111.206 172.27 108.347 181.697 106.909C182.891 106.727 183.646 106.355 183.783 105.882C184.175 104.527 187.069 94.141 189.404 85.7121L191.706 77.3992L193.768 77.2343C198.252 76.8768 213.917 76.9533 219.127 77.3587ZM192.496 107.406C189.683 108.432 188.632 110.126 189.415 112.373C189.965 113.949 190.839 114.475 193.996 115.131C196.648 115.681 197.435 116.457 196.492 117.593C195.424 118.881 192.541 118.166 191.977 116.473C191.815 115.989 188.938 116.36 188.941 116.865C188.942 117.018 189.342 117.798 189.831 118.599C190.954 120.441 192.573 121.07 195.365 120.75C198.316 120.412 199.812 118.957 199.812 116.428C199.812 114.418 198.699 113.128 196.552 112.647C193.004 111.852 192.052 111.493 192.052 110.949C192.052 109.645 194.832 109.406 195.694 110.636C196.124 111.25 196.65 111.41 197.72 111.253C199.425 111.002 199.543 110.296 198.15 108.677C197.398 107.803 196.62 107.454 195.149 107.33C194.057 107.238 192.863 107.273 192.496 107.406ZM202.277 113.586V120.032H203.417C204.138 120.032 204.969 120.523 205.679 121.366C206.296 122.1 207.153 122.7 207.582 122.7C208.563 122.7 210.02 121.137 209.629 120.505C209.447 120.211 209.85 120.032 210.697 120.032C211.851 120.032 212.057 119.864 212.057 118.921C212.057 117.828 211.998 117.81 208.501 117.81H204.944V116.254V114.698H208.278H211.612V113.364V112.03H208.278H204.944V110.697V109.363H208.501C211.998 109.363 212.057 109.344 212.057 108.251V107.14H207.167H202.277V113.586ZM215.798 113.172C214.221 116.49 213.046 119.39 213.187 119.618C213.328 119.846 214.007 120.032 214.697 120.032C215.674 120.032 216.074 119.735 216.511 118.678C217.052 117.373 217.16 117.329 219.54 117.456C221.911 117.582 222.021 117.643 222.379 119.032C222.635 120.021 223.017 120.477 223.592 120.477C224.054 120.477 224.748 120.598 225.135 120.747C226.152 121.137 226.06 120.631 223.814 113.536L221.791 107.14H220.227H218.664L215.798 113.172ZM181.059 108.934C178.559 109.321 176.422 109.729 176.311 109.841C176.142 110.01 177.817 122.225 178.06 122.597C178.103 122.662 180.369 122.378 183.094 121.964C187.001 121.372 188.049 121.064 188.044 120.511C188.027 118.828 187.468 118.64 184.117 119.193C182.36 119.483 180.849 119.641 180.76 119.543C180.67 119.446 180.465 118.748 180.303 117.993L180.01 116.621L183.03 116.215C185.918 115.827 186.056 115.753 186.197 114.525L186.343 113.24L183.974 113.549C182.67 113.719 181.179 113.962 180.66 114.09C179.883 114.28 179.68 114.087 179.523 113.01L179.33 111.698L182.613 111.237C184.419 110.984 185.974 110.698 186.07 110.603C186.165 110.508 186.099 109.935 185.924 109.33L185.605 108.231L181.059 108.934ZM228.947 108.807C228.946 108.99 228.547 111.441 228.061 114.253C226.893 121.013 226.902 121.211 228.395 121.497C229.067 121.627 229.666 121.684 229.725 121.626C229.785 121.568 230.036 120.451 230.284 119.143C230.532 117.836 230.816 116.684 230.916 116.585C231.458 116.043 232.907 117.614 234.027 119.957C235.143 122.293 235.494 122.661 236.84 122.913C237.685 123.072 238.469 123.111 238.58 122.999C238.691 122.887 238.183 121.536 237.449 119.996C236.104 117.172 236.05 116.476 237.176 116.476C238.951 116.476 239.808 112.453 238.397 110.739C237.378 109.5 228.957 107.779 228.947 108.807ZM166.189 111.529C164.557 111.931 163.096 112.385 162.943 112.538C162.79 112.692 163.325 115.632 164.132 119.072C165.581 125.243 165.615 125.323 166.712 125.067C168.354 124.684 168.526 124.376 168.041 122.685C166.866 118.589 168.086 118.067 171.551 121.183C173.711 123.124 173.912 123.208 175.701 122.905L177.582 122.588L175.02 120.203L172.458 117.818L173.438 116.493C174.313 115.308 174.363 114.985 173.903 113.45C173.061 110.641 171.439 110.237 166.189 111.529ZM220.928 114.142C220.94 114.464 220.403 114.698 219.65 114.698H218.353L219.078 112.849L219.804 111.001L220.357 112.293C220.66 113.004 220.917 113.837 220.928 114.142ZM235.542 112.205C236.245 112.64 236.2 113.586 235.446 114.212C234.482 115.012 231.173 114.34 231.173 113.344C231.173 111.595 231.59 111.255 233.342 111.576C234.265 111.745 235.255 112.028 235.542 112.205ZM244.658 111.624C242.182 112.349 240.074 115.804 240.067 119.15C240.061 122.123 243.121 124.923 246.377 124.923C248.456 124.923 251.52 122.535 250.703 121.551C249.805 120.469 248.601 120.388 247.645 121.343C246.492 122.497 245.205 122.505 244.066 121.366C242.496 119.797 243.329 115.361 245.402 114.252C246.727 113.543 248.876 114.448 249.232 115.866C249.434 116.672 249.8 116.92 250.782 116.92C251.866 116.92 252.068 116.741 252.068 115.78C252.068 114.19 251.361 113.035 249.943 112.311C248.171 111.406 246.256 111.157 244.658 111.624ZM170.708 114.025C171.569 115.063 170.922 115.941 168.893 116.487C167.405 116.888 166.953 116.87 166.655 116.399C165.882 115.181 166.257 114.282 167.712 113.861C169.772 113.266 170.093 113.284 170.708 114.025ZM256.284 114.38C256.181 114.677 255.202 117.48 254.108 120.609L252.119 126.298L253.234 126.722C254.973 127.383 255.086 127.297 255.905 124.7C256.329 123.356 256.866 122.255 257.099 122.255C258.263 122.255 260.959 123.352 260.959 123.826C260.959 124.123 260.659 125.217 260.292 126.256C259.413 128.748 259.416 128.764 260.939 129.294C262.232 129.745 262.264 129.718 263.105 127.449C264.834 122.785 266.461 117.384 266.213 117.136C266.072 116.996 265.405 116.84 264.729 116.789C263.642 116.708 263.425 116.927 262.836 118.699C262.47 119.799 262.118 120.763 262.053 120.841C261.798 121.147 258.188 119.835 258.011 119.373C257.907 119.102 258.128 118.015 258.502 116.956C258.875 115.897 259.181 114.975 259.181 114.907C259.181 114.84 258.572 114.572 257.827 114.313C256.81 113.958 256.426 113.975 256.284 114.38ZM139.289 120.85C137.287 121.745 135.53 122.601 135.384 122.751C135.152 122.991 139.674 134.043 140.233 134.602C140.556 134.925 149.374 131.066 149.374 130.602C149.374 130.38 149.171 129.821 148.924 129.36C148.494 128.555 148.355 128.575 145.548 129.833C143.939 130.556 142.473 131.147 142.29 131.147C141.842 131.147 140.862 128.943 141.123 128.52C141.238 128.336 142.541 127.704 144.019 127.117C145.497 126.53 146.699 125.946 146.691 125.819C146.682 125.693 146.432 125.155 146.135 124.623L145.595 123.656L142.629 124.923C140.127 125.991 139.622 126.084 139.406 125.52C138.876 124.138 139.214 123.726 141.705 122.718C144.864 121.439 145.089 121.241 144.72 120.077C144.323 118.828 143.573 118.935 139.289 120.85ZM199.72 123.477C193.902 123.602 193.385 123.681 193.385 124.436C193.385 125.779 194.535 126.399 196.453 126.093C198.36 125.788 198.72 126.169 198.72 128.488C198.72 129.597 198.565 129.747 197.498 129.674C196.481 129.605 196.252 129.788 196.139 130.762C196.033 131.678 196.663 132.671 199.027 135.319C200.69 137.181 202.278 138.704 202.554 138.704C202.831 138.704 203.314 138.394 203.629 138.015C204.114 137.43 203.877 136.998 202.043 135.136C200.856 133.931 200.002 132.828 200.145 132.685C200.288 132.542 201.576 132.588 203.008 132.787L205.611 133.148L205.75 135.362C205.894 137.638 206.32 138.241 207.791 138.253C208.596 138.259 208.624 137.953 208.371 132.036L208.105 125.812H209.192C210.392 125.812 210.565 125.114 209.66 123.922C209.268 123.406 208.563 123.177 207.563 123.242C206.733 123.296 203.204 123.402 199.72 123.477ZM213.502 123.813C212.332 124.65 212.144 126.933 213.134 128.283C213.502 128.785 213.666 129.651 213.526 130.352C213.148 132.251 213.736 133.74 215.153 134.473C216.847 135.349 220.036 135.337 221.301 134.451L222.297 133.753L222.008 136.211C221.732 138.559 221.772 138.693 222.892 139.203C223.537 139.497 224.153 139.649 224.261 139.54C224.37 139.432 224.787 136.649 225.189 133.356C225.59 130.062 225.974 127.311 226.042 127.242C226.109 127.173 226.991 127.248 228.002 127.41C230.169 127.756 230.126 127.449 228.959 134.227C228.042 139.552 228.176 140.482 229.864 140.482C230.834 140.482 230.887 140.305 231.883 133.703C232.804 127.595 232.333 127.874 238.98 129.502L243.008 130.488L242.646 131.888L242.283 133.288L239.951 132.667C236.456 131.736 235.619 131.825 235.619 133.126C235.619 134.979 236.547 136.481 237.691 136.481C238.319 136.481 238.731 136.217 238.731 135.814C238.731 135.417 239.135 135.15 239.731 135.154C241.667 135.168 241.826 135.601 241.063 138.791C240.305 141.958 240.625 143.152 242.23 143.148C242.793 143.147 243.259 141.837 244.326 137.258C245.548 132.011 245.805 131.353 246.686 131.223C247.415 131.116 247.639 130.824 247.537 130.112C247.419 129.277 246.737 128.982 242.51 127.932C233.873 125.787 218.726 123.528 218.726 124.384C218.726 125.67 219.396 126.236 221.247 126.513C223.01 126.778 223.216 126.925 222.992 127.757C222.853 128.276 222.736 129.151 222.733 129.702C222.729 130.252 222.505 130.702 222.235 130.702C221.965 130.702 221.149 131.202 220.422 131.813C218.678 133.282 217.058 133.67 216.211 132.824C215.15 131.762 216.511 130.687 218.506 131.011C219.934 131.243 220.059 131.173 220.059 130.149C220.059 129.252 219.783 128.98 218.642 128.752C217.548 128.533 217.346 128.348 217.753 127.94C218.468 127.225 218.422 124.704 217.683 124.09C216.599 123.191 214.561 123.056 213.502 123.813ZM127.409 126.375C124.939 127.787 123.885 129.391 123.885 131.737C123.885 135.696 126.892 139.149 130.341 139.149C132.606 139.149 135.243 137.769 136.748 135.795L137.956 134.212L136.706 131.596L135.456 128.98L132.856 130.292C130.069 131.699 129.942 131.878 130.848 133.118C131.331 133.778 131.611 133.835 132.375 133.426C133.723 132.704 134.258 132.806 134.258 133.781C134.258 134.838 132.252 136.481 130.963 136.481C128.933 136.481 126.701 133.805 126.701 131.373C126.701 130.446 127.07 130.057 128.59 129.382C129.629 128.92 130.196 128.528 129.85 128.511C129.503 128.493 129.328 128.372 129.459 128.24C129.59 128.109 130.199 128.23 130.812 128.509C131.723 128.924 132.148 128.871 133.146 128.216L134.368 127.416L133.177 126.391C131.663 125.09 129.667 125.084 127.409 126.375ZM205.389 127.797C205.389 130.167 204.252 131.137 202.443 130.313C201.559 129.91 201.388 129.506 201.388 127.822V125.812H203.388H205.389V127.797ZM216.058 126.23C216.058 126.46 215.858 126.772 215.614 126.923C215.369 127.074 215.169 126.886 215.169 126.505C215.169 126.124 215.369 125.812 215.614 125.812C215.858 125.812 216.058 126 216.058 126.23ZM282.672 130.963C276.293 136.261 276.611 135.899 277.65 136.685C278.839 137.584 279.626 137.53 280.752 136.472L281.708 135.574L283.811 136.749C285.752 137.834 285.903 138.042 285.781 139.459C285.672 140.722 285.86 141.121 286.845 141.719C287.503 142.118 288.13 142.353 288.238 142.242C288.347 142.13 288.82 138.974 289.289 135.23L290.144 128.421L288.91 127.783C288.232 127.433 287.585 127.145 287.473 127.145C287.361 127.145 285.201 128.864 282.672 130.963ZM286.555 134.059C286.316 135.013 286.174 135.072 285.182 134.619C283.775 133.979 283.793 133.657 285.299 132.47C286.382 131.616 286.539 131.591 286.672 132.251C286.755 132.66 286.702 133.474 286.555 134.059ZM292.52 137.751C290.443 140.842 288.613 143.473 288.451 143.596C288.29 143.718 288.266 144.379 288.397 145.064C288.611 146.187 288.791 146.296 290.24 146.174C291.704 146.051 291.869 145.898 292.102 144.448C292.322 143.084 294.947 138.704 295.545 138.704C295.658 138.704 295.61 140.673 295.439 143.079L295.129 147.453L296.319 148.232C296.973 148.661 297.654 148.843 297.833 148.637C298.436 147.94 304.971 138.3 304.971 138.108C304.971 138.003 304.477 137.593 303.872 137.197C302.777 136.48 302.767 136.488 300.484 139.703L298.194 142.927L298.429 138.371C298.662 133.829 298.659 133.812 297.48 132.972L296.296 132.129L292.52 137.751ZM114.135 134.155C113.459 134.574 112.982 135.119 113.074 135.366C113.167 135.613 113.817 138.665 114.519 142.149C115.221 145.634 115.956 148.485 116.151 148.485C116.347 148.485 116.983 148.173 117.565 147.792C118.484 147.189 118.57 146.917 118.22 145.698C117.777 144.156 117.749 144.201 120.202 142.575L121.928 141.432L123.174 142.353L124.42 143.274L125.828 142.382L127.235 141.491L121.451 137.43C118.27 135.197 115.599 133.375 115.516 133.381C115.432 133.388 114.811 133.736 114.135 134.155ZM139.371 139.085C137.659 140.025 134.246 141.895 131.787 143.24C127.45 145.612 124.935 147.106 124.478 147.585C124.356 147.713 123.756 148.093 123.144 148.429C121.175 149.511 115.073 153.984 112.853 155.972C110.442 158.131 110.174 159.006 111.798 159.413C112.62 159.62 113.333 159.346 114.613 158.332L116.327 156.975L119.604 161.399C122.6 165.443 123.006 165.823 124.346 165.823C125.235 165.823 125.802 165.604 125.788 165.267C125.774 164.961 124.197 162.617 122.283 160.058C118.913 155.554 118.825 155.374 119.528 154.421C119.928 153.879 120.676 153.239 121.191 153C122.035 152.606 122.427 153.004 125.209 157.081C127.928 161.066 128.461 161.616 129.719 161.738C130.533 161.818 131.146 161.671 131.146 161.396C131.146 161.131 129.652 158.678 127.825 155.944C124.566 151.068 124.519 150.957 125.361 150.173C125.833 149.733 126.516 149.374 126.878 149.374C127.241 149.374 127.673 149.155 127.838 148.888C128.011 148.607 128.613 149.217 129.264 150.333C130.906 153.15 131.484 153.7 133.121 154.007C135.034 154.366 136.728 153.698 137.463 152.295L138.05 151.174L139.106 153.164C139.979 154.81 140.38 155.153 141.433 155.153C142.311 155.153 142.705 154.929 142.705 154.43C142.705 154.033 141.501 151.451 140.03 148.692L137.354 143.677L138.86 142.747C139.687 142.235 140.465 141.816 140.587 141.816C140.709 141.816 141.88 144.117 143.188 146.929C145.528 151.957 145.592 152.041 147.056 152.041C148.891 152.041 148.866 151.929 145.553 145.304L143.185 140.567L144.168 139.9C144.968 139.355 145.059 139.08 144.66 138.412C143.88 137.107 142.697 137.258 139.371 139.085ZM118.395 138.872L119.647 139.896L118.529 140.629C117.291 141.441 117.162 141.343 116.715 139.26C116.35 137.56 116.694 137.48 118.395 138.872ZM105.859 139.983C104.636 140.923 104.547 140.713 108.19 145.496C109.706 147.486 110.692 149.188 110.548 149.564C110.177 150.53 108.25 151.653 107.475 151.356C107.101 151.212 105.564 149.507 104.06 147.567C102.556 145.626 101.178 144.039 100.997 144.039C100.817 144.039 100.222 144.352 99.6748 144.736L98.6808 145.432L100.08 147.381C100.85 148.453 102.47 150.441 103.679 151.797C105.566 153.914 106.101 154.264 107.456 154.264C109.192 154.264 111.658 152.945 112.697 151.461C114.12 149.43 113.582 147.53 110.363 143.211C108.712 140.997 107.262 139.181 107.14 139.177C107.018 139.172 106.441 139.535 105.859 139.983ZM303.849 145.336C301.726 148.005 299.983 150.356 299.976 150.559C299.97 150.763 301.202 151.88 302.715 153.041C305.804 155.413 307.973 155.794 310.358 154.384C313.223 152.692 314.964 148.477 313.88 145.859C313.431 144.775 308.683 140.482 307.934 140.482C307.81 140.482 305.972 142.667 303.849 145.336ZM310.162 145.484C311.711 147.205 311.745 147.56 310.548 149.601C308.752 152.666 307.031 153.231 304.874 151.464L303.667 150.475L305.986 147.499C307.261 145.862 308.52 144.514 308.784 144.503C309.046 144.492 309.667 144.933 310.162 145.484ZM135.52 146.505C135.805 147.128 136.037 147.699 136.037 147.775C136.037 147.85 135.04 147.715 133.823 147.474C131.579 147.031 131.348 146.513 133.081 145.814C134.606 145.199 134.973 145.303 135.52 146.505ZM135.441 149.964C135.752 150.274 134.76 152.041 134.275 152.041C133.833 152.041 132.036 149.889 132.036 149.36C132.036 149.02 135.027 149.549 135.441 149.964ZM280.544 149.387C281.015 149.639 281.695 150.415 282.055 151.113C282.699 152.356 282.686 152.386 281.393 152.644C278.814 153.16 276.896 151.604 277.87 149.786C278.381 148.831 279.261 148.7 280.544 149.387ZM93.021 150.261C89.7535 152.253 88.8301 156.805 91.0583 159.935C92.4058 161.827 95.6395 163.334 97.6516 163.008C100.536 162.539 104.028 158.785 104.028 156.15C104.028 155.305 100.997 152.041 100.212 152.041C99.9673 152.041 98.9195 152.905 97.8832 153.961C96.0063 155.874 96.0027 155.883 96.9016 156.697C97.7667 157.48 97.8401 157.481 98.6768 156.724C99.1565 156.29 99.8411 156.046 100.198 156.183C101.733 156.772 99.2049 160.154 97.2297 160.154C95.1278 160.154 92.4693 157.479 92.4693 155.363C92.4693 154.965 93.0681 154.041 93.7999 153.309C94.7726 152.337 95.379 152.058 96.0543 152.272C97.0421 152.586 98.6932 151.454 98.6932 150.464C98.6932 149.123 95.0976 148.994 93.021 150.261ZM84.3138 159.078C83.9092 159.525 83.578 160.04 83.578 160.222C83.578 160.404 84.6854 161.565 86.0387 162.802C87.392 164.039 88.4118 165.138 88.3051 165.245C88.1984 165.351 86.2712 165.101 84.0222 164.687L79.9326 163.935L78.9768 164.909L78.021 165.883L82.6889 170.282C85.2563 172.702 87.5249 174.689 87.7303 174.698C87.9357 174.707 88.4571 174.277 88.8897 173.743C89.6641 172.787 89.6366 172.735 87.0581 170.348C85.6181 169.015 84.4996 167.864 84.573 167.791C84.6459 167.719 86.5486 168.013 88.8012 168.445L92.897 169.232L93.9048 168.159L94.9131 167.086L90.2456 162.695C87.6787 160.28 85.4594 158.295 85.3141 158.284C85.1687 158.274 84.7183 158.631 84.3138 159.078ZM328.866 160.217C327.859 160.982 327.885 161.5 328.977 162.488C329.466 162.931 329.869 163.512 329.871 163.78C329.874 164.047 328.153 165.867 326.047 167.823L322.219 171.38L323.305 172.391L324.392 173.404L328.351 169.835L332.312 166.266L333.536 167.697L334.761 169.128L335.724 168.165L336.686 167.202L333.235 163.401C331.336 161.309 329.752 159.605 329.714 159.613C329.675 159.62 329.294 159.892 328.866 160.217ZM107.431 160.856C106.512 161.872 106.471 164.639 107.364 165.38C107.784 165.728 108.831 165.859 110.167 165.73L112.299 165.526L112.111 166.81L111.922 168.096L114.31 167.959C116.522 167.833 116.695 167.743 116.654 166.738C116.626 166.054 117.078 165.259 117.876 164.587C120.433 162.435 118.947 160.464 116.294 162.487L114.735 163.677L113.007 161.86C111.627 160.409 110.965 160.043 109.723 160.043C108.78 160.043 107.877 160.364 107.431 160.856ZM110.6 163.087C110.727 163.469 110.513 163.629 110.006 163.531C109.571 163.446 109.124 163.108 109.015 162.779C108.888 162.397 109.101 162.237 109.608 162.334C110.044 162.419 110.49 162.757 110.6 163.087ZM332.884 173.015L327.677 177.035L328.438 178.083C329.421 179.436 329.633 179.42 331.645 177.826C332.571 177.092 333.528 176.492 333.773 176.492C334.557 176.492 334.779 177.871 334.288 179.692C333.495 182.637 332.903 183.605 331.895 183.605C331.377 183.605 330.493 183.927 329.931 184.321C328.968 184.996 328.868 184.981 328.224 184.061C327.326 182.779 322.804 177.184 320.875 174.969C319.815 173.751 319.13 173.31 318.61 173.51C317.735 173.846 317.619 175.622 318.419 176.433C318.865 176.885 318.593 177.323 317.039 178.653C315.129 180.288 315.105 180.344 315.261 182.785L315.418 185.259L314.088 184.877C311.851 184.234 310.75 184.394 310.75 185.361C310.75 186.067 311.252 186.326 313.455 186.76L316.159 187.292L315.032 188.227C314.158 188.953 313.962 189.436 314.158 190.385C314.297 191.057 314.603 191.607 314.838 191.607C315.074 191.607 317.258 189.957 319.692 187.94C322.127 185.922 324.311 184.205 324.547 184.124C324.783 184.043 325.107 184.343 325.266 184.791C325.425 185.239 325.868 185.968 326.249 186.411C326.748 186.991 326.799 187.304 326.43 187.531C326.15 187.705 324.11 189.143 321.899 190.727C318.257 193.336 317.877 193.744 317.87 195.053C317.866 195.861 318.092 196.497 318.382 196.497C318.667 196.497 320.98 194.997 323.521 193.163C326.062 191.329 328.236 189.829 328.352 189.829C328.468 189.829 329.162 190.442 329.895 191.192L331.227 192.555L330.213 193.376C329.386 194.046 329.206 194.617 329.233 196.476C329.259 198.321 329.132 198.73 328.566 198.619C328.089 198.526 327.866 197.989 327.866 196.934C327.866 195.656 327.687 195.361 326.841 195.241C325.247 195.015 324.424 195.979 324.651 197.806C324.787 198.897 324.514 200.055 323.771 201.544C322.558 203.971 322.7 205.077 324.197 204.864C324.921 204.761 325.376 204.208 325.841 202.865L326.482 201.009L329.407 201.254C332.089 201.479 332.446 201.404 333.697 200.351L335.062 199.203L335.948 200.406C336.435 201.068 336.955 202.11 337.104 202.721C337.357 203.757 337.041 204.009 332.509 206.405C327.99 208.793 327.644 209.071 327.644 210.294C327.644 211.143 327.871 211.613 328.282 211.613C328.632 211.613 331.165 210.402 333.909 208.923C338.868 206.25 339.21 206.184 339.778 207.803C339.989 208.406 341.398 207.754 341.726 206.9C341.886 206.482 341.389 204.905 340.565 203.222C338.614 199.232 332.79 189.754 331.665 188.736C330.567 187.742 330.499 186.91 331.485 186.532C332.824 186.019 334.2 187.425 334.716 189.835C334.983 191.078 335.201 192.4 335.201 192.773C335.201 193.178 335.514 193.391 335.979 193.303C336.578 193.189 336.788 192.629 336.89 190.872C337.015 188.723 337.099 188.579 338.332 188.397C339.481 188.229 339.803 188.451 340.939 190.199L342.237 192.193L341.345 193.399C340.504 194.536 340.494 194.682 341.173 195.996C341.569 196.761 341.976 197.387 342.077 197.387C342.249 197.387 349.338 187.598 350.045 186.385C350.223 186.08 350.032 185.262 349.623 184.568L348.877 183.306L342.445 184.602C338.906 185.314 335.905 185.79 335.773 185.659C335.642 185.527 335.86 184.608 336.257 183.614C336.655 182.621 336.98 181.391 336.98 180.881C336.98 180.161 337.153 180.032 337.758 180.304C340.218 181.412 343.203 179.687 343.203 177.158C343.203 175.754 341.732 173.2 339.316 170.41L338.091 168.995L332.884 173.015ZM72.5062 172.876L71.6273 174.111L74.8846 179.563C76.6762 182.562 78.3571 185.23 78.6194 185.493C78.9595 185.833 79.3493 185.662 79.9744 184.899C80.8262 183.858 80.8284 183.788 80.0509 182.457C79.2547 181.094 79.2569 181.078 80.5101 179.397C81.2032 178.468 81.858 177.619 81.9656 177.512C82.0732 177.404 82.8298 177.499 83.6474 177.721C84.9771 178.083 85.2412 177.995 86.149 176.888L87.1639 175.649L84.0373 174.737C82.3177 174.235 79.4605 173.413 77.6876 172.911C75.9146 172.409 74.2217 171.918 73.9248 171.82C73.6278 171.722 72.9894 172.198 72.5062 172.876ZM339.923 177.295C339.055 178.164 338.201 177.775 336.779 175.865L335.868 174.64L336.927 173.78L337.986 172.92L339.324 174.739C340.569 176.433 340.611 176.608 339.923 177.295ZM78.891 176.556C79.1555 176.797 79.019 177.236 78.5305 177.718C77.7827 178.455 77.7116 178.449 77.0723 177.603C76.7024 177.114 76.2125 176.374 75.984 175.958C75.6092 175.277 75.7115 175.25 77.0167 175.685C77.8134 175.951 78.6572 176.343 78.891 176.556ZM84.5223 184.642C81.5579 188.664 79.1324 192.26 79.1324 192.633C79.1324 193.006 78.9648 193.378 78.7603 193.46C78.2562 193.661 72.8325 202.869 71.6695 205.5C70.635 207.84 70.2945 208.009 69.1586 206.754C68.0365 205.515 68.6198 204.26 71.1694 202.428C73.5331 200.731 73.9857 199.609 72.3083 199.609C71.1218 199.609 68.0236 201.706 66.954 203.233C65.9271 204.699 66.0235 207.84 67.1292 208.945C67.6182 209.434 68.3184 209.834 68.6851 209.834C69.5409 209.834 69.5329 209.904 68.4006 212.313L67.4488 214.337L64.6174 214.034C62.804 213.84 61.3396 213.916 60.5443 214.245C59.5142 214.672 58.9692 214.61 57.3465 213.884C55.101 212.879 55.0668 212.896 60.8866 212.055C62.7102 211.791 64.2333 211.534 64.272 211.483C64.909 210.634 65.3478 209.212 65.0588 208.931C64.8526 208.732 62.1834 207.473 59.127 206.133C54.1595 203.956 53.5108 203.773 53.0143 204.406C51.9815 205.722 52.4488 206.324 55.5705 207.703C57.2821 208.459 58.6825 209.208 58.6825 209.366C58.6825 209.525 56.8344 209.888 54.576 210.173C50.4042 210.699 49.1492 211.37 49.4462 212.913C49.5155 213.272 52.1678 214.705 55.3496 216.104L61.1276 218.643L61.7637 217.351C62.3337 216.193 62.6217 216.058 64.5227 216.058H66.645L66.0453 217.725C65.7155 218.643 64.524 221.763 63.3975 224.66C61.1729 230.383 60.9524 231.421 62.0531 230.999C62.4399 230.85 63.0005 230.729 63.2988 230.729C63.5976 230.729 64.2159 229.679 64.6734 228.395C66.3725 223.626 66.6032 223.233 67.5564 223.482C68.4469 223.715 68.4469 223.718 67.5666 224.837C66.4081 226.31 66.3699 229.417 67.4977 230.438C67.9685 230.864 69.0581 231.173 70.0873 231.173C72.3279 231.173 73.9377 229.642 73.9866 227.465L74.0199 225.98L75.5372 226.612C76.7718 227.127 77.2483 227.141 78.0935 226.689C79.9197 225.712 79.3578 224.8 76.241 223.683C74.0173 222.885 73.289 222.404 73.0872 221.6C72.5088 219.296 73.9648 218.984 75.9271 220.991C76.9229 222.01 77.5146 222.291 78.2028 222.073C79.8699 221.544 79.12 219.202 76.9185 218.063C74.0124 216.561 70.6857 217.744 70.6857 220.282C70.6857 221.566 70.7715 221.532 69.0368 220.927L67.6995 220.461L69.0728 216.815C69.8277 214.809 70.5697 213.069 70.7213 212.946C70.8728 212.824 71.2334 212.275 71.5224 211.727L72.0474 210.73L76.9825 213.205C82.0665 215.755 84.0226 216.078 84.0226 214.368C84.0226 213.809 82.4951 212.828 78.7016 210.953C73.8252 208.541 73.4029 208.235 73.6416 207.284C73.935 206.114 78.177 198.9 78.5007 199.02C78.6158 199.063 78.9443 199.176 79.2306 199.272C79.581 199.388 79.432 199.961 78.775 201.024C77.4026 203.245 77.4808 205.519 78.9701 206.69C79.9433 207.456 80.7711 207.612 83.8603 207.612C87.5355 207.612 87.5791 207.598 87.5791 206.495C87.5791 205.41 87.4964 205.38 84.677 205.441C82.4866 205.488 81.5664 205.315 80.9262 204.736C80.1242 204.01 80.1171 203.885 80.7986 202.455C81.1952 201.624 81.698 200.943 81.9154 200.943C82.1332 200.943 83.6825 201.758 85.3585 202.754C87.9143 204.272 88.5545 204.484 89.3262 204.071C89.8326 203.801 90.2465 203.295 90.2465 202.948C90.2465 202.601 88.1957 201.11 85.6897 199.634C83.1837 198.158 80.8724 196.78 80.5546 196.573C80.0824 196.264 80.0807 195.957 80.5452 194.901C80.8586 194.19 81.2379 193.508 81.3881 193.385C81.5379 193.263 82.6116 191.863 83.7728 190.274C84.9344 188.684 85.9529 187.314 86.0365 187.227C86.1196 187.141 86.6455 187.391 87.2048 187.783L88.2215 188.495H87.227C86.582 188.495 85.9227 189.003 85.3514 189.94C83.4696 193.027 84.7526 195.608 88.1686 195.608C90.2225 195.608 92.0248 194.296 92.0248 192.801C92.0248 191.814 92.6805 191.854 94.1542 192.934C95.5386 193.948 97.3595 193.714 97.3595 192.522C97.3595 192.105 96.2886 190.987 94.9798 190.038C93.1348 188.701 92.6498 188.109 92.8214 187.404C93.4011 185.02 94.5196 185.124 95.8445 187.685C96.3037 188.574 96.8305 188.94 97.6489 188.94C98.7128 188.94 98.7817 188.826 98.5185 187.511C98.1669 185.751 96.3055 183.737 94.7068 183.386C93.0281 183.017 91.197 183.83 90.6875 185.171C90.3234 186.128 90.1171 186.235 89.3863 185.843C87.9214 185.059 87.9801 184.707 90.0242 182C91.8856 179.535 92.5373 177.826 91.6166 177.826C91.3921 177.826 90.9169 177.714 90.5604 177.577C90.11 177.404 88.2664 179.561 84.5223 184.642ZM321.116 183.049C319.206 184.75 319.161 184.758 317.802 183.6L316.752 182.706L318.744 180.943L320.736 179.18L321.737 180.393L322.738 181.605L321.116 183.049ZM63.8252 185.03C63.442 185.578 63.1281 186.167 63.1281 186.34C63.1281 186.588 70.8413 192.085 73.2086 193.524C74.0155 194.015 78.9021 186.712 78.3517 185.838C77.508 184.498 76.6122 184.906 74.9686 187.383C73.9208 188.96 73.1255 189.749 72.7818 189.551C72.4848 189.38 70.7413 188.205 68.9074 186.939C64.3942 183.825 64.612 183.907 63.8252 185.03ZM345.145 188.31L343.93 189.903L343.146 188.866C342.27 187.707 342.465 187.329 344.093 187.038C346.291 186.643 346.357 186.722 345.145 188.31ZM90.2465 190.74C90.2465 191.874 88.8199 193.878 88.109 193.742C86.9385 193.519 86.9309 191.8 88.0975 190.984C89.2587 190.17 90.2465 190.058 90.2465 190.74ZM347.766 195.25C342.087 198.492 342.189 198.367 343.558 200.402C343.849 200.835 345.308 200.205 349.574 197.804C352.672 196.061 355.207 194.563 355.207 194.476C355.207 193.827 354.08 192.061 353.69 192.098C353.424 192.124 350.758 193.542 347.766 195.25ZM269.179 194.516C267.549 195.632 264.882 197.043 263.253 197.651C261.625 198.259 258.992 199.76 257.403 200.987C255.813 202.213 253.013 204.348 251.179 205.731C246.06 209.593 245.193 210.884 243.574 217.057C243.02 219.17 242.406 220.8 242.21 220.678C242.014 220.557 241.956 220.727 242.082 221.056C242.209 221.384 241.107 225.346 239.635 229.859C238.163 234.372 236.957 238.267 236.955 238.515C236.954 238.763 234.235 241.664 230.912 244.961C227.427 248.421 225.363 250.219 226.032 249.213C228.688 245.22 229.239 238.616 227.284 234.207C226.22 231.807 223.226 228.394 220.89 226.915C213.109 221.993 202.404 225.166 198.238 233.628C194.678 240.859 196.977 249.451 203.612 253.719C206.508 255.582 207.141 256.699 204.943 256.069C204.209 255.858 203.31 255.388 202.945 255.023C202.58 254.658 201.823 253.994 201.263 253.547C200.702 253.1 199.951 252.312 199.593 251.794C198.898 250.789 193.687 245.068 188.52 239.635C186.745 237.769 185.462 236.055 185.59 235.722C185.719 235.385 185.617 235.252 185.354 235.415C185.099 235.572 184.451 235.202 183.914 234.591C183.377 233.98 181.538 232.746 179.826 231.848C176.385 230.045 170.13 225.941 169.898 225.336C169.816 225.123 169.564 224.95 169.338 224.95C168.945 224.95 168.194 224.349 164.431 221.031C163.512 220.22 162.817 219.32 162.885 219.03C162.953 218.74 162.921 218.666 162.814 218.864C162.706 219.062 162.244 218.886 161.786 218.471C161.328 218.057 161.079 217.513 161.234 217.264C161.39 217.011 161.296 216.945 161.022 217.114C160.745 217.285 159.694 216.502 158.62 215.325C157.569 214.174 156.125 212.718 155.41 212.089C154.696 211.46 153.143 209.996 151.959 208.834C150.775 207.672 149.695 206.722 149.558 206.722C149.422 206.722 148.993 206.405 148.604 206.016C148.216 205.628 146.78 204.478 145.413 203.46C144.046 202.443 142.663 201.36 142.34 201.054C142.017 200.749 141.604 200.499 141.423 200.499C141.242 200.499 140.701 200.133 140.221 199.685C137.979 197.596 137.196 197.368 133.72 197.792C132.935 197.888 131.591 199.889 131.591 200.963C131.591 202.105 133.698 205.278 135.436 206.754C136.306 207.491 140.914 212.434 142.577 214.412C143.118 215.055 145.518 218.136 147.912 221.259C151.77 226.294 152.262 227.14 152.252 228.722C152.245 229.717 151.867 231.065 151.397 231.769C150.477 233.145 149.431 233.203 146.262 232.055C144.666 231.478 142.779 230.817 140.038 229.877C139.182 229.583 138.082 229.257 137.593 229.152C136.553 228.929 132.307 227.694 130.702 227.147C129.734 226.818 127.026 226.086 124.924 225.586C124.557 225.499 123.055 225.114 121.588 224.731C120.121 224.348 118.321 223.931 117.587 223.805C116.854 223.678 115.953 223.469 115.587 223.34C113.946 222.766 109.297 222.646 108.088 223.147C105.58 224.186 104.502 228.433 106.579 229.093C107.01 229.23 108.763 229.86 110.474 230.493C112.186 231.125 115.587 232.322 118.032 233.151C120.477 233.98 123.078 234.906 123.811 235.207C124.545 235.509 125.352 235.801 125.605 235.856C125.859 235.912 127.059 236.354 128.273 236.839C133.776 239.037 137.137 240.14 137.815 239.97C137.937 239.939 138.497 240.16 139.059 240.461C139.965 240.946 140.565 240.748 144.394 238.691C146.766 237.417 148.854 236.155 149.033 235.886C149.224 235.601 149.366 235.582 149.374 235.841C149.381 236.092 149.53 236.068 149.714 235.787C150.281 234.92 156.62 231.957 158.481 231.689C161.892 231.198 172.027 231.421 172.606 231.999C173.589 232.983 172.332 233.176 165.309 233.115C160.232 233.071 158.175 233.215 157.269 233.679C156.599 234.023 155.949 234.299 155.824 234.294C154.96 234.26 154.703 234.354 154.15 234.907C153.808 235.249 152.244 236.175 150.673 236.965C149.102 237.755 147.718 238.55 147.595 238.731C147.473 238.912 146.143 239.679 144.641 240.435C141.67 241.929 139.049 244.66 139.246 246.054C139.315 246.537 140.114 247.347 141.022 247.856C142.374 248.612 143.3 248.757 146.134 248.654C151.24 248.469 152.671 248.154 158.192 245.997C159.741 245.391 161.642 244.957 162.415 245.032C164.359 245.22 165.868 246.699 165.918 248.465C165.941 249.253 166.103 249.665 166.28 249.38C166.757 248.607 168.203 249.235 169.866 250.936C171.772 252.885 171.956 254.534 170.507 256.669C169.451 258.225 169.425 258.393 170.082 259.396C171.285 261.232 171.319 262.963 170.176 264.181C169.615 264.78 168.693 265.514 168.127 265.813C167.153 266.327 166.644 266.478 164.075 267.007C163.481 267.129 162.821 267.337 162.609 267.468C162.397 267.599 160.382 267.796 158.132 267.905C155.882 268.014 153.202 268.172 152.175 268.257C150.265 268.414 148.235 267.502 148.726 266.707C148.867 266.479 150.821 266.332 153.068 266.379C161.453 266.558 168.807 264.644 169.296 262.156C169.421 261.522 167.536 259.436 166.787 259.381C166.479 259.359 162.423 258.668 161.545 258.489C161.271 258.433 159.17 258.243 156.877 258.068C154.584 257.892 152.308 257.664 151.819 257.561C150.481 257.28 146.385 257.304 145.458 257.598C144.681 257.845 143.079 261.12 142.455 263.738C141.924 265.967 142.764 267.495 146.087 270.351C146.55 270.748 147.452 271.652 148.092 272.36C149.37 273.774 158.204 278.336 161.377 279.222C163.513 279.818 163.593 279.834 166.823 280.282C167.987 280.443 168.937 280.812 168.941 281.103C168.946 281.47 169.061 281.454 169.317 281.05C169.536 280.705 170.12 280.568 170.755 280.712C172.714 281.158 174.47 281.428 176.714 281.628C179.685 281.893 182.67 282.266 183.919 282.529C184.48 282.646 185.423 282.844 186.015 282.967C187.068 283.187 191.616 285.232 192.941 286.081C193.61 286.51 193.84 286.586 194.785 286.688C195.512 286.768 194.952 293.247 193.843 297.584C191.357 307.306 185.798 316.78 176.955 326.369C171.037 332.787 162.435 339.853 149.46 348.956C146.94 350.723 144.965 352.403 145.07 352.688C145.34 353.42 145.547 353.342 154.001 349.34C165.665 343.818 181.415 337.055 197.963 330.464L212.988 324.479L218.236 327.617C231.691 335.662 247.964 341.346 264.873 343.907C268.537 344.462 270.03 344.535 270.388 344.177C270.746 343.82 270.488 343.471 269.437 342.889C256.115 335.524 247.446 328.273 241.951 319.9C234.999 309.307 233.041 296.297 236.416 283.115C237.241 279.896 237.044 280.158 245.034 271.629C248.989 267.406 250.27 266.327 252.39 265.429C257.934 263.081 265.86 259.115 267.111 258.062C267.893 257.404 268.719 257.064 269.14 257.225C269.54 257.379 269.85 257.272 269.85 256.979C269.85 256.695 269.601 256.586 269.295 256.739C268.989 256.891 270.119 255.726 271.806 254.149L274.874 251.281L273.902 249.915C273.367 249.165 272.667 247.791 272.348 246.863C271.767 245.18 271.762 245.177 268.853 244.955C265.667 244.712 263.85 243.627 264.224 242.193C264.339 241.755 264.251 241.509 264.03 241.646C263.808 241.783 263.626 241.283 263.626 240.536C263.626 239.378 263.459 239.176 262.505 239.176C261.417 239.176 261.405 239.143 262.097 238.087C262.489 237.488 263.513 236.766 264.371 236.482C265.23 236.199 269.019 234.49 272.792 232.684C280.235 229.12 280.52 228.848 280.52 225.296C280.52 224.02 280.173 223.023 279.359 221.955C277.897 220.038 277.338 220.153 272.303 223.401C270.225 224.742 268.414 225.839 268.277 225.839C267.429 225.839 262.56 229.453 260.433 231.662C259.044 233.105 257.744 234.285 257.544 234.285C256.778 234.283 257.259 224.785 258.227 220.82C259.327 216.314 259.303 216.503 258.78 216.503C258.56 216.503 257.966 217.203 257.462 218.059C256.422 219.82 255.624 220.079 255.624 218.655C255.624 216.722 262.919 207.989 266.684 205.413C269.837 203.257 271.395 201.611 272.272 199.512C273.023 197.714 273.213 193.148 272.553 192.74C272.327 192.601 270.809 193.4 269.179 194.516ZM333.423 196.409C333.423 197.345 332.603 198.276 331.778 198.276C331.052 198.276 331.022 196.853 331.734 196.142C332.523 195.352 333.423 195.494 333.423 196.409ZM350.539 199.677C347.605 201.163 345.138 202.438 345.057 202.512C344.933 202.624 345.733 204.412 346.108 204.861C346.172 204.938 347.666 204.276 349.427 203.388C351.189 202.501 352.698 201.843 352.781 201.926C352.864 202.009 351.943 203.626 350.735 205.52C348.38 209.212 348.281 209.544 349.109 211.016C349.645 211.966 349.704 211.949 355.54 209.158C358.78 207.609 361.431 206.214 361.431 206.058C361.431 205.802 360.589 204.034 360.304 203.693C360.24 203.616 358.747 204.279 356.985 205.166C355.223 206.054 353.715 206.713 353.633 206.63C353.551 206.549 354.5 204.905 355.741 202.978C357.667 199.989 357.939 199.307 357.594 198.324C357.371 197.691 356.893 197.129 356.531 197.075C356.17 197.021 353.473 198.192 350.539 199.677ZM150.929 206.722C150.778 206.967 150.867 207.167 151.126 207.167C151.384 207.167 151.596 206.967 151.596 206.722C151.596 206.478 151.508 206.278 151.4 206.278C151.292 206.278 151.081 206.478 150.929 206.722ZM274.074 208.402C273.34 208.823 272.64 209.277 272.518 209.411C272.08 209.89 265.582 215.422 263.664 216.947C260.464 219.494 260.186 219.864 259.672 222.257C259.038 225.215 259.067 225.872 259.877 226.945C260.538 227.819 260.576 227.813 263.086 226.505C264.484 225.776 267.427 224.097 269.628 222.774C271.829 221.451 274.858 219.806 276.361 219.119C280.692 217.139 282.107 213.789 280.032 210.432C279.127 208.966 277.157 207.6 275.985 207.624C275.667 207.63 274.807 207.98 274.074 208.402ZM356.26 211.448L350.422 213.911L350.911 215.207C351.18 215.92 351.559 216.503 351.751 216.503C352.256 216.503 362.918 212.02 363.341 211.63C363.704 211.296 362.833 208.929 362.359 208.965C362.215 208.976 359.47 210.093 356.26 211.448ZM259.848 212.946C259.697 213.191 259.785 213.391 260.044 213.391C260.302 213.391 260.515 213.191 260.515 212.946C260.515 212.702 260.427 212.502 260.318 212.502C260.21 212.502 259.999 212.702 259.848 212.946ZM342.648 213.279C342.891 214.01 341.498 214.531 340.901 213.933C340.645 213.678 340.577 213.24 340.749 212.961C341.142 212.325 342.401 212.536 342.648 213.279ZM358.184 216.856C352.675 218.856 352.501 218.959 352.774 220.046C352.929 220.663 353.143 221.255 353.248 221.361C353.406 221.519 355.803 220.773 360.084 219.235C360.444 219.105 359.473 220.548 357.927 222.44C355.356 225.586 355.14 226.012 355.404 227.416C355.562 228.26 355.758 228.951 355.84 228.951C355.997 228.951 366.449 225.243 367.73 224.733C368.344 224.489 368.394 224.209 368.02 223.137C367.771 222.422 367.526 221.838 367.474 221.838C367.422 221.838 365.71 222.447 363.668 223.193L359.955 224.547L361.496 222.637C366.098 216.93 365.959 217.171 365.381 215.903C365.086 215.254 364.627 214.739 364.36 214.757C364.094 214.774 361.315 215.719 358.184 216.856ZM344.966 219.474C344.975 220.074 344.63 220.555 344.06 220.736C343.09 221.044 342.442 220.469 341.196 218.197C340.541 217.001 340.541 217.001 342.205 216.863C344.013 216.714 344.935 217.586 344.966 219.474ZM259.719 218.104C259.404 218.446 259.342 218.726 259.582 218.726C260.043 218.726 260.711 217.88 260.448 217.629C260.362 217.548 260.034 217.761 259.719 218.104ZM47.5701 219.1C46.1146 220.555 45.1642 223.556 45.5714 225.411C46.192 228.236 49.5965 230.7 52.9031 230.717C54.8641 230.728 57.0963 229.386 58.2401 227.51C59.2742 225.814 59.496 220.902 58.5713 220.177C57.996 219.725 53.7056 218.199 53.558 218.394C53.5122 218.454 53.0641 219.739 52.5621 221.25C51.7735 223.623 51.7397 224.031 52.3127 224.251C53.5926 224.741 54.2226 224.495 54.4987 223.394C54.6734 222.698 55.0926 222.282 55.6185 222.282C56.2969 222.282 56.4596 222.611 56.4596 223.983C56.4596 226.018 55.0228 227.617 53.1934 227.617C51.3187 227.617 48.9558 226.443 48.4068 225.238C47.7528 223.803 48.4219 221.78 49.7752 221.1C50.9782 220.495 51.553 219.696 51.5628 218.615C51.5739 217.305 49.059 217.611 47.5701 219.1ZM71.9883 227.252C72.0403 228.501 70.7635 229.468 69.7659 228.934C68.5513 228.284 68.7016 226.954 70.1144 225.843C71.2552 224.946 71.3388 224.938 71.6393 225.7C71.814 226.143 71.9709 226.841 71.9883 227.252ZM240.1 225.653C240.121 226.171 240.226 226.277 240.368 225.922C240.497 225.601 240.481 225.218 240.333 225.07C240.186 224.922 240.081 225.185 240.1 225.653ZM362.726 228.908C359.591 229.921 357.867 232.104 357.884 235.041C357.895 237.025 359.133 239.937 360.471 241.127C361.342 241.901 361.629 241.922 364.122 241.394C367.13 240.755 366.972 241.18 365.827 236.815C365.436 235.323 365.239 235.137 364.185 235.259C362.98 235.398 362.945 235.514 363.362 238.038C363.4 238.268 363.093 238.53 362.679 238.621C361.722 238.831 360.436 236.453 360.626 234.826C360.799 233.348 363.252 231.618 365.176 231.618C368.062 231.618 369.665 234.114 368.282 236.455C367.632 237.555 367.622 237.834 368.193 238.924L368.837 240.152L370.051 239.108C372.455 237.04 371.729 231.518 368.801 229.6C367.458 228.72 364.39 228.37 362.726 228.908ZM349.109 230.72C349.302 231.458 348.959 231.72 346.986 232.342C343.032 233.588 341.69 232.09 345.463 230.642C348.061 229.645 348.832 229.661 349.109 230.72ZM43.056 231.618C43.0191 232.107 42.9693 232.736 42.9449 233.015C42.9138 233.37 53.3006 236.646 55.4038 236.945C55.4345 236.949 55.5843 236.328 55.7372 235.564C55.9613 234.443 56.1333 234.275 56.6321 234.689C57.0985 235.076 57.5328 235.072 58.4104 234.672C59.7796 234.048 59.8912 233 58.7398 231.578C57.9258 230.573 57.8827 230.568 56.6975 231.345C55.8653 231.89 55.5563 232.404 55.7092 232.99C55.8315 233.458 55.8003 233.839 55.6399 233.837C55.4794 233.835 52.8475 233.136 49.7912 232.285C43.2792 230.471 43.1432 230.458 43.056 231.618ZM60.1117 235.286C58.8785 239.814 55.8733 254.742 56.1409 255.009C56.2485 255.117 56.8393 255.014 57.4541 254.78C58.3446 254.441 58.634 253.941 58.8767 252.322C59.187 250.253 59.3649 250.135 61.3334 250.684C62.1758 250.918 62.4319 251.292 62.4448 252.306C62.4701 254.341 63.9079 254.225 68.3659 251.826C70.4976 250.679 72.3101 249.679 72.3933 249.604C72.6849 249.342 71.9558 247.622 71.5535 247.622C71.3303 247.622 70.0402 248.331 68.6869 249.197C66.7042 250.464 66.1765 250.641 65.9711 250.106C65.831 249.741 66.0342 248.988 66.4228 248.433C66.8113 247.878 67.1292 246.871 67.1292 246.195C67.1292 244.974 67.1492 244.966 69.8468 245.071C72.0407 245.157 72.6613 245.025 73.0699 244.387C73.7927 243.256 73.2984 243.053 66.8567 241.834L61.2649 240.775L61.5499 238.992C61.7068 238.011 61.9198 237.124 62.0234 237.02C62.1265 236.917 64.7116 237.532 67.7676 238.389C73.129 239.89 73.3495 239.917 74.059 239.132C74.4636 238.685 74.6943 238.062 74.5721 237.747C74.4498 237.432 71.7637 236.495 68.6033 235.663L62.8574 234.151L63.0432 232.885C63.2032 231.794 63.0814 231.618 62.1696 231.618C61.22 231.618 61.0071 231.997 60.1117 235.286ZM273.136 234.731C267.091 237.721 265.579 238.965 265.322 241.157L265.146 242.666L269.832 242.475C272.41 242.37 275.068 242.202 275.741 242.103C276.413 242.003 276.963 242.115 276.963 242.353C276.963 242.59 277.14 242.676 277.355 242.542C277.572 242.409 278.253 242.697 278.871 243.183C280.295 244.303 280.366 244.294 280.703 242.954C280.856 242.343 281.278 241.843 281.64 241.843C282.002 241.843 282.298 241.631 282.298 241.372C282.298 241.113 282.09 241.03 281.836 241.187C281.528 241.378 281.491 241.053 281.725 240.213C282.762 236.493 281.557 232.06 279.509 232.065C278.965 232.067 276.097 233.266 273.136 234.731ZM42.1113 237.732C40.2895 239.744 39.8921 243.738 41.3569 245.31C43.5139 247.626 46.0586 246.817 48.2245 243.128C49.6751 240.658 50.4771 240.211 51.2529 241.441C51.998 242.621 51.2382 244.517 49.8218 245.011C48.8798 245.339 48.4988 245.805 48.3512 246.81C48.1538 248.155 48.1658 248.163 49.8956 247.931C52.05 247.642 53.209 246.637 53.7874 244.555C54.8632 240.681 53.6904 238.043 50.6803 237.564C48.6726 237.245 47.0522 238.469 45.5456 241.442C44.219 244.06 43.1227 244.337 43.1227 242.056C43.1227 240.832 43.357 240.383 44.1963 240.001C45.1197 239.58 45.7621 238.482 45.7839 237.286C45.7963 236.607 42.8 236.971 42.1113 237.732ZM64.5307 244.331C65.1077 244.687 64.9766 246.467 64.3062 247.384C63.8323 248.032 63.353 248.147 62.0282 247.933C61.1053 247.783 60.2553 247.565 60.1393 247.449C60.0228 247.333 60.069 246.402 60.2415 245.38L60.5554 243.523L62.355 243.811C63.345 243.969 64.324 244.203 64.5307 244.331ZM273.407 244.525C273.407 245.165 275.791 249.819 276.126 249.833C276.458 249.848 278.742 246.456 278.742 245.949C278.742 245.752 278.161 245.248 277.451 244.829C276.035 243.992 273.407 243.795 273.407 244.525ZM159.821 247.913C160.673 248.591 160.653 248.609 159.306 248.363C158.534 248.221 157.233 248.31 156.416 248.56C154.5 249.146 152.523 249.529 151.263 249.556C150.713 249.569 150.263 249.696 150.263 249.839C150.263 250.4 144.809 250.608 142.19 250.148C140.241 249.806 138.259 248.952 138.259 248.454C138.259 248.256 137.959 248.21 137.593 248.351C136.473 248.78 137.034 251.696 138.408 252.59C138.711 252.786 138.65 253.157 138.231 253.669C137.65 254.377 137.671 254.405 138.457 253.97C139.149 253.587 139.772 253.746 141.584 254.768C143.273 255.722 144.18 255.975 145.165 255.766C146.649 255.453 151.352 255.505 154.041 255.865C158.002 256.394 159.118 256.495 163.481 256.718C167.927 256.945 168.046 256.926 168.739 255.869C169.799 254.251 169.381 252.924 167.383 251.571C166.407 250.91 165.457 250.463 165.272 250.578C165.085 250.693 164.933 250.541 164.933 250.242C164.933 249.942 164.808 249.822 164.655 249.976C164.214 250.416 161.29 249.03 160.609 248.058C160.27 247.574 159.754 247.184 159.462 247.192C159.17 247.2 159.332 247.524 159.821 247.913ZM274.518 249.401C274.669 249.645 274.881 249.845 274.989 249.845C275.097 249.845 275.185 249.645 275.185 249.401C275.185 249.156 274.973 248.956 274.714 248.956C274.456 248.956 274.367 249.156 274.518 249.401ZM221.382 254.509C219.624 256.267 215.652 257.847 212.991 257.847C210.256 257.847 206.722 256.9 206.722 256.167C206.722 255.725 206.96 255.635 207.5 255.875C207.928 256.065 209.879 256.304 211.835 256.406C215.655 256.604 219.344 255.622 221.486 253.836C223.119 252.474 223.064 252.826 221.382 254.509ZM367.152 258.814C363.57 259.769 361.774 263.851 363.415 267.308C364.311 269.197 367.068 270.79 367.703 269.786C368.455 268.6 368.098 267.408 366.763 266.648C365.194 265.755 364.939 263.766 366.242 262.586C367.493 261.454 370.949 261.13 372.304 262.017C373.929 263.082 374.218 264.763 373 266.06C372.229 266.881 372.079 267.41 372.314 268.48C372.668 270.092 372.932 270.151 374.453 268.954C377.888 266.252 376.485 259.947 372.183 258.752C370.262 258.218 369.344 258.23 367.152 258.814ZM363.209 277.408V282.298H364.543H365.876V278.742V275.185H367.432H368.988V278.52V281.854H370.322H371.656V278.52C371.656 275.26 371.68 275.185 372.767 275.185C373.86 275.185 373.878 275.244 373.878 278.742V282.298H375.212H376.546V277.408V272.518H369.877H363.209V277.408ZM62.6724 278.606C63.67 279.875 63.7385 281.88 62.7947 282.19C62.4893 282.29 62.239 282.087 62.239 281.737C62.239 280.523 60.5945 279.518 58.9247 279.713C57.4515 279.885 57.3488 279.816 57.3488 278.652C57.3488 277.458 57.4368 277.408 59.5391 277.408C61.3885 277.408 61.8766 277.595 62.6724 278.606ZM352.004 283.211C352.085 283.897 351.8 284.65 351.286 285.115C350.471 285.853 350.414 285.83 349.881 284.544C349.166 282.818 349.571 281.749 350.87 281.934C351.566 282.032 351.913 282.423 352.004 283.211ZM376.274 290.138C376.099 292.061 375.872 293.385 375.769 293.079C375.657 292.746 374.751 292.513 373.508 292.497C372.367 292.484 370.664 292.333 369.723 292.164L368.013 291.856L372.057 289.875C375.104 288.383 376.101 287.68 376.101 287.023C376.101 286.543 376.211 286.262 376.347 286.397C376.482 286.531 376.449 288.215 376.274 290.138ZM45.6723 295.457C45.3882 295.741 42.6781 295.12 42.6781 294.771C42.6781 294.602 43.3285 294.153 44.123 293.774C45.5411 293.098 45.5705 293.106 45.7123 294.178C45.7919 294.78 45.7741 295.355 45.6723 295.457ZM50.6656 310.204C51.2818 310.704 51.6668 311.551 51.7152 312.518L51.7917 314.043L48.4575 314.837C46.6237 315.273 44.8734 315.539 44.5675 315.427C43.9345 315.196 43.8229 312.181 44.4128 311.25C44.6258 310.914 45.7732 310.377 46.9624 310.058C49.7649 309.305 49.5436 309.296 50.6656 310.204ZM369.247 312.973C369.996 312.973 370.028 313.522 369.409 315.752C369.033 317.107 368.74 317.419 367.842 317.419C366.418 317.419 366.142 316.624 366.763 314.316C367.134 312.938 367.44 312.522 367.94 312.714C368.312 312.856 368.9 312.973 369.247 312.973ZM49.3466 320.637C46.2902 321.628 43.7206 322.495 43.6362 322.564C43.5517 322.634 43.6135 323.285 43.7731 324.013L44.0639 325.336L47.483 324.274C49.3639 323.689 51.0773 323.208 51.2907 323.205C51.5036 323.201 50.3544 324.678 48.7362 326.486C46.1 329.431 45.8225 329.917 46.0697 331.154C46.2218 331.913 46.4707 332.542 46.6237 332.55C46.7766 332.559 49.6618 331.711 53.0356 330.665C59.0252 328.808 59.163 328.737 58.8901 327.649C58.7362 327.036 58.5277 326.452 58.4273 326.352C58.3268 326.251 56.7993 326.59 55.0321 327.105C53.2654 327.621 51.737 327.96 51.6357 327.858C51.5343 327.757 52.696 326.27 54.2173 324.554C56.7304 321.719 56.9455 321.322 56.5734 320.204C56.348 319.528 55.8804 318.944 55.5336 318.905C55.1873 318.867 52.403 319.647 49.3466 320.637ZM355.715 324.816C354.25 329.602 354.283 330.556 355.9 330.242C356.423 330.141 357.016 329.117 357.663 327.199C358.567 324.525 358.731 324.316 359.867 324.401C360.542 324.451 361.209 324.607 361.349 324.747C361.489 324.887 361.179 326.307 360.661 327.902L359.718 330.802L360.858 331.236C361.485 331.475 362.044 331.614 362.099 331.546C362.154 331.478 362.639 330.083 363.176 328.447C364.072 325.719 364.235 325.501 365.126 325.83C366.308 326.267 366.309 326.288 365.24 329.79C364.503 332.201 364.472 332.663 365.017 333.013C366.395 333.898 366.971 333.164 368.361 328.752L369.759 324.31L364.15 322.415C361.065 321.374 358.231 320.423 357.852 320.302C357.314 320.131 356.848 321.115 355.715 324.816ZM72.7974 327.95C71.8633 328.194 71.822 329.244 72.6862 330.756C73.6149 332.38 73.5051 332.808 72.0011 333.431C69.4062 334.506 68.4629 335.57 68.4629 337.425C68.4629 339.478 69.3813 340.536 71.1618 340.536C73.0565 340.536 74.2422 339.141 74.2422 336.911C74.2422 335.149 74.28 335.098 75.0553 335.799C75.5025 336.204 76.1076 336.535 76.3997 336.535C77.1083 336.535 77.7987 334.63 77.7987 332.675C77.7987 331.293 77.6831 331.127 76.8705 331.339C76.1089 331.539 75.7866 331.229 75.0718 329.613C74.5925 328.53 74.0599 327.667 73.8879 327.695C73.7158 327.724 73.2255 327.839 72.7974 327.95ZM53.7922 332.781C50.9804 333.863 48.437 334.841 48.1401 334.955C47.7351 335.11 47.7182 335.499 48.0725 336.515C48.3321 337.26 48.6749 337.867 48.8345 337.863C49.2768 337.855 60.5483 333.484 60.8155 333.216C61.2125 332.819 60.0695 330.754 59.4698 330.784C59.159 330.8 56.6041 331.698 53.7922 332.781ZM72.0194 336.953C72.0194 337.478 71.1525 338.039 70.8337 337.721C70.5154 337.402 71.0765 336.535 71.601 336.535C71.8313 336.535 72.0194 336.723 72.0194 336.953ZM232.048 344.477C227.441 346.427 219.456 352.271 214.858 357.06L213.435 358.541L211.19 380.585C209.956 392.708 208.945 402.761 208.945 402.924C208.945 403.086 210.095 402.335 211.501 401.254C216.047 397.759 226.639 391.671 243.621 382.793C248.878 380.045 253.354 377.63 253.569 377.427C253.914 377.098 236.696 345.134 235.446 343.781C235.065 343.371 234.285 343.53 232.048 344.477ZM177.973 350.659C175.125 354.505 169.426 362.179 165.308 367.713C161.19 373.247 157.82 377.89 157.82 378.031C157.82 378.172 158.671 378.768 159.71 379.357C160.749 379.945 164.9 382.292 168.934 384.572C183.691 392.911 192.991 398.826 196.386 402.03C197.181 402.78 197.832 403.205 197.834 402.973C197.835 402.742 198.736 393.18 199.834 381.724C200.933 370.268 201.832 360.355 201.832 359.695C201.832 357.143 192.87 348.316 187.532 345.611C182.914 343.271 183.782 342.812 177.973 350.659ZM254.949 356.554C254.793 356.807 257.869 363.054 261.786 370.438C265.701 377.822 268.864 383.904 268.815 383.954C268.765 384.003 266.627 384.471 264.063 384.992C245.885 388.69 227.333 398.853 214.448 412.172C207.084 419.784 205.268 423.353 210.569 419.793C225.905 409.495 243.373 402.626 261.404 399.805C268.515 398.692 285.506 398.691 291.821 399.802C294.247 400.229 296.39 400.42 296.583 400.226C296.948 399.862 275.092 357.756 274.441 357.569C274.095 357.469 256.591 356.096 255.665 356.096C255.427 356.096 255.105 356.302 254.949 356.554ZM150.545 357.906C145.932 358.352 142.104 358.778 142.039 358.851C140.095 361.031 111.647 401.68 111.895 401.924C112.091 402.119 114.453 401.884 117.143 401.403C123.551 400.256 136.7 399.815 143.816 400.508C161.804 402.26 179.515 408.962 193.485 419.301C197.043 421.935 197.923 421.791 196.235 418.852C187.137 403.005 168.259 390.309 147.6 386.143L142.751 385.165L152.509 371.654C157.875 364.223 162.266 357.882 162.266 357.564C162.266 356.839 161.269 356.868 150.545 357.906ZM301.687 385.881C300.492 386.095 299.35 386.434 299.149 386.636C298.948 386.837 301.647 393.101 305.147 400.556C308.647 408.012 311.467 414.167 311.414 414.235C311.362 414.302 308.829 413.272 305.786 411.945C279.112 400.311 252.701 399.92 229.852 410.819C222.563 414.296 212.353 421.461 213.06 422.604C213.226 422.874 215.957 422.658 220.36 422.026C250.37 417.72 275.409 418.788 296.951 425.291C299.773 426.142 307.327 428.936 313.737 431.499C331.255 438.504 337.03 439.553 360.396 439.979C368.262 440.123 375.047 440.107 375.474 439.942C376.646 439.493 375.622 438.712 372.971 438.034C362.448 435.34 347.105 421.774 326.237 396.709C317.115 385.752 317.1 385.742 309.194 385.592C306.26 385.537 302.882 385.667 301.687 385.881ZM98.1913 387.636C93.6559 388.472 92.3831 389.427 81.4175 400.223C57.1861 424.081 40.6901 436.895 29.2021 440.785C27.0357 441.519 25.2824 442.319 25.3059 442.564C25.365 443.186 46.8962 443.052 53.3477 442.389C67.7485 440.912 73.5616 439.512 86.634 434.374C106.781 426.457 116.891 423.635 132.036 421.702C147.688 419.705 170.558 420.165 187.564 422.82C191.833 423.486 192.019 422.867 188.533 419.577C181.572 413.007 171.046 407.844 159.669 405.418C154.11 404.232 141.3 403.771 134.703 404.518C122.97 405.848 108.698 409.874 97.4707 415.021C95.6977 415.834 94.2476 416.42 94.2476 416.324C94.2476 416.228 98.178 410.189 102.981 402.905C107.785 395.62 111.803 389.338 111.909 388.944C112.034 388.48 111.736 388.125 111.066 387.938C109.302 387.447 100.361 387.237 98.1913 387.636ZM156.264 440.606C118.993 441.942 99.1427 445.925 90.6746 453.764C86.1321 457.97 84.8668 461.639 85.0313 470.127C85.1118 474.27 84.9855 475.323 84.2018 477.022C80.6955 484.628 72.2016 486.423 47.186 484.843C30.0321 483.759 13.9433 483.931 14.3545 485.194C14.8569 486.737 32.9693 500.794 39.0612 504.37L41.3533 505.715L35.903 509.33C29.0554 513.873 24.4421 517.592 18.7206 523.183C14.4959 527.311 13.2347 529.062 14.9645 528.399C16.8281 527.683 31.4987 527.64 42.4821 528.317C72.5355 530.17 81.092 528.664 84.4921 520.921C85.3874 518.882 85.5283 517.789 85.5941 512.36C85.6915 504.332 86.469 502.042 90.4297 498.124C96.1645 492.451 106.185 489.042 123.617 486.835C142.529 484.44 156.952 483.928 205.389 483.928C253.826 483.928 268.248 484.44 287.16 486.835C299.546 488.403 308.794 490.797 314.932 494.023C318.853 496.084 322.803 500.158 324.091 503.469C324.986 505.77 325.137 506.991 325.19 512.36C325.244 517.816 325.379 518.872 326.282 520.921C329.706 528.693 337.983 530.146 368.438 528.318C379.647 527.645 393.965 527.69 395.824 528.403C397.551 529.066 396.261 527.293 391.994 523.138C386.165 517.462 381.681 513.846 374.874 509.33L369.424 505.715L371.716 504.37C377.808 500.794 395.92 486.737 396.423 485.194C396.834 483.931 380.745 483.759 363.591 484.843C338.576 486.423 330.082 484.628 326.575 477.022C325.792 475.323 325.665 474.27 325.746 470.127C325.91 461.639 324.645 457.97 320.103 453.764C311.429 445.734 292.266 441.994 252.512 440.572C238.057 440.056 170.968 440.079 156.264 440.606ZM185.16 448.01C187.021 454.232 187.238 454.86 187.457 454.642C187.673 454.426 188.485 451.047 189.373 446.676C189.833 444.408 190.014 444.12 190.972 444.12C191.566 444.12 192.052 444.275 192.052 444.464C192.052 444.654 191.452 447.304 190.718 450.355C189.984 453.405 189.28 456.351 189.154 456.901C188.98 457.653 188.605 457.901 187.646 457.901C186.622 457.901 186.309 457.659 186.069 456.679C185.404 453.964 183.061 446.738 182.899 446.9C182.803 446.996 181.999 449.46 181.112 452.376C180.224 455.293 179.472 457.713 179.439 457.754C179.406 457.795 178.856 457.96 178.216 458.121L177.052 458.413L175.651 452.489C174.88 449.231 174.13 446.114 173.985 445.564C173.762 444.721 173.897 444.564 174.847 444.564C175.912 444.564 176.027 444.806 176.924 448.899C178.312 455.232 178.435 455.433 179.285 452.78C179.675 451.562 180.416 449.115 180.93 447.343C181.755 444.498 181.989 444.12 182.93 444.12C183.885 444.12 184.117 444.525 185.16 448.01ZM208.453 445.259C210.78 447.218 211.384 451.365 209.814 454.609C208.658 456.996 206.584 457.901 202.268 457.901H199.165V451.01V444.12H203.132C206.741 444.12 207.221 444.222 208.453 445.259ZM223.171 445.009C223.171 445.828 222.875 445.898 219.392 445.898H215.614V447.676V449.454H219.17C222.43 449.454 222.727 449.529 222.727 450.344C222.727 451.158 222.43 451.233 219.17 451.233H215.614V453.678V456.123H219.615C223.319 456.123 223.616 456.189 223.616 457.012C223.616 457.85 223.319 457.901 218.503 457.901H213.391V451.01V444.12H218.281C222.875 444.12 223.171 444.173 223.171 445.009ZM171.602 445.401C171.602 446.129 171.114 446.278 167.823 446.552L164.044 446.867V448.615V450.364L167.601 450.068C170.981 449.786 171.157 449.816 171.157 450.678C171.157 451.489 170.781 451.618 167.601 451.899L164.044 452.214V454.608V457.002L168.045 456.718C171.846 456.448 172.046 456.479 172.046 457.325C172.046 458.113 171.656 458.248 168.645 458.503C166.774 458.661 164.474 458.79 163.532 458.79H161.821V451.922V445.053L164.378 444.893C171.065 444.473 171.602 444.511 171.602 445.401ZM228.95 450.566V456.567H232.729H236.508V457.731C236.508 458.72 236.359 458.854 235.508 458.626C234.958 458.479 232.757 458.355 230.618 458.352L226.728 458.346V451.455V444.564H227.839H228.95V450.566ZM158.709 452.148V459.289L157.073 459.15C155.48 459.016 155.366 458.881 152.814 454.122C151.372 451.433 150.008 449.042 149.783 448.81C149.533 448.551 149.374 450.582 149.374 454.033C149.374 459.383 149.327 459.679 148.484 459.679C147.633 459.679 147.595 459.383 147.595 452.789V445.898L149.04 445.905C150.432 445.912 150.587 446.107 153.276 451.221C154.811 454.141 156.261 456.651 156.499 456.797C156.77 456.965 156.931 454.916 156.931 451.291C156.931 446.167 157.019 445.496 157.709 445.315C158.137 445.203 158.537 445.089 158.598 445.06C158.659 445.032 158.709 448.222 158.709 452.148ZM240.954 447.837V450.664L243.288 450.945C247.822 451.489 247.622 451.609 247.622 448.343C247.622 445.557 247.662 445.453 248.734 445.453H249.845V452.344V459.235H248.734C247.654 459.235 247.622 459.146 247.622 456.123V453.011H246.351C245.651 453.011 244.151 452.884 243.016 452.728L240.954 452.445V455.618C240.954 458.705 240.924 458.79 239.842 458.79H238.731V451.899V445.009H239.842C240.911 445.009 240.954 445.117 240.954 447.837ZM201.388 451.01V456.123L202.832 456.12C205.696 456.115 207.495 455.318 208.016 453.824C208.978 451.062 208.3 447.187 206.705 446.333C206.258 446.094 204.878 445.898 203.64 445.898H201.388V451.01ZM255.18 452.789V459.679H254.068H252.957V452.789V445.898H254.068H255.18V452.789ZM174.615 459.038C175.948 459.971 175.872 460.672 174.505 460.049C172.256 459.025 171.27 461.851 172.69 465.251C173.321 466.759 173.312 466.792 172.271 466.792C171.339 466.792 171.191 467.024 171.071 468.682L170.935 470.571L168.49 470.793C166.237 470.998 166.045 471.103 166.045 472.127C166.045 473.158 166.201 473.24 168.209 473.255C169.926 473.269 170.547 473.486 171.21 474.305C171.67 474.873 172.046 475.725 172.046 476.198C172.046 477.225 170.146 479.24 169.177 479.24C168.121 479.24 168.346 479.816 170.047 481.464C170.985 482.373 171.442 483.134 171.198 483.379C170.953 483.623 170.012 482.97 168.828 481.735C167.748 480.607 166.537 479.685 166.137 479.685C165.156 479.685 164.242 477.975 164.882 477.336C165.219 476.999 165.596 477.077 166.18 477.606C167.794 479.066 170.268 477.961 170.268 475.78C170.268 474.747 170.161 474.698 168.494 474.964C166.505 475.283 165.184 474.392 164.683 472.396C164.147 470.26 164.562 469.709 167.046 469.268C168.893 468.939 169.379 468.677 169.379 468.011C169.379 467.243 169.067 467.182 165.821 467.314C163.865 467.394 162.264 467.425 162.265 467.385C162.265 467.343 162.153 467.014 162.013 466.652C161.804 466.106 162.625 465.941 166.86 465.676L171.957 465.358L171.122 463.519C170.053 461.164 170.06 460.332 171.157 459.235C172.225 458.167 173.285 458.106 174.615 459.038ZM204.833 460.775C206.116 461.372 207.167 462.061 207.167 462.305C207.167 462.549 206.316 462.362 205.277 461.89C202.62 460.684 200.453 460.753 199.202 462.085C197.857 463.516 198.131 464.75 199.836 464.942C200.567 465.025 201.454 465.325 201.806 465.609C202.306 466.011 202.372 466 202.106 465.557C201.834 465.105 203.051 465.015 208.097 465.113C212.677 465.202 214.48 465.39 214.614 465.792C214.735 466.157 214.327 466.348 213.428 466.348C212.125 466.348 212.057 466.436 212.057 468.126V469.904H209.805C208.566 469.904 207.166 470.112 206.693 470.364C204.879 471.335 206.162 474.466 208.612 475.046C209.65 475.292 209.834 475.195 209.834 474.398C209.834 473.307 210.582 473.214 211.824 474.153C212.539 474.693 212.607 474.968 212.192 475.633C211.781 476.29 211.884 476.782 212.721 478.17C214.207 480.632 213.566 481.025 212.026 478.596C211.178 477.259 210.431 476.573 209.822 476.573C207.338 476.573 204.499 473.828 204.499 471.426C204.499 469.492 205.823 468.571 208.6 468.571C210.569 468.571 210.723 468.49 210.723 467.459V466.348H204.944H199.165V473.293C199.165 479.416 199.086 480.173 198.498 479.685C197.962 479.24 197.831 477.882 197.831 472.766V466.402L196.198 466.263C193.843 466.065 193.702 465.014 196.031 465.014C197.704 465.014 197.823 464.94 197.402 464.154C195.388 460.391 199.748 458.407 204.833 460.775ZM249.415 461.403C250.131 462.12 250.922 463.587 251.212 464.738C251.677 466.586 251.858 466.792 253.01 466.792C253.714 466.792 254.291 466.876 254.291 466.978C254.291 467.08 254.412 467.48 254.56 467.866C254.781 468.443 254.586 468.519 253.448 468.291L252.068 468.015V474.977C252.068 481.801 252.05 481.929 251.179 481.463C250.353 481.021 250.29 480.532 250.29 474.557C250.29 468.143 250.287 468.126 249.267 468.126C248.256 468.126 247.178 467.392 247.178 466.703C247.178 466.508 248.003 466.348 249.011 466.348C250.832 466.348 250.843 466.338 250.565 464.945C250.41 464.174 250.042 463.251 249.747 462.895C248.402 461.275 245.844 461.508 245.844 463.251C245.844 464.294 244.719 464.422 244.336 463.422C243.912 462.319 244.003 461.964 244.955 461.013C246.22 459.748 247.907 459.896 249.415 461.403ZM228.064 465.903C228.412 466.464 228.038 466.593 225.714 466.715C221.107 466.956 215.718 466.373 215.422 465.601C215.198 465.016 215.977 464.949 221.407 465.083C226.356 465.204 227.736 465.375 228.064 465.903ZM244.369 466.183C246.603 466.491 247.41 467.681 245.386 467.681H244.066V474.336C244.066 479.995 243.968 480.953 243.415 480.741C242.923 480.552 242.733 479.498 242.637 476.42L242.51 472.349H241.194C240.215 472.349 239.637 472.707 238.938 473.744C238.214 474.818 237.83 475.046 237.271 474.733C236.865 474.506 236.658 474.031 236.803 473.655C237.158 472.73 235.704 471.238 234.449 471.238C233.069 471.238 231.871 473.083 232.256 474.615C232.717 476.455 233.772 477.778 235.902 479.188C236.99 479.908 237.695 480.612 237.47 480.751C236.844 481.138 233.435 478.246 232.003 476.114C230.426 473.766 230.368 472.003 231.82 470.551C232.42 469.951 233.133 469.46 233.405 469.46C234.236 469.46 235.802 470.403 236.566 471.364L237.291 472.276L238.515 471.312C239.818 470.287 241.168 470.062 241.621 470.793C242.213 471.752 242.732 471.156 242.732 469.518C242.732 467.876 242.656 467.786 241.065 467.522C240.148 467.371 237.897 467.23 236.064 467.209C231.562 467.158 228.843 466.699 228.594 465.948C228.42 465.423 229.5 465.372 235.449 465.626C239.332 465.792 243.346 466.042 244.369 466.183ZM161.377 466.089C161.377 466.191 161.498 466.591 161.647 466.978C161.84 467.482 161.651 467.681 160.98 467.681C160.068 467.681 160.043 467.861 160.043 474.588C160.043 481.356 160.025 481.485 159.154 481.018C158.379 480.604 158.265 480.087 158.265 477.002C158.265 473.112 158.277 473.125 155.233 473.734C154.353 473.91 153.82 474.311 153.732 474.863C153.526 476.166 152.934 476.051 151.714 474.47L150.606 473.033L151.797 472.58C152.452 472.331 154.175 472.127 155.626 472.127H158.265V469.909V467.691L154.153 467.946C151.891 468.086 149.807 468.271 149.522 468.358C149.053 468.5 148.266 467.308 148.604 466.969C148.682 466.891 151.137 466.648 154.061 466.429C161.362 465.881 161.377 465.88 161.377 466.089ZM222.818 470.372L224.175 471.729L225.147 470.817C225.681 470.315 226.489 469.904 226.944 469.904C227.86 469.904 229.395 471.117 229.395 471.84C229.395 472.125 229.189 472.099 228.862 471.771C227.937 470.847 226.807 471.186 225.547 472.766C224.234 474.411 223.616 474.44 223.616 472.857C223.616 471.513 222.806 470.793 221.295 470.793C219.723 470.793 218.936 472.298 219.351 474.51C219.56 475.623 220.293 476.656 221.901 478.101C223.141 479.217 223.877 480.129 223.536 480.129C222.824 480.129 219.073 476.385 218.333 474.935C217.536 473.375 217.729 470.901 218.726 469.904C219.977 468.652 221.244 468.797 222.818 470.372Z" fill="white"/>
</g>
<defs>
<clipPath id="clip0_508_33">
<rect width="413" height="529.031" fill="white"/>
</clipPath>
</defs>
</svg>
