<svg width="36" height="36" viewBox="0 0 36 36" fill="none" xmlns="http://www.w3.org/2000/svg">
<path d="M33.9679 17.2527C32.4767 10.5105 30.2323 6.912 26.9031 5.92904C26.2033 5.72377 25.4773 5.62121 24.7481 5.62459C23.7841 5.62459 22.9445 5.85943 22.0565 6.10834C20.9864 6.40857 19.7707 6.74958 17.9981 6.74958C16.2256 6.74958 15.0092 6.40927 13.9369 6.10904C13.0482 5.85943 12.2093 5.62459 11.2482 5.62459C10.494 5.62198 9.74318 5.7242 9.01718 5.92834C5.70552 6.90708 3.46258 10.5042 1.94948 17.2485C0.322463 24.5061 1.12331 29.0883 4.19523 30.1514C4.61631 30.2998 5.05936 30.3764 5.50583 30.3777C7.61025 30.3777 9.29775 28.6249 10.4509 27.1899C11.7537 25.5657 13.2788 24.7416 17.9981 24.7416C22.2133 24.7416 23.9577 25.3132 25.4645 27.1899C26.4116 28.3697 27.3067 29.1951 28.1996 29.7147C29.3872 30.4052 30.574 30.5585 31.7264 30.1626C33.5419 29.5431 34.5825 27.9056 34.8202 25.2942C35.0009 23.2917 34.7225 20.6614 33.9679 17.2527ZM14.6231 16.8744H12.3732V19.1244C12.3732 19.4228 12.2546 19.7089 12.0437 19.9199C11.8327 20.1309 11.5466 20.2494 11.2482 20.2494C10.9498 20.2494 10.6637 20.1309 10.4527 19.9199C10.2417 19.7089 10.1232 19.4228 10.1232 19.1244V16.8744H7.87328C7.57485 16.8744 7.28874 16.7559 7.07774 16.545C6.86677 16.334 6.74824 16.0479 6.74824 15.7494C6.74824 15.4511 6.86677 15.165 7.07774 14.9539C7.28874 14.743 7.57485 14.6244 7.87328 14.6244H10.1232V12.3745C10.1232 12.0762 10.2417 11.79 10.4527 11.579C10.6637 11.3681 10.9498 11.2495 11.2482 11.2495C11.5466 11.2495 11.8327 11.3681 12.0437 11.579C12.2546 11.79 12.3732 12.0762 12.3732 12.3745V14.6244H14.6231C14.9215 14.6244 15.2077 14.743 15.4186 14.9539C15.6296 15.165 15.7481 15.4511 15.7481 15.7494C15.7481 16.0479 15.6296 16.334 15.4186 16.545C15.2077 16.7559 14.9215 16.8744 14.6231 16.8744ZM20.5293 17.1557C20.2512 17.1557 19.9793 17.0732 19.748 16.9188C19.5168 16.7642 19.3366 16.5445 19.2301 16.2876C19.1237 16.0306 19.0958 15.7479 19.1501 15.4751C19.2044 15.2024 19.3383 14.9517 19.535 14.7551C19.7316 14.5584 19.9822 14.4245 20.255 14.3702C20.5278 14.316 20.8105 14.3439 21.0674 14.4503C21.3244 14.5567 21.5441 14.7369 21.6986 14.9682C21.8531 15.1995 21.9356 15.4713 21.9356 15.7494C21.9356 16.1224 21.7874 16.4802 21.5237 16.7438C21.26 17.0076 20.9023 17.1557 20.5293 17.1557ZM23.6231 20.2494C23.3447 20.2494 23.0727 20.1669 22.8414 20.0121C22.61 19.8575 22.4299 19.6377 22.3235 19.3805C22.2172 19.1234 22.1895 18.8404 22.2441 18.5676C22.2986 18.2946 22.4329 18.0441 22.6299 17.8476C22.8269 17.6511 23.0778 17.5173 23.3509 17.4635C23.6239 17.4096 23.9067 17.4381 24.1636 17.545C24.4205 17.652 24.6399 17.8328 24.794 18.0645C24.9481 18.2962 25.03 18.5684 25.0292 18.8467C25.0283 19.219 24.8798 19.5758 24.6161 19.8387C24.3525 20.1018 23.9954 20.2494 23.6231 20.2494ZM23.6231 14.062C23.3449 14.062 23.073 13.9795 22.8417 13.825C22.6105 13.6705 22.4303 13.4508 22.3238 13.1939C22.2173 12.9369 22.1895 12.6542 22.2438 12.3814C22.2981 12.1086 22.4321 11.8581 22.6287 11.6614C22.8254 11.4648 23.0759 11.3308 23.3487 11.2765C23.6215 11.2223 23.9042 11.2501 24.1611 11.3566C24.4181 11.463 24.6378 11.6433 24.7922 11.8745C24.9468 12.1058 25.0292 12.3777 25.0292 12.6558C25.0292 13.0287 24.8811 13.3864 24.6174 13.6501C24.3536 13.9138 23.996 14.062 23.6231 14.062ZM26.7167 17.1557C26.4385 17.1557 26.1667 17.0732 25.9355 16.9188C25.7042 16.7642 25.524 16.5445 25.4175 16.2876C25.3111 16.0306 25.2832 15.7479 25.3375 15.4751C25.3918 15.2024 25.5257 14.9517 25.7224 14.7551C25.919 14.5584 26.1696 14.4245 26.4424 14.3702C26.7152 14.316 26.9979 14.3439 27.2549 14.4503C27.5118 14.5567 27.7315 14.7369 27.886 14.9682C28.0405 15.1995 28.123 15.4713 28.123 15.7494C28.123 16.1224 27.9749 16.4802 27.7111 16.7438C27.4474 17.0076 27.0897 17.1557 26.7167 17.1557Z" fill="black"/>
</svg>
