<svg width="36" height="36" viewBox="0 0 36 36" fill="none" xmlns="http://www.w3.org/2000/svg">
<g clip-path="url(#clip0_563_28)">
<path d="M22.7248 28.0202C22.6881 28.122 22.6881 28.2334 22.7248 28.3352C22.7612 28.379 22.8072 28.414 22.8592 28.4374C22.9111 28.4608 22.9678 28.472 23.0248 28.4702C23.0755 28.4695 23.1257 28.4586 23.1721 28.4379C23.2185 28.4173 23.2602 28.3875 23.2948 28.3502L29.2948 22.0802C29.7546 21.5186 29.9734 20.7978 29.9031 20.0753C29.8328 19.3528 29.4792 18.6876 28.9198 18.2252C28.4158 17.8211 27.8308 17.5302 27.2044 17.3723C26.578 17.2144 25.925 17.1933 25.2898 17.3102C25.2138 17.3182 25.1424 17.3501 25.0857 17.4013C25.0291 17.4525 24.9902 17.5204 24.9748 17.5952L22.7248 28.0202Z" fill="black"/>
<path d="M10.9501 17.6249C10.9375 17.5474 10.8999 17.4761 10.843 17.422C10.7862 17.3678 10.7132 17.3337 10.6351 17.3249C10.0017 17.2143 9.35231 17.2358 8.72764 17.3881C8.10296 17.5404 7.51652 17.8202 7.00511 18.2099C6.72383 18.4452 6.49199 18.734 6.32299 19.0594C6.15398 19.3849 6.05116 19.7406 6.02047 20.1061C5.98979 20.4715 6.03184 20.8394 6.14421 21.1885C6.25657 21.5376 6.43702 21.861 6.67511 22.1399L12.5551 28.3499C12.5896 28.3872 12.6314 28.417 12.6778 28.4376C12.7242 28.4583 12.7743 28.4692 12.8251 28.4699C12.8796 28.4695 12.9333 28.4571 12.9825 28.4338C13.0317 28.4105 13.0753 28.3768 13.1101 28.3349C13.1474 28.2926 13.1738 28.2417 13.1869 28.1868C13.1999 28.1318 13.1993 28.0745 13.1851 28.0199L10.9501 17.6249Z" fill="black"/>
<path d="M13.8747 30.7501C11.6419 30.9066 9.53941 31.8594 7.9497 33.4351C7.73904 33.6443 7.59523 33.9114 7.53649 34.2025C7.47774 34.4935 7.5067 34.7955 7.6197 35.0701C7.73223 35.344 7.92332 35.5785 8.16891 35.744C8.41449 35.9095 8.70356 35.9986 8.9997 36.0001H26.9997C27.2941 35.9998 27.582 35.9129 27.8274 35.7502C28.0728 35.5875 28.2649 35.3562 28.3797 35.0851C28.4932 34.8152 28.5253 34.518 28.472 34.2302C28.4187 33.9423 28.2823 33.6763 28.0797 33.4651C26.4945 31.8345 24.3509 30.8645 22.0797 30.7501C21.4197 30.7051 14.6097 30.7051 13.8747 30.7501Z" fill="black"/>
<path d="M13.5 4.5C13.5 5.69347 13.9741 6.83807 14.818 7.68198C15.6619 8.52589 16.8065 9 18 9C19.1935 9 20.3381 8.52589 21.182 7.68198C22.0259 6.83807 22.5 5.69347 22.5 4.5C22.5 3.30653 22.0259 2.16193 21.182 1.31802C20.3381 0.474106 19.1935 0 18 0C16.8065 0 15.6619 0.474106 14.818 1.31802C13.9741 2.16193 13.5 3.30653 13.5 4.5Z" fill="black"/>
<path d="M23.6551 13.5C23.684 13.3672 23.677 13.2292 23.6348 13.1C23.5926 12.9708 23.5168 12.8552 23.4151 12.765C23.3106 12.6773 23.1841 12.6198 23.0493 12.5987C22.9145 12.5775 22.7765 12.5935 22.6501 12.645C19.6612 13.8457 16.324 13.8457 13.3351 12.645C13.2074 12.5955 13.0686 12.582 12.9338 12.6058C12.7989 12.6296 12.6731 12.6898 12.5701 12.78C12.4697 12.8675 12.3955 12.9811 12.3558 13.1082C12.3161 13.2353 12.3124 13.3709 12.3451 13.5L15.6001 28.185C15.6223 28.2645 15.669 28.3349 15.7337 28.3861C15.7984 28.4373 15.8777 28.4667 15.9601 28.47H20.0251C20.1101 28.4699 20.1928 28.442 20.2605 28.3905C20.3282 28.3391 20.3772 28.2669 20.4001 28.185L23.6551 13.5Z" fill="black"/>
</g>
<defs>
<clipPath id="clip0_563_28">
<rect width="36" height="36" fill="white"/>
</clipPath>
</defs>
</svg>
