<svg width="36" height="36" viewBox="0 0 36 36" fill="none" xmlns="http://www.w3.org/2000/svg">
<path fill-rule="evenodd" clip-rule="evenodd" d="M4.5 18C4.5 16.8065 4.97411 15.6619 5.81802 14.818C6.66193 13.9741 7.80653 13.5 9 13.5H27C28.1935 13.5 29.3381 13.9741 30.182 14.818C31.0259 15.6619 31.5 16.8065 31.5 18V28.5C31.5 29.6935 31.0259 30.8381 30.182 31.682C29.3381 32.5259 28.1935 33 27 33H9C7.80653 33 6.66193 32.5259 5.81802 31.682C4.97411 30.8381 4.5 29.6935 4.5 28.5V18ZM19.5 21C19.5 20.6022 19.342 20.2206 19.0607 19.9393C18.7794 19.658 18.3978 19.5 18 19.5C17.6022 19.5 17.2206 19.658 16.9393 19.9393C16.658 20.2206 16.5 20.6022 16.5 21V25.5C16.5 25.8978 16.658 26.2794 16.9393 26.5607C17.2206 26.842 17.6022 27 18 27C18.3978 27 18.7794 26.842 19.0607 26.5607C19.342 26.2794 19.5 25.8978 19.5 25.5V21Z" fill="black"/>
<path d="M11.9998 15V10.5C11.9998 8.9087 12.6319 7.38258 13.7571 6.25736C14.8823 5.13214 16.4085 4.5 17.9998 4.5C19.5911 4.5 21.1172 5.13214 22.2424 6.25736C23.3676 7.38258 23.9998 8.9087 23.9998 10.5V15" stroke="black" stroke-width="2.99992" stroke-linecap="round" stroke-linejoin="round"/>
</svg>
