<svg width="1398" height="390" viewBox="0 0 1398 390" fill="none" xmlns="http://www.w3.org/2000/svg">
<g clip-path="url(#clip0_504_34)">
<rect y="8.41309" width="381.304" height="381.304" rx="43.9493" fill="white"/>
<rect x="26.0378" y="271.488" width="377.897" height="163.821" rx="81.9104" transform="rotate(-44.8232 26.0378 271.488)" fill="white"/>
<path d="M377.962 202.081L190.542 389.501L323.561 431.985L414.948 344.419L377.962 202.081Z" fill="white"/>
<g filter="url(#filter0_d_504_34)">
<path d="M81.7355 235.228L59.02 258.573C54.1622 263.565 54.3248 271.566 59.3815 276.357L139.589 352.346C144.598 357.093 152.507 356.879 157.253 351.869L366.421 131.057C371.095 126.122 370.967 118.355 366.132 113.577L343.859 91.5674C338.896 86.6626 330.877 86.7738 326.052 91.8143L155.576 269.885C150.877 274.793 143.117 275.047 138.108 270.455L99.1331 234.731C94.1531 230.166 86.4467 230.386 81.7355 235.228Z" fill="#0A1017"/>
</g>
<path d="M248.829 124.451C253.224 119.495 252.897 111.753 247.661 107.723C232.655 96.1755 215.235 88.2695 196.712 84.6767C174.297 80.3292 151.147 82.4686 129.846 90.856C108.545 99.2434 89.9315 113.549 76.0817 132.176C64.6339 147.572 56.8134 165.421 53.1583 184.321C51.8854 190.903 56.6929 196.889 63.1961 197.56C69.6771 198.229 75.3787 193.357 76.7889 186.828C79.9095 172.382 86.0567 158.754 94.8562 146.919C106.047 131.868 121.088 120.309 138.3 113.531C155.512 106.754 174.217 105.025 192.33 108.538C206.548 111.296 219.962 117.199 231.664 125.782C236.988 129.687 244.435 129.408 248.829 124.451Z" fill="#0A1017"/>
</g>
<path d="M445.305 170.79H418.458V32.9097H460.365L485.434 141.324L510.316 32.9097H551.755V170.79H524.908V77.5289C524.908 74.8474 524.94 71.1058 525.002 66.304C525.064 61.4398 525.096 57.6982 525.096 55.079L498.997 170.79H471.029L445.118 55.079C445.118 57.6982 445.149 61.4398 445.211 66.304C445.273 71.1058 445.305 74.8474 445.305 77.5289V170.79ZM580.191 79.8675C587.238 70.8875 599.336 66.3975 616.486 66.3975C627.648 66.3975 637.564 68.6113 646.232 73.039C654.9 77.4666 659.234 85.823 659.234 98.1081V144.879C659.234 148.122 659.296 152.05 659.421 156.665C659.608 160.157 660.138 162.527 661.011 163.774C661.884 165.021 663.194 166.05 664.94 166.861V170.79H635.942C635.131 168.732 634.57 166.799 634.258 164.99C633.947 163.182 633.697 161.124 633.51 158.816C629.831 162.808 625.59 166.206 620.788 169.013C615.051 172.318 608.566 173.97 601.332 173.97C592.102 173.97 584.463 171.351 578.414 166.113C572.428 160.812 569.434 153.329 569.434 143.663C569.434 131.128 574.267 122.055 583.933 116.442C589.234 113.387 597.029 111.204 607.318 109.894L616.392 108.772C621.319 108.148 624.842 107.369 626.962 106.433C630.766 104.812 632.668 102.286 632.668 98.8564C632.668 94.6782 631.203 91.8096 628.272 90.2506C625.403 88.6292 621.163 87.8185 615.55 87.8185C609.252 87.8185 604.793 89.3775 602.174 92.4956C600.303 94.8029 599.056 97.921 598.432 101.85H572.708C573.269 92.9321 575.764 85.6047 580.191 79.8675ZM600.022 151.52C602.517 153.578 605.572 154.607 609.189 154.607C614.927 154.607 620.196 152.923 624.998 149.556C629.862 146.188 632.388 140.046 632.575 131.128V121.213C630.891 122.273 629.176 123.146 627.43 123.832C625.746 124.456 623.408 125.048 620.414 125.609L614.428 126.732C608.815 127.73 604.793 128.946 602.361 130.38C598.245 132.812 596.187 136.585 596.187 141.698C596.187 146.251 597.465 149.525 600.022 151.52ZM734.254 93.431C723.528 93.431 716.325 96.9232 712.646 103.908C710.588 107.836 709.559 113.885 709.559 122.055V170.79H682.713V68.8296H708.156V86.6025C712.272 79.8051 715.858 75.1592 718.913 72.6648C723.902 68.4866 730.388 66.3975 738.37 66.3975C738.869 66.3975 739.274 66.4287 739.586 66.4911C739.96 66.4911 740.74 66.5222 741.925 66.5846V93.8987C740.241 93.7116 738.744 93.5869 737.435 93.5245C736.125 93.4622 735.065 93.431 734.254 93.431ZM851.181 170.79H819.003L794.589 127.199L783.551 138.705V170.79H757.359V33.3774H783.551V107.649L816.758 69.2973H849.778L814.139 108.304L851.181 170.79ZM946.126 170.79H919.279V32.9097H961.186L986.255 141.324L1011.14 32.9097H1052.58V170.79H1025.73V77.5289C1025.73 74.8474 1025.76 71.1058 1025.82 66.304C1025.89 61.4398 1025.92 57.6982 1025.92 55.079L999.819 170.79H971.85L945.939 55.079C945.939 57.6982 945.97 61.4398 946.032 66.304C946.095 71.1058 946.126 74.8474 946.126 77.5289V170.79ZM1118.62 144.037L1139.66 68.8296H1168.01L1133.02 169.106C1126.29 188.438 1120.95 200.411 1117.03 205.026C1113.1 209.703 1105.24 212.042 1093.45 212.042C1091.08 212.042 1089.18 212.01 1087.75 211.948C1086.31 211.948 1084.16 211.855 1081.29 211.667V190.34L1084.66 190.527C1087.28 190.652 1089.77 190.558 1092.14 190.246C1094.51 189.935 1096.51 189.217 1098.13 188.095C1099.69 187.035 1101.12 184.821 1102.43 181.454C1103.81 178.086 1104.37 176.028 1104.12 175.28L1066.7 68.8296H1096.35L1118.62 144.037ZM477.483 313.213H448.204V362.79H419.581V224.91H479.634C493.479 224.91 504.516 228.464 512.748 235.573C520.98 242.683 525.096 253.689 525.096 268.594C525.096 284.87 520.98 296.375 512.748 303.11C504.516 309.845 492.761 313.213 477.483 313.213ZM490.953 284.496C494.695 281.19 496.565 275.952 496.565 268.781C496.565 261.609 494.663 256.496 490.859 253.44C487.118 250.384 481.848 248.856 475.051 248.856H448.204V289.453H475.051C481.848 289.453 487.149 287.801 490.953 284.496ZM596.683 308.723H566.936V362.79H538.781V224.91H606.411C616.077 225.097 623.498 226.282 628.674 228.464C633.912 230.647 638.34 233.858 641.957 238.099C644.95 241.591 647.32 245.458 649.066 249.698C650.812 253.939 651.685 258.772 651.685 264.197C651.685 270.745 650.033 277.199 646.727 283.56C643.422 289.859 637.966 294.317 630.358 296.937C636.718 299.493 641.208 303.142 643.828 307.881C646.509 312.558 647.85 319.73 647.85 329.395V338.656C647.85 344.955 648.099 349.226 648.598 351.471C649.347 355.026 651.093 357.645 653.837 359.329V362.79H622.126C621.253 359.734 620.629 357.271 620.255 355.4C619.507 351.534 619.101 347.574 619.039 343.52L618.852 330.705C618.727 321.912 617.106 316.05 613.988 313.119C610.932 310.188 605.164 308.723 596.683 308.723ZM614.175 283.654C619.912 281.035 622.781 275.859 622.781 268.126C622.781 259.769 620.006 254.157 614.456 251.288C611.338 249.667 606.66 248.856 600.424 248.856H566.936V285.899H599.582C606.068 285.899 610.932 285.15 614.175 283.654ZM763.963 302.549H696.987V338.001H773.317V362.79H668.831V224.91H769.949V249.324H696.987V278.602H763.963V302.549ZM837.234 342.865C844.031 342.865 849.55 342.117 853.79 340.62C861.835 337.752 865.857 332.42 865.857 324.625C865.857 320.073 863.862 316.549 859.871 314.055C855.88 311.623 849.612 309.471 841.069 307.6L826.476 304.326C812.133 301.084 802.218 297.56 796.73 293.756C787.438 287.395 782.793 277.449 782.793 263.916C782.793 251.569 787.283 241.311 796.262 233.141C805.242 224.972 818.432 220.887 835.831 220.887C850.361 220.887 862.739 224.754 872.966 232.487C883.256 240.157 888.65 251.32 889.149 265.974H861.461C860.962 257.68 857.345 251.787 850.61 248.295C846.12 245.988 840.539 244.834 833.866 244.834C826.445 244.834 820.521 246.331 816.093 249.324C811.666 252.317 809.452 256.496 809.452 261.859C809.452 266.785 811.634 270.464 816 272.896C818.806 274.518 824.793 276.42 833.96 278.602L857.719 284.308C868.134 286.803 875.991 290.139 881.292 294.317C889.523 300.803 893.639 310.188 893.639 322.473C893.639 335.07 888.806 345.547 879.14 353.903C869.537 362.197 855.942 366.344 838.356 366.344C820.396 366.344 806.271 362.26 795.982 354.09C785.692 345.859 780.548 334.571 780.548 320.228H808.049C808.922 326.527 810.637 331.235 813.193 334.353C817.871 340.028 825.884 342.865 837.234 342.865ZM1002.36 302.549H935.387V338.001H1011.72V362.79H907.231V224.91H1008.35V249.324H935.387V278.602H1002.36V302.549ZM1137.09 362.79H1108.28L1051.97 264.852V362.79H1025.12V224.91H1055.33L1110.24 321.164V224.91H1137.09V362.79ZM1252.74 352.5C1242.45 361.917 1229.29 366.625 1213.26 366.625C1193.43 366.625 1177.84 360.264 1166.49 347.543C1155.14 334.759 1149.47 317.235 1149.47 294.972C1149.47 270.901 1155.92 252.348 1168.83 239.315C1180.05 227.965 1194.33 222.291 1211.67 222.291C1234.87 222.291 1251.83 229.899 1262.56 245.115C1268.48 253.658 1271.66 262.233 1272.1 270.839H1243.29C1241.42 264.228 1239.02 259.239 1236.08 255.872C1230.85 249.885 1223.08 246.892 1212.79 246.892C1202.32 246.892 1194.05 251.132 1188 259.614C1181.96 268.032 1178.93 279.974 1178.93 295.44C1178.93 310.905 1182.11 322.505 1188.47 330.237C1194.9 337.908 1203.03 341.743 1212.89 341.743C1222.99 341.743 1230.69 338.438 1235.99 331.828C1238.92 328.273 1241.35 322.941 1243.29 315.832H1271.82C1269.32 330.861 1262.96 343.084 1252.74 352.5ZM1381.29 302.549H1314.31V338.001H1390.64V362.79H1286.16V224.91H1387.28V249.324H1314.31V278.602H1381.29V302.549Z" fill="white"/>
<defs>
<filter id="filter0_d_504_34" x="35.1764" y="87.9602" width="342.477" height="334.969" filterUnits="userSpaceOnUse" color-interpolation-filters="sRGB">
<feFlood flood-opacity="0" result="BackgroundImageFix"/>
<feColorMatrix in="SourceAlpha" type="matrix" values="0 0 0 0 0 0 0 0 0 0 0 0 0 0 0 0 0 0 127 0" result="hardAlpha"/>
<feOffset dx="-6.24734" dy="53.1024"/>
<feGaussianBlur stdDeviation="7.02825"/>
<feComposite in2="hardAlpha" operator="out"/>
<feColorMatrix type="matrix" values="0 0 0 0 0 0 0 0 0 0 0 0 0 0 0 0 0 0 0.2 0"/>
<feBlend mode="normal" in2="BackgroundImageFix" result="effect1_dropShadow_504_34"/>
<feBlend mode="normal" in="SourceGraphic" in2="effect1_dropShadow_504_34" result="shape"/>
</filter>
<clipPath id="clip0_504_34">
<rect y="8.41309" width="381.304" height="381.304" rx="43.9493" fill="white"/>
</clipPath>
</defs>
</svg>
