<svg width="1122" height="1376" viewBox="0 0 1122 1376" fill="none" xmlns="http://www.w3.org/2000/svg">
<rect width="1122" height="1376" fill="black"/>
<g clip-path="url(#clip0_576_82)">
<rect x="159" y="581.728" width="219.528" height="219.528" rx="25.3029" fill="white"/>
<rect x="173.991" y="733.188" width="217.566" height="94.3163" rx="47.1582" transform="rotate(-44.8232 173.991 733.188)" fill="white"/>
<path d="M376.604 693.228L268.7 801.131L345.284 825.59L397.898 775.177L376.604 693.228Z" fill="white"/>
<g filter="url(#filter0_d_576_82)">
<path d="M206.058 712.312L192.979 725.752C190.183 728.627 190.276 733.233 193.188 735.991L239.365 779.74C242.249 782.473 246.803 782.35 249.535 779.465L369.959 652.338C372.65 649.496 372.577 645.025 369.793 642.274L356.97 629.602C354.112 626.779 349.496 626.843 346.717 629.745L248.57 732.265C245.864 735.091 241.397 735.237 238.513 732.593L216.074 712.026C213.207 709.398 208.77 709.524 206.058 712.312Z" fill="#0A1017"/>
</g>
<path d="M302.258 648.535C304.788 645.681 304.6 641.224 301.586 638.904C292.946 632.256 282.917 627.704 272.253 625.635C259.348 623.132 246.02 624.364 233.756 629.193C221.493 634.022 210.776 642.258 202.802 652.982C196.212 661.846 191.709 672.122 189.605 683.004C188.872 686.793 191.64 690.239 195.384 690.626C199.115 691.011 202.398 688.206 203.21 684.447C205.006 676.13 208.545 668.284 213.611 661.47C220.055 652.805 228.714 646.15 238.623 642.248C248.533 638.346 259.302 637.351 269.73 639.373C277.916 640.961 285.639 644.359 292.376 649.301C295.441 651.549 299.728 651.388 302.258 648.535Z" fill="#0A1017"/>
</g>
<path d="M415.375 675.061H399.918V595.679H424.045L438.478 658.096L452.804 595.679H476.661V675.061H461.205V621.368C461.205 619.824 461.223 617.67 461.259 614.905C461.295 612.105 461.313 609.95 461.313 608.442L446.287 675.061H430.185L415.267 608.442C415.267 609.95 415.285 612.105 415.321 614.905C415.357 617.67 415.375 619.824 415.375 621.368V675.061ZM493.033 622.714C497.09 617.544 504.055 614.959 513.928 614.959C520.355 614.959 526.064 616.233 531.054 618.783C536.045 621.332 538.54 626.143 538.54 633.216V660.143C538.54 662.01 538.576 664.272 538.648 666.929C538.755 668.939 539.061 670.303 539.563 671.021C540.066 671.74 540.82 672.332 541.825 672.799V675.061H525.13C524.663 673.876 524.34 672.763 524.161 671.722C523.981 670.68 523.838 669.496 523.73 668.167C521.612 670.465 519.17 672.422 516.406 674.037C513.103 675.94 509.369 676.892 505.204 676.892C499.89 676.892 495.492 675.384 492.01 672.368C488.563 669.316 486.84 665.008 486.84 659.443C486.84 652.226 489.622 647.002 495.187 643.771C498.239 642.012 502.727 640.755 508.651 640.001L513.875 639.355C516.711 638.996 518.739 638.547 519.96 638.009C522.15 637.075 523.245 635.621 523.245 633.646C523.245 631.241 522.402 629.589 520.714 628.692C519.063 627.758 516.621 627.292 513.39 627.292C509.764 627.292 507.197 628.189 505.689 629.984C504.612 631.313 503.894 633.108 503.535 635.37H488.725C489.048 630.236 490.484 626.017 493.033 622.714ZM504.45 663.967C505.886 665.151 507.645 665.744 509.728 665.744C513.031 665.744 516.065 664.774 518.829 662.836C521.63 660.897 523.084 657.36 523.191 652.226V646.518C522.222 647.128 521.235 647.631 520.229 648.026C519.26 648.385 517.914 648.726 516.19 649.049L512.744 649.695C509.512 650.27 507.197 650.97 505.796 651.795C503.427 653.196 502.242 655.368 502.242 658.312C502.242 660.933 502.978 662.818 504.45 663.967ZM581.731 630.523C575.556 630.523 571.409 632.533 569.291 636.555C568.106 638.816 567.514 642.299 567.514 647.002V675.061H552.057V616.359H566.706V626.591C569.076 622.678 571.14 620.003 572.899 618.567C575.771 616.162 579.505 614.959 584.101 614.959C584.388 614.959 584.622 614.977 584.801 615.013C585.016 615.013 585.465 615.031 586.147 615.067V630.792C585.178 630.684 584.316 630.613 583.562 630.577C582.808 630.541 582.198 630.523 581.731 630.523ZM649.049 675.061H630.524L616.467 649.964L610.113 656.588V675.061H595.033V595.948H610.113V638.709L629.231 616.628H648.242L627.723 639.086L649.049 675.061ZM703.712 675.061H688.256V595.679H712.382L726.815 658.096L741.141 595.679H764.998V675.061H749.542V621.368C749.542 619.824 749.56 617.67 749.596 614.905C749.632 612.105 749.65 609.95 749.65 608.442L734.624 675.061H718.522L703.604 608.442C703.604 609.95 703.622 612.105 703.658 614.905C703.694 617.67 703.712 619.824 703.712 621.368V675.061ZM803.02 659.658L815.137 616.359H831.455L811.313 674.091C807.436 685.221 804.366 692.114 802.104 694.771C799.842 697.464 795.318 698.81 788.533 698.81C787.168 698.81 786.073 698.792 785.248 698.757C784.422 698.757 783.183 698.703 781.532 698.595V686.316L783.47 686.424C784.978 686.496 786.414 686.442 787.779 686.262C789.143 686.083 790.292 685.67 791.225 685.024C792.123 684.413 792.949 683.139 793.703 681.2C794.493 679.261 794.816 678.076 794.672 677.646L773.13 616.359H790.202L803.02 659.658ZM433.901 756.518H417.044V785.061H400.565V705.679H435.139C443.11 705.679 449.465 707.725 454.204 711.818C458.943 715.911 461.313 722.248 461.313 730.829C461.313 740.2 458.943 746.824 454.204 750.701C449.465 754.579 442.697 756.518 433.901 756.518ZM441.656 739.984C443.81 738.081 444.887 735.066 444.887 730.937C444.887 726.808 443.792 723.864 441.602 722.105C439.448 720.345 436.414 719.466 432.5 719.466H417.044V742.839H432.5C436.414 742.839 439.466 741.887 441.656 739.984ZM502.527 753.933H485.402V785.061H469.191V705.679H508.128C513.693 705.787 517.966 706.469 520.946 707.725C523.961 708.982 526.511 710.831 528.593 713.272C530.316 715.283 531.681 717.509 532.686 719.95C533.691 722.392 534.194 725.174 534.194 728.298C534.194 732.068 533.242 735.784 531.34 739.446C529.437 743.072 526.295 745.639 521.915 747.147C525.577 748.619 528.162 750.719 529.67 753.448C531.214 756.141 531.986 760.27 531.986 765.834V771.166C531.986 774.792 532.129 777.252 532.417 778.544C532.847 780.591 533.853 782.099 535.432 783.068V785.061H517.176C516.673 783.301 516.314 781.883 516.099 780.806C515.668 778.58 515.435 776.3 515.399 773.967L515.291 766.588C515.219 761.526 514.286 758.151 512.49 756.464C510.731 754.776 507.41 753.933 502.527 753.933ZM512.598 739.5C515.901 737.992 517.553 735.012 517.553 730.56C517.553 725.749 515.955 722.517 512.76 720.866C510.965 719.932 508.272 719.466 504.682 719.466H485.402V740.792H504.197C507.931 740.792 510.731 740.361 512.598 739.5ZM598.835 750.378H560.276V770.789H604.221V785.061H544.065V705.679H602.282V719.735H560.276V736.591H598.835V750.378ZM641.02 773.59C644.933 773.59 648.11 773.159 650.552 772.297C655.183 770.645 657.499 767.576 657.499 763.088C657.499 760.467 656.35 758.438 654.052 757.002C651.755 755.602 648.146 754.363 643.228 753.286L634.826 751.401C626.569 749.535 620.86 747.506 617.701 745.316C612.351 741.654 609.676 735.927 609.676 728.136C609.676 721.028 612.261 715.121 617.431 710.418C622.601 705.715 630.195 703.363 640.212 703.363C648.577 703.363 655.704 705.589 661.592 710.041C667.516 714.457 670.622 720.884 670.909 729.321H654.968C654.681 724.546 652.598 721.153 648.721 719.143C646.136 717.814 642.922 717.15 639.081 717.15C634.808 717.15 631.398 718.012 628.848 719.735C626.299 721.458 625.025 723.864 625.025 726.952C625.025 729.788 626.281 731.906 628.795 733.306C630.41 734.24 633.857 735.335 639.135 736.591L652.814 739.877C658.809 741.313 663.333 743.234 666.385 745.639C671.124 749.373 673.494 754.776 673.494 761.849C673.494 769.102 670.711 775.133 665.146 779.944C659.617 784.719 651.79 787.107 641.666 787.107C631.326 787.107 623.194 784.755 617.27 780.052C611.346 775.313 608.384 768.814 608.384 760.557H624.217C624.72 764.183 625.707 766.894 627.179 768.689C629.872 771.956 634.485 773.59 641.02 773.59ZM736.089 750.378H697.529V770.789H741.474V785.061H681.319V705.679H739.536V719.735H697.529V736.591H736.089V750.378ZM813.655 785.061H797.068L764.648 728.675V785.061H749.192V705.679H766.587L798.199 761.095V705.679H813.655V785.061ZM880.236 779.137C874.312 784.558 866.736 787.269 857.509 787.269C846.092 787.269 837.116 783.606 830.582 776.282C824.048 768.922 820.78 758.833 820.78 746.016C820.78 732.157 824.496 721.476 831.928 713.973C838.391 707.438 846.613 704.171 856.594 704.171C869.95 704.171 879.715 708.551 885.89 717.312C889.301 722.23 891.132 727.167 891.384 732.122H874.796C873.719 728.316 872.337 725.444 870.65 723.505C867.634 720.058 863.164 718.335 857.24 718.335C851.208 718.335 846.451 720.776 842.968 725.659C839.486 730.506 837.745 737.381 837.745 746.285C837.745 755.189 839.576 761.867 843.238 766.319C846.936 770.735 851.621 772.943 857.294 772.943C863.11 772.943 867.544 771.04 870.596 767.235C872.283 765.188 873.683 762.119 874.796 758.026H891.222C889.786 766.678 886.124 773.715 880.236 779.137ZM954.248 750.378H915.688V770.789H959.633V785.061H899.478V705.679H957.695V719.735H915.688V736.591H954.248V750.378Z" fill="white"/>
<defs>
<filter id="filter0_d_576_82" x="179.252" y="627.525" width="197.174" height="192.852" filterUnits="userSpaceOnUse" color-interpolation-filters="sRGB">
<feFlood flood-opacity="0" result="BackgroundImageFix"/>
<feColorMatrix in="SourceAlpha" type="matrix" values="0 0 0 0 0 0 0 0 0 0 0 0 0 0 0 0 0 0 127 0" result="hardAlpha"/>
<feOffset dx="-3.59677" dy="30.5726"/>
<feGaussianBlur stdDeviation="4.04637"/>
<feComposite in2="hardAlpha" operator="out"/>
<feColorMatrix type="matrix" values="0 0 0 0 0 0 0 0 0 0 0 0 0 0 0 0 0 0 0.2 0"/>
<feBlend mode="normal" in2="BackgroundImageFix" result="effect1_dropShadow_576_82"/>
<feBlend mode="normal" in="SourceGraphic" in2="effect1_dropShadow_576_82" result="shape"/>
</filter>
<clipPath id="clip0_576_82">
<rect x="159" y="581.728" width="219.528" height="219.528" rx="25.3029" fill="white"/>
</clipPath>
</defs>
</svg>
