<svg width="36" height="36" viewBox="0 0 36 36" fill="none" xmlns="http://www.w3.org/2000/svg">
<path d="M12.7498 5.28003C12.3035 5.28007 11.8673 5.41282 11.4967 5.66141C11.1261 5.90999 10.8377 6.26318 10.6684 6.67606C10.499 7.08895 10.4562 7.54288 10.5455 7.98013C10.6348 8.41739 10.852 8.81822 11.1697 9.13166C11.4874 9.4451 11.8911 9.65699 12.3295 9.74039C12.7679 9.82379 13.2213 9.77493 13.6318 9.60002C14.0424 9.42512 14.3917 9.13207 14.6353 8.75813C14.8789 8.38419 15.0058 7.94627 14.9998 7.50003C14.9919 6.90851 14.7514 6.34389 14.3303 5.9284C13.9092 5.51291 13.3414 5.27998 12.7498 5.28003Z" fill="black"/>
<path d="M18.7498 8.28003C18.3035 8.28007 17.8673 8.41282 17.4967 8.66141C17.1261 8.90999 16.8377 9.26318 16.6684 9.67606C16.499 10.0889 16.4562 10.5429 16.5455 10.9801C16.6348 11.4174 16.852 11.8182 17.1697 12.1317C17.4874 12.4451 17.8911 12.657 18.3295 12.7404C18.7679 12.8238 19.2213 12.7749 19.6318 12.6C20.0424 12.4251 20.3917 12.1321 20.6353 11.7581C20.8789 11.3842 21.0058 10.9463 20.9998 10.5C20.9919 9.90851 20.7514 9.34389 20.3303 8.9284C19.9092 8.51291 19.3414 8.27998 18.7498 8.28003Z" fill="black"/>
<path d="M12.7498 11.28C12.3035 11.2801 11.8673 11.4128 11.4967 11.6614C11.1261 11.91 10.8377 12.2632 10.6684 12.6761C10.499 13.0889 10.4562 13.5429 10.5455 13.9801C10.6348 14.4174 10.852 14.8182 11.1697 15.1317C11.4874 15.4451 11.8911 15.657 12.3295 15.7404C12.7679 15.8238 13.2213 15.7749 13.6318 15.6C14.0424 15.4251 14.3917 15.1321 14.6353 14.7581C14.8789 14.3842 15.0058 13.9463 14.9998 13.5C14.9919 12.9085 14.7514 12.3439 14.3303 11.9284C13.9092 11.5129 13.3414 11.28 12.7498 11.28Z" fill="black"/>
<path d="M26.3099 0H9.68994C8.49647 0 7.35187 0.474106 6.50796 1.31802C5.66405 2.16193 5.18994 3.30653 5.18994 4.5V31.5C5.18994 32.6935 5.66405 33.8381 6.50796 34.682C7.35187 35.5259 8.49647 36 9.68994 36H26.3099C27.5034 36 28.648 35.5259 29.4919 34.682C30.3358 33.8381 30.8099 32.6935 30.8099 31.5V4.5C30.8099 3.30653 30.3358 2.16193 29.4919 1.31802C28.648 0.474106 27.5034 0 26.3099 0ZM27.8099 31.5C27.8099 31.8978 27.6519 32.2794 27.3706 32.5607C27.0893 32.842 26.7078 33 26.3099 33H9.68994C9.29212 33 8.91059 32.842 8.62928 32.5607C8.34798 32.2794 8.18994 31.8978 8.18994 31.5V4.5C8.18994 4.10218 8.34798 3.72064 8.62928 3.43934C8.91059 3.15804 9.29212 3 9.68994 3H26.3099C26.7078 3 27.0893 3.15804 27.3706 3.43934C27.6519 3.72064 27.8099 4.10218 27.8099 4.5V31.5Z" fill="black"/>
</svg>
