<svg width="36" height="36" viewBox="0 0 36 36" fill="none" xmlns="http://www.w3.org/2000/svg">
<g clip-path="url(#clip0_552_82)">
<path fill-rule="evenodd" clip-rule="evenodd" d="M34.6194 24.9219C34.6194 32.5642 27.6945 35.9996 18.0002 35.9996C8.30596 35.9996 1.3811 32.5642 1.3811 24.9759C1.3811 16.6676 5.53653 12.4582 13.8448 8.24873L10.9031 2.76902C10.7276 2.49456 10.6298 2.1776 10.6203 1.85196C10.6108 1.52631 10.6898 1.20418 10.849 0.919915C11.0081 0.635651 11.2414 0.399911 11.524 0.237832C11.8067 0.0757535 12.1279 -0.00658676 12.4537 -0.000408648H24.1974C24.5027 0.00740332 24.801 0.0927716 25.0642 0.247662C25.3274 0.402552 25.5469 0.62187 25.702 0.884975C25.8571 1.14808 25.9427 1.44632 25.9507 1.75163C25.9588 2.05693 25.889 2.35926 25.748 2.63016L22.1557 8.24873C30.4614 12.4016 34.6194 16.611 34.6194 24.9219ZM12.7468 16.7139H17.0745C17.4345 16.8219 17.8871 17.0224 18.2497 17.3567C18.5201 17.6038 18.7205 17.9178 18.8308 18.267H12.7494C12.5805 18.267 12.4134 18.3003 12.2574 18.3649C12.1014 18.4295 11.9596 18.5242 11.8403 18.6436C11.7209 18.763 11.6262 18.9047 11.5615 19.0607C11.4969 19.2167 11.4637 19.3839 11.4637 19.5527C11.4637 19.7216 11.4969 19.8888 11.5615 20.0448C11.6262 20.2007 11.7209 20.3425 11.8403 20.4619C11.9596 20.5813 12.1014 20.676 12.2574 20.7406C12.4134 20.8052 12.5805 20.8384 12.7494 20.8384H18.4245C17.9822 21.3287 17.4219 21.6978 16.7968 21.9107C15.9908 22.2054 15.1424 22.3678 14.2845 22.3916H14.2511H14.246C13.9842 22.3918 13.7288 22.4719 13.5138 22.6212C13.2988 22.7704 13.1345 22.9818 13.0428 23.2269C12.9512 23.4721 12.9365 23.7393 13.0007 23.993C13.065 24.2468 13.2052 24.4748 13.4025 24.6467L13.4077 24.6519L13.4205 24.6596L13.454 24.6904C13.6356 24.8463 13.8235 24.9947 14.0171 25.1353C16.236 26.7887 18.7571 27.9916 21.4382 28.6762C21.6035 28.7215 21.7761 28.7333 21.946 28.7109C22.1159 28.6886 22.2796 28.6325 22.4275 28.546C22.5754 28.4595 22.7045 28.3442 22.8072 28.2071C22.91 28.07 22.9843 27.9137 23.0258 27.7475C23.0672 27.5812 23.0751 27.4083 23.0488 27.239C23.0225 27.0697 22.9626 26.9073 22.8727 26.7615C22.7828 26.6156 22.6646 26.4892 22.5251 26.3897C22.3857 26.2901 22.2277 26.2195 22.0605 26.1819C20.4873 25.7794 18.9742 25.1707 17.5605 24.3716L17.6994 24.3202C18.5685 23.9936 19.5251 23.4742 20.2708 22.6333C20.7208 22.1319 21.0731 21.5327 21.2917 20.8384H23.2511C23.5921 20.8384 23.9191 20.703 24.1602 20.4619C24.4014 20.2208 24.5368 19.8937 24.5368 19.5527C24.5368 19.2117 24.4014 18.8847 24.1602 18.6436C23.9191 18.4025 23.5921 18.267 23.2511 18.267H21.4665C21.3847 17.7245 21.2126 17.1995 20.9574 16.7139H23.2511C23.5921 16.7139 23.9191 16.5784 24.1602 16.3373C24.4014 16.0962 24.5368 15.7692 24.5368 15.4282C24.5368 15.0872 24.4014 14.7601 24.1602 14.519C23.9191 14.2779 23.5921 14.1424 23.2511 14.1424H17.2777H17.2211H12.7494C12.4084 14.1424 12.0814 14.2779 11.8403 14.519C11.5991 14.7601 11.4637 15.0872 11.4637 15.4282C11.4637 15.7692 11.5991 16.0962 11.8403 16.3373C12.0814 16.5784 12.4084 16.7139 12.7494 16.7139H12.7468Z" fill="black"/>
</g>
<defs>
<clipPath id="clip0_552_82">
<rect width="36" height="36" fill="white"/>
</clipPath>
</defs>
</svg>
