<svg width="36" height="36" viewBox="0 0 36 36" fill="none" xmlns="http://www.w3.org/2000/svg">
<g clip-path="url(#clip0_597_327)">
<path d="M28.665 16.2967L29.4444 15.5173L27.1061 13.179L22.8227 8.89563L20.4844 6.55735L19.705 7.33677L18.1461 8.89563L4.40612 22.6356C3.68877 23.353 3.16456 24.2428 2.87486 25.2153L0.433114 33.52C0.260672 34.0994 0.419319 34.7271 0.853864 35.1548C1.28841 35.5824 1.9092 35.7411 2.48859 35.5755L10.7864 33.1338C11.759 32.8441 12.6487 32.3198 13.3661 31.6025L27.1061 17.8625L28.665 16.2967ZM11.4003 27.9123L10.7726 29.478C10.4967 29.6919 10.1863 29.8505 9.85522 29.954L4.4613 31.5404L6.04775 26.1534C6.14432 25.8154 6.30986 25.505 6.52368 25.236L8.08944 24.6083V26.8156C8.08944 27.4226 8.58607 27.9192 9.19305 27.9192H11.4003V27.9123ZM25.3817 1.65316L24.3884 2.65331L22.8296 4.21217L22.0433 4.99159L24.3815 7.32988L28.665 11.6133L31.0032 13.9516L31.7827 13.1721L33.3415 11.6133L34.3417 10.6131C36.0661 8.88873 36.0661 6.09521 34.3417 4.37081L31.6309 1.65316C29.9065 -0.0712366 27.113 -0.0712366 25.3886 1.65316H25.3817ZM22.1122 13.2411L12.1797 23.1736C11.7521 23.6013 11.0485 23.6013 10.6209 23.1736C10.1932 22.746 10.1932 22.0424 10.6209 21.6148L20.5534 11.6823C20.981 11.2546 21.6846 11.2546 22.1122 11.6823C22.5399 12.1099 22.5399 12.8135 22.1122 13.2411Z" fill="black"/>
</g>
<defs>
<clipPath id="clip0_597_327">
<rect width="36" height="36" fill="white"/>
</clipPath>
</defs>
</svg>
