<svg width="36" height="36" viewBox="0 0 36 36" fill="none" xmlns="http://www.w3.org/2000/svg">
<path d="M5.5125 21.9C4.3875 21.9 3.4375 21.5098 2.6625 20.7296C1.8875 19.9494 1.5 19.002 1.5 17.8875C1.5 16.773 1.89013 15.8256 2.67037 15.0454C3.45062 14.2651 4.398 13.875 5.5125 13.875V9.2625C5.5125 8.6625 5.7375 8.1375 6.1875 7.6875C6.6375 7.2375 7.1625 7.0125 7.7625 7.0125H13.9875C13.9875 5.8875 14.3777 4.9375 15.1579 4.1625C15.9381 3.3875 16.8855 3 18 3C19.1145 3 20.0619 3.39013 20.8421 4.17038C21.6223 4.95062 22.0125 5.898 22.0125 7.0125H28.2375C28.8375 7.0125 29.3625 7.2375 29.8125 7.6875C30.2625 8.1375 30.4875 8.6625 30.4875 9.2625V13.875C31.6125 13.875 32.5625 14.2651 33.3375 15.0454C34.1125 15.8256 34.5 16.773 34.5 17.8875C34.5 19.002 34.1098 19.9494 33.3296 20.7296C32.5494 21.5098 31.602 21.9 30.4875 21.9V29.25C30.4875 29.85 30.2625 30.375 29.8125 30.825C29.3625 31.275 28.8375 31.5 28.2375 31.5H7.7625C7.1625 31.5 6.6375 31.275 6.1875 30.825C5.7375 30.375 5.5125 29.85 5.5125 29.25V21.9ZM12.8715 18.15C13.2905 18.15 13.6438 18.0032 13.9313 17.7098C14.2187 17.4165 14.3625 17.0602 14.3625 16.641C14.3625 16.222 14.2157 15.8687 13.9222 15.5812C13.629 15.2938 13.2728 15.15 12.8535 15.15C12.4345 15.15 12.0812 15.2968 11.7938 15.5903C11.5063 15.8835 11.3625 16.2397 11.3625 16.659C11.3625 17.078 11.5093 17.4313 11.8028 17.7188C12.096 18.0062 12.4523 18.15 12.8715 18.15ZM23.1465 18.15C23.5655 18.15 23.9188 18.0032 24.2063 17.7098C24.4937 17.4165 24.6375 17.0602 24.6375 16.641C24.6375 16.222 24.4907 15.8687 24.1973 15.5812C23.904 15.2938 23.5477 15.15 23.1285 15.15C22.7095 15.15 22.3562 15.2968 22.0687 15.5903C21.7813 15.8835 21.6375 16.2397 21.6375 16.659C21.6375 17.078 21.7843 17.4313 22.0778 17.7188C22.371 18.0062 22.7272 18.15 23.1465 18.15ZM12.825 25.3125H23.175C23.4937 25.3125 23.761 25.204 23.9767 24.987C24.1922 24.7703 24.3 24.5015 24.3 24.1808C24.3 23.8603 24.1922 23.5937 23.9767 23.3812C23.761 23.1688 23.4937 23.0625 23.175 23.0625H12.825C12.5063 23.0625 12.2391 23.171 12.0236 23.388C11.8078 23.6047 11.7 23.8735 11.7 24.1942C11.7 24.5147 11.8078 24.7813 12.0236 24.9938C12.2391 25.2062 12.5063 25.3125 12.825 25.3125ZM7.7625 29.25H28.2375V9.2625H7.7625V29.25Z" fill="black"/>
</svg>
