<svg width="36" height="36" viewBox="0 0 36 36" fill="none" xmlns="http://www.w3.org/2000/svg">
<g clip-path="url(#clip0_597_330)">
<path d="M35.6026 0.357087V0.354087C35.5859 0.282769 35.5485 0.217965 35.4952 0.167799C35.4418 0.117632 35.3748 0.0843373 35.3026 0.0720875C34.9186 0.0120875 25.7986 -1.31391 14.0476 10.6486C12.9129 11.8733 11.8511 13.1635 10.8676 14.5126L4.79711 16.2616C4.72429 16.2816 4.65937 16.3235 4.61111 16.3816L0.327107 21.6316C0.288615 21.6795 0.262594 21.7362 0.251371 21.7966C0.240149 21.8571 0.244073 21.9193 0.262795 21.9779C0.281516 22.0364 0.31445 22.0894 0.358654 22.1321C0.402858 22.1748 0.456954 22.2059 0.516107 22.2226L6.34661 23.8666L7.07261 23.0176C7.33961 22.7056 7.62761 22.4176 7.93361 22.1476L8.74361 21.4396L8.17361 22.3516C7.95724 22.6989 7.71558 23.0298 7.45061 23.3416L6.67061 24.2506C6.68261 25.4356 6.99161 26.4826 7.60061 27.3526L5.52011 29.4796C5.29811 29.7196 5.46611 29.8876 5.70011 30.1216L7.36511 31.7506C7.59461 31.9906 7.74761 32.1376 7.98011 31.9006L10.2376 29.5996C10.7476 29.7826 11.9806 30.1006 13.8376 29.8096L14.9626 28.9456C15.2806 28.6996 15.6196 28.4776 15.9706 28.2826L16.9366 27.7426L16.1656 28.5376C15.8851 28.8256 15.5851 29.0926 15.2656 29.3386L14.3356 30.0526L16.4716 35.7586C16.4929 35.8166 16.5284 35.8683 16.5749 35.909C16.6214 35.9497 16.6774 35.9781 16.7377 35.9915C16.7981 36.005 16.8608 36.0031 16.9202 35.9859C16.9796 35.9688 17.0337 35.9371 17.0776 35.8936L21.9406 31.1776C21.9973 31.1228 22.0351 31.0513 22.0486 30.9736L23.0956 24.8116C24.4216 23.6416 25.7656 22.2826 27.0856 20.7706C34.6936 12.0616 35.7826 5.29809 35.7556 2.04009C35.7436 0.987087 35.6146 0.399087 35.6056 0.357087H35.6026ZM24.7351 16.7476C22.8241 18.6916 20.0851 19.0936 18.6121 17.6476C17.1421 16.2046 17.4961 13.4566 19.4071 11.5126C21.3181 9.56859 24.0571 9.16359 25.5271 10.6096C27.0001 12.0556 26.6461 14.8036 24.7351 16.7476Z" fill="black"/>
</g>
<defs>
<clipPath id="clip0_597_330">
<rect width="36" height="36" fill="white"/>
</clipPath>
</defs>
</svg>
