<svg width="36" height="36" viewBox="0 0 36 36" fill="none" xmlns="http://www.w3.org/2000/svg">
<g clip-path="url(#clip0_597_322)">
<path fill-rule="evenodd" clip-rule="evenodd" d="M16.1193 31.646C19.9124 31.646 23.0678 30.8259 25.5154 29.2561L30.6506 34.3912C31.6547 35.3954 33.2829 35.3954 34.2871 34.3912C35.2912 33.3871 35.2912 31.7588 34.2871 30.7547L29.1517 25.6192C30.721 23.1719 31.5405 20.0171 31.5405 16.2248C31.5405 6.35513 25.9888 0.803467 16.1193 0.803467C6.24968 0.803467 0.697998 6.35513 0.697998 16.2248C0.697998 26.0945 6.24968 31.646 16.1193 31.646ZM24.758 9.26691C23.7079 8.63684 22.441 8.36426 21.3207 8.36426C20.2799 8.36426 18.8946 8.60505 17.9561 9.54355C17.5556 9.94407 17.3619 10.5068 17.4311 11.069C17.5003 11.6311 17.8247 12.1301 18.3104 12.4215L19.1952 12.9524C18.8335 13.2737 18.4584 13.6043 18.0864 13.9288C17.3672 14.5559 16.6708 15.1499 16.1085 15.604C16.0189 15.6764 15.9341 15.7442 15.8542 15.8071C15.701 15.5192 15.4797 15.1188 15.2085 14.7791C14.8522 14.3328 14.2253 13.7518 13.2592 13.6734C12.2033 13.5877 11.2663 14.1754 10.6927 14.5993C10.0318 15.0876 9.3798 15.7263 8.81264 16.3342C8.23731 16.951 7.70366 17.586 7.28509 18.092L7.0416 18.3872C6.9328 18.5192 6.8365 18.6361 6.74768 18.7425C6.67502 18.8296 6.61569 18.8996 6.56792 18.9543C6.54428 18.9814 6.52569 19.0022 6.51145 19.0177L6.49129 19.0393C6.49116 19.0394 6.49119 19.0394 6.49129 19.0393C5.86427 19.6675 5.86525 20.6851 6.4935 21.3121C7.12175 21.9391 8.13934 21.9381 8.76636 21.3099C8.95608 21.1198 9.2592 20.7513 9.56134 20.384L9.76173 20.1409C10.1711 19.6461 10.6553 19.0711 11.163 18.5268C11.6789 17.9738 12.1751 17.5005 12.603 17.1843C12.6998 17.1128 12.7817 17.0578 12.8495 17.0157C12.9187 17.1346 13.0017 17.2903 13.1165 17.5056L13.1353 17.541C13.2906 17.833 13.5758 18.3694 13.9915 18.7643C14.2372 18.9978 14.5964 19.252 15.0799 19.3641C15.5813 19.4803 16.0635 19.4084 16.4805 19.2359C16.7815 19.1113 17.0881 18.8977 17.2919 18.7505C17.5392 18.5721 17.8252 18.3494 18.1284 18.1043C18.7372 17.6126 19.4689 16.988 20.1991 16.3512C20.649 15.9588 21.1026 15.5581 21.5323 15.1755L22.2343 16.3455C22.5257 16.8312 23.0247 17.1555 23.5869 17.2247C24.1491 17.2939 24.7118 17.1003 25.1123 16.6998C26.0508 15.7613 26.2915 14.3759 26.2915 13.3352C26.2915 12.2148 26.0189 10.948 25.3889 9.89784C25.2336 9.63895 25.0169 9.42225 24.758 9.26691Z" fill="black"/>
</g>
<defs>
<clipPath id="clip0_597_322">
<rect width="36" height="36" fill="white"/>
</clipPath>
</defs>
</svg>
