<svg width="36" height="36" viewBox="0 0 36 36" fill="none" xmlns="http://www.w3.org/2000/svg">
<g clip-path="url(#clip0_598_343)">
<path d="M17.9983 21.6803C20.0313 21.6803 21.6794 20.0322 21.6794 17.9992C21.6794 15.9662 20.0313 14.3181 17.9983 14.3181C15.9653 14.3181 14.3171 15.9662 14.3171 17.9992C14.3171 20.0322 15.9652 21.6803 17.9983 21.6803Z" fill="black"/>
<path d="M34.4428 21.3745L34.4067 21.3453L31.9861 19.4471C31.8329 19.3259 31.7106 19.1699 31.6292 18.9922C31.5479 18.8145 31.5098 18.62 31.5182 18.4248V17.5382C31.5107 17.3441 31.5491 17.1511 31.6306 16.9748C31.712 16.7985 31.8342 16.6441 31.9869 16.5242L34.4067 14.6253L34.4428 14.5961C34.8159 14.2853 35.0663 13.8518 35.1492 13.3732C35.2321 12.8946 35.1421 12.4022 34.8952 11.9839L31.6195 6.31606C31.6157 6.31066 31.6125 6.30511 31.6096 6.29919C31.3613 5.88669 30.9766 5.57416 30.5219 5.41584C30.0673 5.25751 29.5715 5.26344 29.1208 5.43256L29.0939 5.44254L26.2485 6.58756C26.069 6.66024 25.8746 6.68911 25.6817 6.67186C25.4888 6.65469 25.3028 6.59184 25.1387 6.48864C24.8871 6.33009 24.6316 6.18031 24.3717 6.03916C24.2035 5.94789 24.0588 5.81829 23.9497 5.66079C23.8406 5.50329 23.7701 5.32239 23.7437 5.13264L23.315 2.09626L23.3057 2.04106C23.2124 1.57074 22.9601 1.14691 22.5911 0.840763C22.2221 0.534613 21.7589 0.364813 21.2794 0.359863H14.7204C14.2342 0.361438 13.7641 0.534538 13.3931 0.848638C13.022 1.16281 12.7736 1.59781 12.6917 2.07706L12.6849 2.12004L12.2576 5.16256C12.2315 5.35179 12.1616 5.53224 12.0533 5.68966C11.945 5.84701 11.8015 5.97699 11.6341 6.06909C11.3718 6.21024 11.1157 6.35979 10.8672 6.51549C10.7036 6.61809 10.518 6.68041 10.3256 6.69736C10.1333 6.71431 9.9396 6.68536 9.7605 6.61284L6.91275 5.46241L6.88598 5.45169C6.43455 5.28241 5.93813 5.27671 5.48295 5.43564C5.02785 5.59456 4.6428 5.90799 4.39485 6.32146L4.38488 6.33834L1.1046 12.0099C0.857402 12.4286 0.767177 12.9216 0.850052 13.4009C0.932927 13.88 1.18358 14.3139 1.55715 14.6253L1.59315 14.6544L4.0137 16.5527C4.167 16.6739 4.28933 16.8299 4.37063 17.0075C4.452 17.1852 4.48995 17.3798 4.48155 17.575V18.4616C4.4892 18.6557 4.45073 18.8486 4.36928 19.025C4.28783 19.2013 4.16565 19.3556 4.01295 19.4755L1.59315 21.3746L1.55715 21.4037C1.18395 21.7145 0.933527 22.148 0.850652 22.6265C0.767702 23.1051 0.857777 23.5976 1.1046 24.0159L4.3803 29.6837C4.38405 29.6891 4.38743 29.6947 4.39028 29.7005C4.63845 30.113 5.02335 30.4256 5.47793 30.584C5.93258 30.7422 6.42833 30.7364 6.879 30.5672L6.90585 30.5573L9.74895 29.4122C9.92865 29.3396 10.1228 29.3107 10.3158 29.3279C10.5089 29.3451 10.6949 29.408 10.8587 29.5112C11.1103 29.6702 11.366 29.82 11.6257 29.9606C11.7941 30.0519 11.9387 30.1815 12.0479 30.339C12.157 30.4964 12.2276 30.6773 12.2538 30.8671L12.6803 33.9035L12.6895 33.9587C12.7831 34.4298 13.0361 34.8542 13.406 35.1605C13.776 35.4667 14.2402 35.636 14.7204 35.6399H21.2794C21.7657 35.6384 22.2357 35.4653 22.6068 35.1512C22.9779 34.8371 23.2262 34.4019 23.308 33.9227L23.3149 33.8798L23.7422 30.8372C23.7688 30.6476 23.8393 30.467 23.9483 30.3095C24.0572 30.1521 24.2015 30.0224 24.3695 29.9307C24.6317 29.7896 24.8879 29.64 25.1364 29.4842C25.3001 29.3816 25.4857 29.3193 25.6781 29.3025C25.8705 29.2855 26.0642 29.3144 26.2431 29.3869L29.0909 30.5335L29.1177 30.5443C29.5691 30.7138 30.0656 30.7196 30.5208 30.5607C30.9761 30.4019 31.3612 30.0882 31.6088 29.6744C31.6118 29.6687 31.6152 29.6631 31.6188 29.6576L34.8944 23.9906C35.1422 23.5718 35.2327 23.0787 35.15 22.5994C35.0672 22.1201 34.8165 21.6858 34.4428 21.3745ZM24.1287 18.2882C24.0728 19.4759 23.6731 20.6218 22.9781 21.5866C22.283 22.5512 21.3227 23.2933 20.2138 23.7223C19.1049 24.1513 17.8952 24.249 16.7318 24.0032C15.5686 23.7575 14.5016 23.1791 13.661 22.3383C12.8203 21.4975 12.242 20.4306 11.9963 19.2672C11.7509 18.1039 11.8486 16.8941 12.2778 15.7853C12.707 14.6765 13.4491 13.7163 14.4139 13.0214C15.3786 12.3264 16.5246 11.9268 17.7122 11.8711C18.565 11.8336 19.4162 11.9739 20.2116 12.2831C21.0072 12.5923 21.7296 13.0637 22.3331 13.6673C22.9365 14.2708 23.4079 14.9933 23.717 15.7889C24.0261 16.5844 24.1663 17.4356 24.1287 18.2882Z" fill="black"/>
</g>
<defs>
<clipPath id="clip0_598_343">
<rect width="36" height="36" fill="white"/>
</clipPath>
</defs>
</svg>
