<svg width="36" height="36" viewBox="0 0 36 36" fill="none" xmlns="http://www.w3.org/2000/svg">
<path d="M16.875 3.11035C15.9656 3.28 14.8974 3.64564 13.2566 4.2073L12.3974 4.50141C7.88748 6.04516 5.63255 6.81703 5.06628 7.62384C4.51238 8.41302 4.50027 10.7248 4.5 15.3143L16.875 11.1894V3.11035Z" fill="black"/>
<path d="M16.875 13.5608L4.5 17.6858V17.987C4.5 26.444 10.8584 30.5482 14.8478 32.2909C15.6139 32.6255 16.1088 32.8417 16.875 32.9395V13.5608Z" fill="black"/>
<path d="M19.125 32.9395V13.5608L31.5 17.6858V17.987C31.5 26.444 25.1415 30.5482 21.1521 32.2909C20.3861 32.6255 19.8912 32.8417 19.125 32.9395Z" fill="black"/>
<path d="M19.125 11.1894V3.11035C20.0344 3.28 21.1026 3.64564 22.7435 4.2073L23.6026 4.50141C28.1125 6.04516 30.3675 6.81703 30.9337 7.62384C31.4877 8.41302 31.4997 10.7248 31.5 15.3143L19.125 11.1894Z" fill="black"/>
</svg>
