<svg width="36" height="36" viewBox="0 0 36 36" fill="none" xmlns="http://www.w3.org/2000/svg">
<g clip-path="url(#clip0_597_313)">
<path d="M35.22 20.385L16.335 1.5C15.3366 0.601867 14.0609 0.0725276 12.72 0L3 0C2.20563 0.00334918 1.44503 0.321618 0.885 0.885C0.321618 1.44503 0.00334918 2.20563 0 3L0 12.735C0.0511469 14.0807 0.583388 15.3634 1.5 16.35L20.385 35.22C20.6108 35.4604 20.8824 35.6532 21.1838 35.7872C21.4851 35.9211 21.8103 35.9935 22.14 36C22.3193 36.0221 22.5007 36.0221 22.68 36C23.0872 35.8828 23.4571 35.6624 23.7541 35.3602C24.0511 35.058 24.2649 34.6842 24.375 34.275L26.55 27C26.5892 26.8976 26.6495 26.8046 26.727 26.727C26.8046 26.6495 26.8976 26.5892 27 26.55L34.155 24.375C34.5699 24.2799 34.9505 24.072 35.2547 23.7742C35.5589 23.4764 35.7749 23.1004 35.8788 22.6876C35.9828 22.2749 35.9707 21.8414 35.8439 21.435C35.717 21.0287 35.4803 20.6653 35.16 20.385H35.22ZM9 11.235C8.55373 11.238 8.11666 11.1082 7.74436 10.8621C7.37205 10.616 7.08135 10.2647 6.90919 9.85299C6.73704 9.44125 6.69122 8.98761 6.77756 8.54976C6.86389 8.11191 7.07849 7.70963 7.39406 7.39406C7.70963 7.07849 8.11191 6.86389 8.54976 6.77756C8.98761 6.69122 9.44125 6.73704 9.85299 6.90919C10.2647 7.08135 10.616 7.37205 10.8621 7.74436C11.1082 8.11666 11.238 8.55373 11.235 9C11.2311 9.59155 10.9943 10.1577 10.576 10.576C10.1577 10.9943 9.59155 11.2311 9 11.235Z" fill="black"/>
</g>
<defs>
<clipPath id="clip0_597_313">
<rect width="36" height="36" fill="white"/>
</clipPath>
</defs>
</svg>
