<svg width="36" height="36" viewBox="0 0 36 36" fill="none" xmlns="http://www.w3.org/2000/svg">
<g clip-path="url(#clip0_547_34)">
<path d="M17.9998 2.99976C19.3438 2.99976 20.6458 3.17676 21.8848 3.50826L18.6958 6.69576C18.4538 6.93865 18.2404 7.2084 18.0598 7.49976H17.9998C15.9231 7.49976 13.893 8.11557 12.1663 9.26933C10.4396 10.4231 9.09374 12.063 8.29902 13.9816C7.5043 15.9002 7.29637 18.0114 7.70151 20.0482C8.10666 22.085 9.10668 23.9559 10.5751 25.4244C12.0436 26.8928 13.9145 27.8929 15.9513 28.298C17.9881 28.7031 20.0993 28.4952 22.0179 27.7005C23.9366 26.9058 25.5764 25.56 26.7302 23.8332C27.8839 22.1065 28.4998 20.0765 28.4998 17.9998V17.9398C28.7878 17.7598 29.0578 17.5483 29.3023 17.3023L32.4913 14.1148C32.8228 15.3538 32.9998 16.6558 32.9998 17.9998C32.9998 26.2843 26.2843 32.9998 17.9998 32.9998C9.71526 32.9998 2.99976 26.2843 2.99976 17.9998C2.99976 9.71526 9.71526 2.99976 17.9998 2.99976ZM17.3788 10.5253C17.3788 11.8018 17.3158 13.0963 17.3848 14.3713L16.5748 15.1813C16.012 15.744 15.6959 16.5072 15.6959 17.303C15.6959 18.0988 16.012 18.862 16.5748 19.4248C17.1375 19.9875 17.9007 20.3036 18.6965 20.3036C19.4923 20.3036 20.2555 19.9875 20.8183 19.4248L21.6283 18.6148C22.9033 18.6838 24.1963 18.6208 25.4743 18.6208C25.3558 20.0463 24.8321 21.4082 23.965 22.5458C23.0979 23.6835 21.9235 24.5495 20.5805 25.0416C19.2374 25.5337 17.7815 25.6315 16.3847 25.3235C14.9878 25.0154 13.7082 24.3142 12.6967 23.3028C11.6853 22.2913 10.9841 21.0117 10.6761 19.6148C10.368 18.218 10.4658 16.7622 10.9579 15.4191C11.4501 14.076 12.316 12.9016 13.4537 12.0345C14.5913 11.1674 15.9532 10.6437 17.3788 10.5253ZM27.7558 3.19026C28.0296 3.30377 28.2636 3.49586 28.4283 3.74227C28.593 3.98868 28.681 4.27836 28.6813 4.57476V7.31976H31.4248C31.7214 7.31982 32.0113 7.40783 32.2579 7.57265C32.5046 7.73748 32.6968 7.97172 32.8103 8.24577C32.9238 8.51982 32.9535 8.82137 32.8956 9.1123C32.8378 9.40323 32.695 9.67048 32.4853 9.88025L27.1798 15.1798C26.8985 15.4611 26.517 15.6192 26.1193 15.6193H22.4998L19.7578 18.3628C19.4763 18.6442 19.0946 18.8023 18.6965 18.8023C18.2985 18.8023 17.9167 18.6442 17.6353 18.3628C17.3538 18.0813 17.1957 17.6996 17.1957 17.3015C17.1957 16.9035 17.3538 16.5217 17.6353 16.2403L20.3788 13.4998V9.87876C20.3786 9.68154 20.4173 9.48622 20.4928 9.30399C20.5682 9.12176 20.6788 8.95619 20.8183 8.81676L26.1208 3.51426C26.3305 3.30436 26.5978 3.16139 26.8889 3.10345C27.1799 3.04551 27.4816 3.0767 27.7558 3.19026Z" fill="black"/>
</g>
<defs>
<clipPath id="clip0_547_34">
<rect width="36" height="36" fill="white"/>
</clipPath>
</defs>
</svg>
