<svg width="36" height="36" viewBox="0 0 36 36" fill="none" xmlns="http://www.w3.org/2000/svg">
<path d="M6.75 9.5625C6.75 7.92147 7.4019 6.34766 8.56228 5.18728C9.72266 4.0269 11.2965 3.375 12.9375 3.375C14.5785 3.375 16.1523 4.0269 17.3127 5.18728C18.4731 6.34766 19.125 7.92147 19.125 9.5625C19.125 11.2035 18.4731 12.7773 17.3127 13.9377C16.1523 15.0981 14.5785 15.75 12.9375 15.75C11.2965 15.75 9.72266 15.0981 8.56228 13.9377C7.4019 12.7773 6.75 11.2035 6.75 9.5625ZM21.375 12.9375C21.375 12.2727 21.5059 11.6144 21.7604 11.0002C22.0148 10.386 22.3877 9.82787 22.8578 9.35777C23.3279 8.88768 23.886 8.51477 24.5002 8.26036C25.1144 8.00595 25.7727 7.875 26.4375 7.875C27.1023 7.875 27.7606 8.00595 28.3748 8.26036C28.989 8.51477 29.5471 8.88768 30.0172 9.35777C30.4873 9.82787 30.8602 10.386 31.1146 11.0002C31.3691 11.6144 31.5 12.2727 31.5 12.9375C31.5 14.2802 30.9666 15.5678 30.0172 16.5172C29.0678 17.4666 27.7802 18 26.4375 18C25.0948 18 23.8072 17.4666 22.8578 16.5172C21.9084 15.5678 21.375 14.2802 21.375 12.9375ZM2.25 28.6875C2.25 25.853 3.376 23.1346 5.3803 21.1303C7.38459 19.126 10.103 18 12.9375 18C15.772 18 18.4904 19.126 20.4947 21.1303C22.499 23.1346 23.625 25.853 23.625 28.6875V28.692L23.6235 28.8705C23.6203 29.0613 23.5687 29.2481 23.4734 29.4134C23.3782 29.5787 23.2424 29.7171 23.079 29.8155C20.0178 31.6589 16.5109 32.6305 12.9375 32.625C9.2295 32.625 5.7585 31.599 2.7975 29.8155C2.63378 29.7173 2.49775 29.579 2.40223 29.4136C2.30671 29.2483 2.25484 29.0614 2.2515 28.8705L2.25 28.6875ZM25.875 28.692L25.8735 28.908C25.8651 29.408 25.7457 29.8998 25.524 30.348C28.1426 30.5095 30.7581 29.9874 33.114 28.833C33.2962 28.7439 33.4509 28.6073 33.5618 28.4375C33.6727 28.2677 33.7357 28.0711 33.744 27.8685C33.797 26.6104 33.5241 25.3599 32.9519 24.2381C32.3797 23.1164 31.5275 22.1614 30.4778 21.4658C29.4282 20.7701 28.2167 20.3572 26.9606 20.2672C25.7046 20.1772 24.4466 20.4131 23.3085 20.952C24.9783 23.1849 25.8784 25.8993 25.8735 28.6875L25.875 28.692Z" fill="black"/>
</svg>
