<svg width="36" height="36" viewBox="0 0 36 36" fill="none" xmlns="http://www.w3.org/2000/svg">
<path fill-rule="evenodd" clip-rule="evenodd" d="M4.125 6.375C4.125 3.47551 6.47551 1.125 9.375 1.125C12.2745 1.125 14.625 3.47551 14.625 6.375C14.625 9.2745 12.2745 11.625 9.375 11.625C6.47551 11.625 4.125 9.2745 4.125 6.375ZM31.7692 30.439C30.8578 30.1138 29.9452 29.7232 29.1051 29.3302C29.189 27.9149 29.2498 26.1485 29.2498 24C29.2498 21.8508 29.1889 20.0839 29.1049 18.6683C29.9451 18.2753 30.8578 17.8846 31.7692 17.5595C32.5472 17.2819 33.328 17.3747 33.9365 17.7656C34.545 18.1565 34.9537 18.8279 35.0228 19.6516C35.1088 20.679 35.1748 22.0891 35.1748 23.9993C35.1748 25.9094 35.1088 27.3195 35.0228 28.3468C34.9537 29.1706 34.545 29.8421 33.9365 30.233C33.328 30.6238 32.5472 30.7166 31.7692 30.439ZM20.25 3.375C17.9718 3.375 16.125 5.22182 16.125 7.5C16.125 9.7782 17.9718 11.625 20.25 11.625C22.5282 11.625 24.375 9.7782 24.375 7.5C24.375 5.22182 22.5282 3.375 20.25 3.375ZM14.25 34.875C10.5494 34.875 7.815 34.7762 5.93558 34.6687C3.48574 34.5287 1.51995 32.6921 1.33237 30.2017C1.21906 28.6976 1.125 26.6506 1.125 24C1.125 21.3494 1.21906 19.3025 1.33237 17.7983C1.51996 15.3079 3.48574 13.4713 5.93558 13.3312C7.815 13.2238 10.5494 13.125 14.25 13.125C17.9506 13.125 20.685 13.2238 22.5644 13.3312C25.0143 13.4713 26.98 15.3079 27.1676 17.7983C27.2809 19.3025 27.375 21.3494 27.375 24C27.375 26.6506 27.2809 28.6976 27.1676 30.2017C26.98 32.6921 25.0142 34.5287 22.5644 34.6687C20.685 34.7762 17.9506 34.875 14.25 34.875ZM18.0171 19.2383C18.0419 18.5914 18.4609 18.0983 19.1059 18.043C19.4022 18.0176 19.7779 18 20.25 18C20.7221 18 21.0978 18.0176 21.3941 18.043C22.0391 18.0983 22.4581 18.5914 22.4829 19.2383C22.4932 19.506 22.5 19.8388 22.5 20.25C22.5 20.6612 22.4932 20.994 22.4829 21.2617C22.4581 21.9086 22.0391 22.4017 21.3941 22.457C21.0978 22.4824 20.7221 22.5 20.25 22.5C19.7779 22.5 19.4022 22.4824 19.1059 22.457C18.4609 22.4017 18.0419 21.9086 18.0171 21.2617C18.0068 20.994 18 20.6612 18 20.25C18 19.8388 18.0068 19.506 18.0171 19.2383Z" fill="black"/>
</svg>
