<svg width="36" height="36" viewBox="0 0 36 36" fill="none" xmlns="http://www.w3.org/2000/svg">
<path d="M21.75 10.5C23.8211 10.5 25.5 8.82107 25.5 6.75C25.5 4.67893 23.8211 3 21.75 3C19.6789 3 18 4.67893 18 6.75C18 8.82107 19.6789 10.5 21.75 10.5Z" fill="black"/>
<path fill-rule="evenodd" clip-rule="evenodd" d="M21.75 10.5V19.875H25.5L33 33H25.5L21.4631 25.9356C20.434 29.9959 16.7553 33 12.375 33C7.19734 33 3 28.8026 3 23.625C3 18.4473 7.19734 14.25 12.375 14.25C12.4815 14.25 12.5876 14.2518 12.6932 14.2553C13.4639 12.0678 15.5489 10.5 18 10.5H21.75ZM8.625 23.625C8.625 21.5539 10.3039 19.875 12.375 19.875C14.4461 19.875 16.125 21.5539 16.125 23.625C16.125 25.6961 14.4461 27.375 12.375 27.375C10.3039 27.375 8.625 25.6961 8.625 23.625Z" fill="black"/>
</svg>
